<svg xmlns="http://www.w3.org/2000/svg" viewBox="0 0 500 500"><ellipse cx="249.12" cy="358.2" rx="231.42" ry="128.63" fill="#f5f5f5"/><g fill="#e0e0e0"><ellipse cx="125.74" cy="405.71" rx="46.31" ry="26.74"/><path d="M430 325.89q-16.16-17.31-46.35-26.5a12.6 12.6 0 00-5-.28c-22.45 4.23-40.8 15.25-57.49 27.43a2.08 2.08 0 00-.18 3.32l.81.72c-28-7.63-62.43-4.77-85.57 8.59-29.46 17-29.46 44.59 0 61.6s77.23 17 106.69 0c20.77-12 26.87-29.22 18.37-44.3a180.29 180.29 0 0018.55 7.27 7.24 7.24 0 004.79-.37c17-8.6 33.19-22.66 45.26-33.77a2.63 2.63 0 00.12-3.71z"/></g><path fill="#455a64" d="M379.1 240.36l3.78.11 3.14-41.98-3.78-.11-3.14 41.98zm32.29 17.72l3.78.11 3.13-41.98-3.78-.11-3.13 41.98zm-1.28 3.6h6.26l9.09 64.95a.76.76 0 01-.45.69 2.5 2.5 0 01-2.23 0 .87.87 0 01-.45-.54zM372.59 240h6.25l9.1 64.94a.76.76 0 01-.46.69 2.42 2.42 0 01-2.22 0 .82.82 0 01-.45-.54zm-48.32 85.47l10.8-63.79h6.25l-13.91 63.94a.84.84 0 01-.44.53 2.44 2.44 0 01-2.23 0 .72.72 0 01-.45-.68zm40.65 23.47L374 284h6.25l-12.2 65.1a.84.84 0 01-.44.53 2.44 2.44 0 01-2.23 0 .73.73 0 01-.45-.68z"/><path d="M335.07 261.68h6.25l-2.54 11.69q-2.13-1.77-4.16-3.63a4.15 4.15 0 01-.75-1zm81.3 0l1.08 7.76a4.87 4.87 0 01-1.21 2.11 100.3 100.3 0 01-3.67 3.21l-2.46-13.08zm-43.61 31.26L374 284h6.25l-2 10.9q-2.82-.9-5.49-1.96zm5.46-51.25a6.62 6.62 0 01.85-.1l7.1 50.78c-1.14.62-2.28 1.22-3.43 1.81l-9.63-51.41c1.68-.39 3.38-.77 5.11-1.08z" fill="#37474f"/><path d="M378.29 290c-17.7-5.86-32-14.45-43.67-25.17a5.05 5.05 0 01-1.41-3.24v-3.37a4.3 4.3 0 011.55-3.08 105.75 105.75 0 0143.46-18.36 9.24 9.24 0 013.74.2q22.41 6.84 34.39 19.69a5.62 5.62 0 011.29 3.35v3.38a5 5 0 01-1.4 3.24c-9 8.24-21.76 16.71-34.4 23.1a5.29 5.29 0 01-3.55.26z" fill="#92e3a9"/><path d="M333.21 258.19v3.37a5.05 5.05 0 001.41 3.24c11.66 10.72 26 19.32 43.66 25.17a5.07 5.07 0 002 .16v-53.46a8.37 8.37 0 00-2 .08 105.73 105.73 0 00-43.47 18.37 4.29 4.29 0 00-1.6 3.07z" opacity=".4"/><path d="M380.26 236.67v53.46a4.37 4.37 0 001.58-.43c12.63-6.38 25.44-14.85 34.4-23.09a5 5 0 001.4-3.24V260a5.62 5.62 0 00-1.29-3.35Q404.37 243.79 382 237a7.35 7.35 0 00-1.74-.33z" opacity=".5"/><path d="M416.24 259.36c-9 8.25-21.76 16.7-34.4 23.08a5.36 5.36 0 01-3.55.27c-17.7-5.83-32-14.41-43.67-25.14a1.54 1.54 0 01.14-2.46 105.62 105.62 0 0143.46-18.36 9.24 9.24 0 013.74.2q22.41 6.84 34.39 19.66a2 2 0 01-.11 2.75z" fill="#92e3a9"/><path d="M416.24 259.36c-9 8.25-21.76 16.7-34.4 23.08a5.36 5.36 0 01-3.55.27c-17.7-5.83-32-14.41-43.67-25.14a1.54 1.54 0 01.14-2.46 105.62 105.62 0 0143.46-18.36 9.24 9.24 0 013.74.2q22.41 6.84 34.39 19.66a2 2 0 01-.11 2.75z" opacity=".3"/><path d="M425.7 209.27q-18-23.1-47-27.11a6.38 6.38 0 00-3.47.66 3.59 3.59 0 00-1.56 2.83v14.2a2.25 2.25 0 001.91 2.17q29 4 47 27.11a2.17 2.17 0 002.72.63 3.56 3.56 0 001.57-2.83v-14.2a6.61 6.61 0 00-1.17-3.46z" fill="#92e3a9"/><path d="M413 218.83l13.55-7.83a5.8 5.8 0 01.32 1.74v14.2a3.56 3.56 0 01-1.57 2.83 2.17 2.17 0 01-2.72-.63 76.42 76.42 0 00-9.58-10.31z" opacity=".5"/><path d="M413 218.83Q397.41 205 375.62 202a2.25 2.25 0 01-1.91-2.17v-14.2a3.59 3.59 0 011.56-2.83 6.38 6.38 0 013.47-.66q29 4 47 27.11a5.88 5.88 0 01.85 1.72z" opacity=".3"/><path d="M422.57 229.13Q404.6 206 375.62 202a2.25 2.25 0 01-1.91-2.17v-14.2a1.64 1.64 0 011.91-1.68q29 4 47 27.11a6.56 6.56 0 011.16 3.45v14.21c-.04 1.08-.55 1.28-1.21.41z" fill="#92e3a9"/><path d="M422.57 229.13Q404.6 206 375.62 202a2.25 2.25 0 01-1.91-2.17v-14.2a1.64 1.64 0 011.91-1.68q29 4 47 27.11a6.56 6.56 0 011.16 3.45v14.21c-.04 1.08-.55 1.28-1.21.41z" opacity=".4"/><path d="M371.2 165.42c-7.09.5-10.21 1.51-13 8.15-2.33 5.62-9.93 33.58-9.93 33.58s-15.1 9.33-22.89 13.24l8.45 6.81s19.06-6.58 22.41-8.18 3.28-2.55 6.93-14.3c5.25-16.72 8.03-39.3 8.03-39.3z" fill="#ffbda7"/><path d="M371.66 165c-4.21-.21-9.78 1.07-12.65 5.68s-8.73 26.79-8.73 26.79 7.56 6.59 17.3 6.46l4.8-22.95z" fill="#92e3a9"/><path d="M349.23 322.06s-1.08 12.45-2.94 16.51a61.93 61.93 0 01-7.59 13c-.74 1-2.45 2.75-3.06 3.52a1.43 1.43 0 00.27 2.19c1.69 1.45 8.54 1.46 12.21-1.61s6.62-7.95 8.78-10.38c1.08-1.21 2.1-2.37 2.84-3.23a3.08 3.08 0 00.62-3c-.1-.3-.2-.64-.32-1.05-1.08-3.64.71-14.21.71-14.21-3.53-4.39-7.42-2.71-11.52-1.74z" fill="#ffbda7"/><path d="M360.93 342.63a3.91 3.91 0 01-.09 2c-.35.93-2.83 2.7-4.12 3.42a8.3 8.3 0 00-3.33 3.82c-1.46 2.8-3.72 5.85-6.66 7.38a21.68 21.68 0 01-12.76 2c-5.41-.69-6-3.83-6-3.83s-.44-3 .87-3.5 32.09-11.29 32.09-11.29z" fill="#263238"/><path d="M361.48 338.93a8.6 8.6 0 01-.55 3.7c-1.47 2.27-5.16 3.18-7.17 6.28s-4.34 7.84-11.29 9.59-12.4-.21-13.8-2.15-.31-3.88 4.07-6.53c4.65-2.83 10-10 10-10 1.75-2.45 2.41-5.62 3.33-8.46.08-.27.23-.6.52-.62s.52.4.72.69a2.29 2.29 0 001.39.78 16.93 16.93 0 005.72.73 1.61 1.61 0 011.21.27 1.43 1.43 0 01.29 1.07 13.62 13.62 0 01-.13 1.42 1.34 1.34 0 000 .69.86.86 0 00.82.5 1.78 1.78 0 001-.35 4.27 4.27 0 002.17-3s0-.72.06-1.37a1.72 1.72 0 01.91 1 15.08 15.08 0 01.24 1.66 28.26 28.26 0 01.49 4.1z" fill="#37474f"/><path d="M319.37 305.76s-1.36 12.87-3 17a62.13 62.13 0 01-7 13.3c-.7 1-2.32 2.85-2.9 3.64a1.43 1.43 0 00.37 2.18c1.75 1.38 8.59 1.08 12.13-2.15s6.25-8.24 8.3-10.76c1-1.26 2-2.47 2.7-3.35a3.13 3.13 0 00.48-3c-.11-.29-.23-.63-.37-1-1.23-3.6 2-13.56 2-13.56-3.77-4.24-8.66-3.44-12.71-2.3z" fill="#ffbda7"/><path d="M331.15 327a4 4 0 01-.09 2c-.35.92-2.84 2.7-4.12 3.41a8.35 8.35 0 00-3.33 3.82c-1.47 2.81-3.72 5.85-6.66 7.38a21.69 21.69 0 01-12.76 2c-5.41-.7-6-3.84-6-3.84s-.43-3 .88-3.5S331.15 327 331.15 327z" fill="#263238"/><path d="M331.69 323.34a8.6 8.6 0 01-.54 3.7c-1.47 2.27-5.17 3.18-7.17 6.28s-4.34 7.84-11.3 9.59-12.4-.22-13.8-2.15-.31-3.88 4.07-6.54c4.65-2.82 10-10 10-10 1.75-2.46 2.41-5.63 3.32-8.46.09-.28.24-.6.53-.62s.52.39.72.68a2.17 2.17 0 001.38.78 15.16 15.16 0 001.88.46 17.1 17.1 0 003.85.28 1.58 1.58 0 011.21.27 1.4 1.4 0 01.28 1.06 9.61 9.61 0 01-.13 1.42 1.51 1.51 0 000 .7.87.87 0 00.83.5 2 2 0 00.95-.35 4.13 4.13 0 002.07-3 12.63 12.63 0 01.16-1.37 1.82 1.82 0 01.91 1c.15.54.13 1.12.24 1.66a28.38 28.38 0 01.54 4.11zm78.07-92.06l-16.55-1.18-33.65-2.71s-30.89 17.29-35.29 27c-2.55 5.63-5 48.61-5.47 55 2.32 1.84 9.1 3.85 11.94 3.37 1.76-5.07 3.29-7.24 5.74-14.7 2-6.08 3.84-10.14 5.27-14.34a62.44 62.44 0 003-15.2s10.9-7.46 19.08-10.57c-4.51 4.93-11 13.84-11.84 15.8-2.51 5.65-3.43 46.18-3.43 51.8 1.81 2.45 10.44 2.95 12.62 1.45 2.62-9.2 4.56-13.63 6.67-21.19 3.36-12.05 2.27-16.94 1.78-21.34 0 0 8.71-5.54 20-14 4.76-3.57 10.64-8.49 13.9-12.25 5.97-6.9 6.86-19.09 6.23-26.94z" fill="#37474f"/><path d="M363.79 258l9.32-10.4s-9.48-4.16-11.24-13.15c0 0-1.54 7.58 5.71 13.74l-6.32 8.81-16.55 11.56c6.84-3.56 13.63-7.27 19.08-10.56z" fill="#263238"/><path d="M386.59 164.85a77.7 77.7 0 0112.9 1.63c4.77 1.63 6.16 2.87 8.47 9.46 3.45 9.83 2.39 23.38 2.39 32.67 0 12.34-.29 26.61-.29 26.61-10.43 8.78-44.39 4.78-50.06-7.61 0 0 1.32-15.5 1.32-43.72 0-13.68 4.93-19.33 13.67-19.33.01 0 7.21.11 11.6.29z" fill="#455a64"/><path d="M379.32 133.22a10.42 10.42 0 11-10.88-9.94 10.42 10.42 0 0110.88 9.94zm16.68 8.63s-1.67 10.53-2.44 12.28a4.58 4.58 0 01-2.53 2.32l-.18-7.35z" fill="#263238"/><path d="M394 127a3.47 3.47 0 013.22 1.44c1.46 2.14.72 7.62-1.21 13.45l-4 .66z" fill="#263238"/><path d="M395.33 128.1l4.89-.65a2.33 2.33 0 00-2.62-2.24 2.73 2.73 0 00-2.27 2.89z" fill="#263238"/><path d="M395.75 126.86l3.08-4a2.36 2.36 0 00-3.44.39 2.69 2.69 0 00.36 3.61z" fill="#263238"/><path d="M390.79 142.57c.83.46 1.9-1.2 2.85-2.33s3.73-2.3 5.5 1.18a5.8 5.8 0 01-3 8 3.94 3.94 0 01-4.25-.7l.18 17.35c-4.28 10.43-21.55 8.09-15.39 1.06v-6.6s-3 .31-5.79.35c-2.32 0-4.9-1.47-6.13-5a52.33 52.33 0 01-2.55-13.2 51.68 51.68 0 010-8.15c1.18-11.57 15.2-15.19 23-10.54s5.58 18.58 5.58 18.58z" fill="#ffbda7"/><path d="M372.9 132.46a26.65 26.65 0 008.23-2.84 1 1 0 01.8-.19c.3.09.44.4.56.68a27.53 27.53 0 001.66 3.86 5.87 5.87 0 003.09 2.72 2.44 2.44 0 011.31.63 2.33 2.33 0 01.43 1.35 10.72 10.72 0 01-.22 1.86c-.12.85-.33 2.32.18 3.05a1.36 1.36 0 002 .26 8.27 8.27 0 001.48-2 12.33 12.33 0 011.59-2c.56-.54.28-1.67.37-2.42.19-1.51.26-3 .31-4.56 0-1.29.82-4.19 1-5.46.27-1.83.08-1.18-.61-2.46-1.5-6-8.23-8.19-13.5-7.63a55.39 55.39 0 01-7.05.34 51.46 51.46 0 01-8.84-.82 2.36 2.36 0 00-1.21 0 1.51 1.51 0 00-.8 1.7 4.41 4.41 0 00.92 1.8 9.91 9.91 0 00-2.8-.78 3.32 3.32 0 00-2.69.89 4 4 0 00-.71 3.35 10.71 10.71 0 007.21 8.21 15.49 15.49 0 007.29.46z" fill="#263238"/><path d="M376.7 160.5s7.16-1.52 9.62-3a8.47 8.47 0 003.33-3.75 12.29 12.29 0 01-1.79 4.33c-1.74 2.54-11.16 4.78-11.16 4.78z" fill="#f0997a"/><path d="M376.63 141.41a1.46 1.46 0 102.9 0 1.5 1.5 0 00-1.46-1.55 1.52 1.52 0 00-1.44 1.55zm.83-4.76l3.12 1.75a2 2 0 00-.75-2.56 1.69 1.69 0 00-2.37.81z" fill="#263238"/><path d="M379 151l-5 2a2.63 2.63 0 003.45 1.71A3 3 0 00379 151z" fill="#f0997a"/><path d="M363.92 139l2.81-2.3a1.68 1.68 0 00-2.46-.37 2 2 0 00-.35 2.67zm.94 3a1.45 1.45 0 101.43-1.58 1.5 1.5 0 00-1.43 1.58z" fill="#263238"/><path fill="#f0997a" d="M372 141.3l.38 9.35-5.22-1.04 4.84-8.31z"/><path d="M387.73 119.77c4 2.62 8.54 7.61 8.28 18.5a5.78 5.78 0 012.64 5.57c-.27 3.4-2.91 6.16-5.89 6.15s-5.19-2.77-4.92-6.18c.2-2.54 2.29-5.41 4.44-5.7a21.62 21.62 0 00-1.83-10.88c-3.45-8.19-11.08-9-18.08-9.62 2.43-1.12 9.98-1.39 15.36 2.16z" fill="#92e3a9"/><path d="M387.73 119.77c4 2.62 8.54 7.61 8.28 18.5a5.78 5.78 0 012.64 5.57c-.27 3.4-2.91 6.16-5.89 6.15s-5.19-2.77-4.92-6.18c.2-2.54 2.29-5.41 4.44-5.7a21.62 21.62 0 00-1.83-10.88c-3.45-8.19-11.08-9-18.08-9.62 2.43-1.12 9.98-1.39 15.36 2.16z" opacity=".5"/><path d="M387.19 143.79c.3-3.78 3.22-6.83 6.53-6.82a5.09 5.09 0 011.48.22c.4.13 1.63.64 1.87.74a6.24 6.24 0 013.58 6.48c-.3 3.77-3.22 6.82-6.53 6.82a5 5 0 01-1.78-.33l-1.72-.69a6.27 6.27 0 01-3.43-6.42z" fill="#92e3a9"/><path d="M387.19 143.79c.3-3.78 3.22-6.83 6.53-6.82a5.09 5.09 0 011.48.22c.4.13 1.63.64 1.87.74a6.24 6.24 0 013.58 6.48c-.3 3.77-3.22 6.82-6.53 6.82a5 5 0 01-1.78-.33l-1.72-.69a6.27 6.27 0 01-3.43-6.42z" opacity=".3"/><path d="M388.67 144.38c.3-3.77 3.22-6.82 6.53-6.81s5.74 3.07 5.45 6.84-3.22 6.82-6.53 6.82-5.75-3.08-5.45-6.85z" fill="#92e3a9"/><path d="M388.67 144.38c.3-3.77 3.22-6.82 6.53-6.81s5.74 3.07 5.45 6.84-3.22 6.82-6.53 6.82-5.75-3.08-5.45-6.85z" opacity=".1"/><path d="M391.83 144.39a3.35 3.35 0 013.08-3.22 2.79 2.79 0 012.57 3.23 3.35 3.35 0 01-3.08 3.22 2.78 2.78 0 01-2.57-3.23z" fill="#455a64"/><path d="M308 354.92c-10.15-5.86-26.6-5.86-36.75 0-5.07 2.93-7.6 6.77-7.6 10.61v3.3c.08 3.78 2.61 7.54 7.6 10.42 10.15 5.86 26.6 5.86 36.75 0 5-2.89 7.55-6.68 7.6-10.48v-3.3c-.07-3.82-2.6-7.64-7.6-10.55z" fill="#37474f"/><path d="M271.2 376.14c-10.15-5.86-10.15-15.36 0-21.22s26.6-5.86 36.75 0 10.15 15.36 0 21.22-26.6 5.86-36.75 0z" fill="#455a64"/><path d="M292.79 363v-63.6h-6.47V363a1.5 1.5 0 00.92 1.48 5.06 5.06 0 004.58 0 1.49 1.49 0 00.97-1.48z" fill="#37474f"/><path d="M342.85 240.67c-29.46-17-77.23-17-106.69 0-14.73 8.5-22.09 19.65-22.08 30.8v2.16c0 11.15 7.35 22.3 22.08 30.8 29.46 17 77.23 17 106.69 0 14.73-8.5 22.09-19.65 22.08-30.8v-2.16c.01-11.15-7.35-22.29-22.08-30.8z" fill="#455a64"/><path d="M342.92 235c-29.46-17-77.23-17-106.69 0-14.74 8.5-22.09 19.65-22.09 30.8v3.71c0 11.15 7.35 22.29 22.09 30.8 29.46 17 77.23 17 106.69 0C357.65 291.82 365 279.13 365 268v-2.16c0-11.17-7.35-22.32-22.08-30.84z" fill="#92e3a9"/><path d="M342.92 235c-29.46-17-77.23-17-106.69 0-14.74 8.5-22.09 19.65-22.09 30.8v3.71c0 11.15 7.35 22.29 22.09 30.8 29.46 17 77.23 17 106.69 0C357.65 291.82 365 279.13 365 268v-2.16c0-11.17-7.35-22.32-22.08-30.84z" fill="#fff" opacity=".4"/><path d="M342.92 235c-29.46-17-77.23-17-106.69 0-14.74 8.5-22.09 19.65-22.09 30.8v3.71c0 11.15 7.35 22.29 22.09 30.8 29.46 17 77.23 17 106.69 0C357.65 291.82 365 279.13 365 268v-2.16c0-11.17-7.35-22.32-22.08-30.84z" opacity=".1"/><ellipse cx="289.57" cy="265.82" rx="75.44" ry="43.56" fill="#92e3a9"/><path d="M236.16 296.62c-29.46-17-29.46-44.59 0-61.6s77.23-17 106.69 0 29.47 44.59 0 61.6-77.23 17.01-106.69 0z" fill="#fff" opacity=".85"/><path d="M275.53 246.26L306 228.68a1.76 1.76 0 011.75 0l52.84 30.51a.39.39 0 010 .68l-30.74 17.75z" opacity=".1"/><path d="M277.8 242.56v.68a2.83 2.83 0 001.41 2.44l49.22 28.42a2.84 2.84 0 002.82 0l26.83-15.44a2.81 2.81 0 001.4-2.43v-1a.36.36 0 01-.17.31l-29.47 17z" fill="#37474f"/><path d="M329.84 272.6v1.87a2.8 2.8 0 01-1.41-.37l-49.22-28.42a2.81 2.81 0 01-1.41-2.44v-.68z" fill="#263238"/><path d="M277.8 242.56l29.2-16.85a1.66 1.66 0 011.67 0l50.63 29.23a.38.38 0 010 .65l-29.45 17z" fill="#455a64"/><path fill="#37474f" d="M330.1 270.12l15.75-9.08-46.03-26.57L284 243.5l46.1 26.62z"/><path fill="#263238" d="M284 243.5l.6.35 15.22-8.69 45.42 26.23.6-.34-46.02-26.58L284 243.5zm53.84 1.37l-.29.16-7.71 4.46-13.72-7.92-.29-.17 8-4.62 14.01 8.09z"/><path fill="#37474f" d="M337.55 245.03l-7.71 4.46-13.72-7.92 7.71-4.46 13.72 7.92z"/><path d="M348.76 206.81c-4.06 2.39-9.15 5.51-12.11 7.15s-5.12 2.56-8.45 4.22c-2.56 1.27-5.78 2.34-7.64 4.08s-11.36 11.17-13.43 12.8-1 3.4 2.84 4.53a11.58 11.58 0 009.27-1 38.9 38.9 0 006.32-4.69 9.59 9.59 0 005.11-1.73c2-1.65 3.24-3.62 4.41-4.6s12.26-5.13 20.67-8.35z" fill="#ffbda7"/><path d="M329 273a3.33 3.33 0 01-2.87-.22l-49-28.29a3.33 3.33 0 01-1.63-2.33l-5.36-32a3.48 3.48 0 010-.55 3.34 3.34 0 011-2.37l50.93 29.41a2.47 2.47 0 011.19 1.72z" fill="#37474f"/><path d="M329.84 272.6l-.34.19a2.77 2.77 0 01-.46.22l-5.8-34.62a2.47 2.47 0 00-1.19-1.72l-50.93-29.41a3.5 3.5 0 01.68-.52l51 29.46a2.48 2.48 0 011.2 1.73z" fill="#455a64"/><path d="M322.77 237.32l.79-.46a2.53 2.53 0 01.47 1.07l5.81 34.67-.34.19a2.77 2.77 0 01-.46.22l-5.8-34.62a2.3 2.3 0 00-.47-1.07z" fill="#263238"/><path d="M301.44 243.48c-.36-2.14-2.57-5-4.94-6.35s-4-.74-3.64 1.4 2.58 5 4.94 6.35 4 .74 3.64-1.4z" fill="#92e3a9"/><path d="M375.38 241.56c1.41-1.2 24.63-9.1 28.87-11.37s4.66-4.29 5.86-10.72c1.74-9.33 3.23-32.17 2.85-40.09-.27-5.73-3.42-10.65-12.25-11.79-2.66 2.84-5.27 8.57-4.19 21.56-.44 5.58-3 29.06-3 29.06-3.65 1.9-12.34 7.33-16.6 9.7-3 1.68-5.13 2.56-8.46 4.22-2.56 1.26-5.77 2.34-7.64 4.08S349.5 247.38 347.44 249s-1 3.4 2.83 4.53a11.61 11.61 0 009.28-1 38.65 38.65 0 006.31-4.69 9.64 9.64 0 005.12-1.73c2.02-1.6 3.24-3.57 4.4-4.55z" fill="#ffbda7"/><path d="M399.62 166.57c4.37.43 10.42 2.26 12.59 6s2.54 5.36 1.65 17.16c-.83 11-1.77 17.67-1.77 17.67s-5.89 3.54-17.09-2.4l1-16s-2.46-16.37 3.62-22.43z" fill="#92e3a9"/><path d="M246.17 274.77a18.43 18.43 0 01-10.12-2.77c-2.37-1.57-3.67-3.53-3.67-5.52s1.3-4 3.67-5.53a19.93 19.93 0 0120.24 0c2.37 1.57 3.67 3.53 3.67 5.53s-1.3 3.95-3.67 5.52a18.43 18.43 0 01-10.12 2.77z" opacity=".2"/><path d="M257.67 265.46a7.1 7.1 0 002.76-.39c1.22-.45 2.28-1.76 3.25-4 .81-1.9 2.12-6.07 1.2-8.21-1.17-2.73-4.48-2.83-6.67-2.89h-.75l-.12 2.61c.26 0 .67.09 1 .1 1.23 0 3.95.46 4.25 1.16 1 1.69-1.59 8.18-2.72 8.89a10.09 10.09 0 01-4.24 0l-.86 2.18a9.77 9.77 0 002.9.55z" fill="#92e3a9"/><path d="M257.67 265.46a7.1 7.1 0 002.76-.39c1.22-.45 2.28-1.76 3.25-4 .81-1.9 2.12-6.07 1.2-8.21-1.17-2.73-4.48-2.83-6.67-2.89h-.75l-.12 2.61c.26 0 .67.09 1 .1 1.23 0 3.95.46 4.25 1.16 1 1.69-1.59 8.18-2.72 8.89a10.09 10.09 0 01-4.24 0l-.86 2.18a9.77 9.77 0 002.9.55z" opacity=".5"/><path d="M234.66 246.81c.25-1.11 1.35-2.2 3.29-3.07a23.44 23.44 0 0116.36-.17c2 .83 3.08 1.89 3.36 3h.06c.85 7.29-.37 15.77-2.92 20.48a.31.31 0 01-.05.1.25.25 0 010 .07 5.68 5.68 0 01-2.11 2 13.74 13.74 0 01-12.41.13 5.51 5.51 0 01-2.15-2v-.06l-.06-.11c-2.65-4.66-4-13.11-3.35-20.42z" fill="#92e3a9"/><path d="M234.66 246.81c.25-1.11 1.35-2.2 3.29-3.07a23.44 23.44 0 0116.36-.17c2 .83 3.08 1.89 3.36 3h.06c.85 7.29-.37 15.77-2.92 20.48a.31.31 0 01-.05.1.25.25 0 010 .07 5.68 5.68 0 01-2.11 2 13.74 13.74 0 01-12.41.13 5.51 5.51 0 01-2.15-2v-.06l-.06-.11c-2.65-4.66-4-13.11-3.35-20.42z" opacity=".4"/><path d="M238 243.74c-4.49 2-4.46 5.19.08 7.11a23.5 23.5 0 0016.36-.18c4.49-2 4.46-5.19-.08-7.1a23.44 23.44 0 00-16.36.17z" fill="#92e3a9"/><path d="M239.55 245c-3.63 1.32-3.61 3.39 0 4.64a23.14 23.14 0 0013.19-.14c3.63-1.32 3.61-3.4 0-4.65a23 23 0 00-13.19.15z" opacity=".4"/><path d="M239.58 247.76a6.65 6.65 0 00-1.82.94 6.85 6.85 0 001.84.9 23.14 23.14 0 0013.19-.14 6.94 6.94 0 001.82-.94 6.85 6.85 0 00-1.84-.9 23.13 23.13 0 00-13.19.14z" fill="#263238"/><path d="M157.42 208.45c-.94-10.47-3.77-14.86-8.17-15.89-7-1.65-7.5 1-5.07 6.1a25.21 25.21 0 012.19 6.71 12.82 12.82 0 00-2.6-2.37 2.48 2.48 0 00-3.34.34c-.31.44.84 1.12 1.92 3 1.39 2.41 1.44 4.19 3.54 6.34a6.9 6.9 0 011.32 3.79c.17 3.76-.71 8.86-1.93 13.77-3.67-5.17-7.73-10.43-10.8-14.54-5.66-7.58-7-10-17-10.14l3.1 17.63s21.15 28 27 29.61c2.51.71 4.47.26 5.62-1.05v-.06l.07-.08c1.75-2 2.79-8.18 3.4-16.92.38-4.38.68-9.32 1-14.63a81.69 81.69 0 00-.25-11.61z" fill="#ffa8a7"/><path d="M145.28 230.24a49.56 49.56 0 00-1.43 5.18 20.31 20.31 0 00.14 8.92s-1.91-2.26-1.76-7.31a19.8 19.8 0 012-8.32z" fill="#f28f8f"/><path d="M68.55 318.65c-2.79.38-6.94 1.36-8.6.68-2.06-.85-3.22-2.37-5.62-2.13a6.8 6.8 0 00-4.93 2.87c-1.63 2.45-1.47 5.67-2.62 8.38a16.13 16.13 0 01-4.43 5.5 15.24 15.24 0 00-1.58 1.53A9.75 9.75 0 0039 343c.37 2.25 1.09 4.78 3.21 6.12a3.68 3.68 0 005.33-1.4c.27-.63.37-1.32.58-2a14 14 0 011.24-3.38 39.85 39.85 0 015.42-6.52c2-2 4-4.2 6.79-4.95a128.08 128.08 0 0113.8.42l1.19-14c-2.75.44-5.23.97-8.01 1.36z" fill="#ffa8a7"/><path d="M126.09 258.34c-10.27 2.61-15.64.7-23.64-1.71-1.89 16.05-4.71 41.39-7.93 61.53-6.63-2.51-13.88-1.38-18-.81a28.37 28.37 0 00-1.19 14c7.11.56 14.7 1.47 19.32 2.07 9.21 1.19 12.29 1.12 16-5.33 3.9-6.76 8.5-18.57 11.71-29.31 3.55-11.69 5.85-24.66 3.73-40.44z" fill="#37474f"/><path d="M91.69 242.08c.35 2.08.91 4.66.29 7.34 0 0-1.69 3.6-2.65 5.58-2.36 4.9 13.58 8.2 24.6 7.25s11.81-6.49 11.81-6.49L125 241zM122 371.35c2.3 6.29 4.27 11.67 4.58 13 .67 2.68 1.18 5.19.16 8.1-.45 1.3-1.37 3.14-.38 4.89 1.39 2.45 3.88 2.93 5.83 5a35.26 35.26 0 014.64 5.72 10.56 10.56 0 007.25 4.79 13.24 13.24 0 0010.34-1.88 1.72 1.72 0 00.65-.84 1.52 1.52 0 00-.3-1.21 2.76 2.76 0 00-.55-.51c-.19-.16-.34-.23-.52-.36-6.32-4.72-10.75-10.79-14.75-17.5a25.42 25.42 0 01-1.51-6.49c-.43-4.46-1-9.57-1.53-14.89" fill="#ffa8a7"/><path d="M89.33 255c-1.88 4.32-7.09 12.4-6.67 23.43.44 11.27 8.69 23.62 16 32.39 5.69 6.83 9.6 12.72 16.07 20.26a33.37 33.37 0 00-.85 17c.73 3.16 4.46 14.37 7.81 23.53a24.15 24.15 0 0014.57-2.32c-1.11-10.63-2.61-22.08-3.14-30.79-.77-12.66-1.35-14.52-5.34-24-4.43-10.45-9.35-22.5-13.78-32.6 4.49-.31 7.61-3.88 12.9-12.39.2-4.08-.69-9.09-1.16-13.75 0 0 0 3.25-9.14 3.83s-20.38-.98-27.27-4.59z" fill="#455a64"/><path fill="#263238" d="M96.13 307.5l15.23 19.39-1.32 2.26-13.91-21.65zM114 281.76c2.48 5.72 6.11 14.17 7.92 18.58l-4.77-17.2c4.79-4 6-5.5 7.83-10.7-2.28 3.61-6.18 7.82-10.98 9.32z"/><path d="M130.41 222c-4.7-9-12.89-16.4-12.89-16.4-2.36-1.58-16.63-1-16.63-1l-4.14.31c-1.57.15-4.11.31-5.21.57-6 1.38-4.55 4.28-5 7.75-.22 1.92-4 7-1.19 13.41 2.35 5.48 6.29 15.45 6.29 15.45 8.46 5.41 28.8 6.07 33.44 1.43 0 0-.13-3.43-.13-6.61a11.15 11.15 0 005.46-14.91z" fill="#455a64"/><path d="M117.66 235.35a13 13 0 01-11.32 2.16c-6.32-1.84-7.72-7.24-7.42-9.41 0 0-1.76 8.77 6.11 11.15 9.85 2.98 12.63-3.9 12.63-3.9z" opacity=".2"/><path d="M109.1 187.08L105.26 200C94.61 200 88 189.66 88 179c0-10.69 6.81-19.63 17.51-19.63H109c10.7 0 19.37 7.1 19.37 17.8.01 6.97-8.62 9.91-19.27 9.91z" fill="#263238"/><path d="M61.68 194.86h.08c4.53 2.9 11.13 3 15.5-.23 3.08-2.28 4.87-5.92 5.9-9.61s1.42-7.52 2.34-11.23 3.29-6.46 7.23-6.73c1-.07 2.33-.07 2.78-1s-.18-1.78-.83-2.42a9.56 9.56 0 00-6.37-2.6 12.18 12.18 0 00-9.76 4.69c-2.78 3.57-3.41 8.21-5.47 12.15-2.37 4.55-6.41 5.94-11.3 6.15-1.32.06-2.78.17-3.7 1.12a4.09 4.09 0 00-.7 3.76 9.92 9.92 0 004.3 5.95zm68.7-27.6a7.7 7.7 0 001.13-4.45 5.14 5.14 0 00-2.22-3.91c-2-1.28-4.75-.68-6.61.79a5.37 5.37 0 00-1.91-3.57 5.44 5.44 0 00-3.85-1.24 11.86 11.86 0 00-4.88 2 25.41 25.41 0 01-8.29 2.55l3.25 1.29a4.67 4.67 0 00-.06 5.56 21.92 21.92 0 0020 9.65 6.47 6.47 0 003.09-.87 5.15 5.15 0 001.37-1.46 5.53 5.53 0 001-3.45 3.57 3.57 0 00-2.02-2.89z" fill="#263238"/><path d="M121.45 167.9c2.23 1.32 5 6.93 4.71 18.68-.23 10-3.46 12.43-5.08 13.14s-4.75.27-7.79-.23v6c7 8.7-5.41 10.77-12.51-.29v-12.3s-2.06 2.43-5.41.2-3.49-7.74-1.54-9.73 6.16-1.35 7 1.39c0 0 4.85.17 11.3-3.37a18.15 18.15 0 009.32-13.49z" fill="#ffa8a7"/><path d="M113.92 184.08a1.26 1.26 0 01-1.18 1.36 1.29 1.29 0 01-1.32-1.24 1.25 1.25 0 112.5-.12z" fill="#263238"/><path d="M113.61 191.59l4.23 1.35a2.17 2.17 0 01-2.75 1.52 2.31 2.31 0 01-1.48-2.87z" fill="#b16668"/><path d="M114.15 192.59a2 2 0 00-.59.1 2.27 2.27 0 001.53 1.77 2 2 0 001.17 0 2.13 2.13 0 00-2.11-1.87z" fill="#f28f8f"/><path d="M124.19 180.23l-2.53-1.75a1.48 1.48 0 012.1-.44 1.62 1.62 0 01.43 2.19zm-.58 2.94a1.25 1.25 0 11-1.32-1.24 1.3 1.3 0 011.32 1.24z" fill="#263238"/><path fill="#f28f8f" d="M117.49 182.46l.2 7.54 3.97-1.23-4.17-6.31zm-4.2 17.03c-3.2-.42-9.79-2.32-10.82-4.92a6.74 6.74 0 002.31 3.32c2 1.69 8.51 3.59 8.51 3.59z"/><path d="M127 386.06c-.83.28-.85 1.24-.3 2.05a11.29 11.29 0 00.92 1.21z" fill="#92e3a9"/><path d="M127 386.06c-.83.28-.85 1.24-.3 2.05a11.29 11.29 0 00.92 1.21z" opacity=".3"/><path d="M146.62 401.37c-1.63-2-5.63-8.32-6.3-10.23s.21-3.33-1.73-3-4.68.56-5 1.68.59 3.77 2.66 7a34.4 34.4 0 006.15 6.57z" fill="#92e3a9"/><path d="M146.62 401.37c-1.63-2-5.63-8.32-6.3-10.23s.21-3.33-1.73-3-4.68.56-5 1.68.59 3.77 2.66 7a34.4 34.4 0 006.15 6.57z" opacity=".1"/><path d="M155.45 411.36c.11.81 0 1.37-2.82 2.41s-7.19 1-10.82.11-6.78-4.22-8.29-6.54-4.61-4.51-6.65-5.65-2.47-1.6-2.3-2.29.75-2.53.75-2.53z" fill="#ebebeb"/><path d="M127 386.06c-.66.46-.35 1.72.74 2.79.45.67.72 3 1.72 3.35s1.94-1.49 3-1.49 2.2 1.94 3.71 4.33 5.77 7.75 6.44 7.75 2.95-1.57 3.93-1.42a56.68 56.68 0 004.72 4c2.31 1.72 3.12 2.24 3.8 2.69s.82 2.09.45 3.06-5.74 3.32-11.41 2-7.3-3.81-9.25-6.92a15.78 15.78 0 00-5.85-5.5 12.65 12.65 0 01-3.95-2.83 8.07 8.07 0 010-3.95c.52-2.32 1.19-4.25.89-6.12a2.38 2.38 0 01.86-2.54 4.4 4.4 0 01.2.8z" fill="#92e3a9"/><path d="M154.71 409.11c-1 .26-2.16.53-2.21.93s-.09 2.64-.65 3.38a2.74 2.74 0 01-2.23 1 27.13 27.13 0 01-7.66-.69 14.06 14.06 0 01-6.87-4.64c-2.14-2.57-2.53-3.8-5.37-5.77s-3.9-2.28-5.15-3.46a6 6 0 00-.24.93 3.58 3.58 0 001.29 1.1 34.94 34.94 0 015.3 3.23 38.24 38.24 0 013.84 4.55 14.5 14.5 0 007.17 4.67c3.21.82 7.64 1 10.55-.08s3.06-1.64 3.31-2a7.06 7.06 0 00.21-3c-.17-.39-.55-.35-1.29-.15zm-13.2-6.55c2.08-1.47 3.86-2 4.65-1.78a1.66 1.66 0 01.75.86s-1.56-.06-4.51 1.81a1 1 0 01-.89-.89zm3.08-4.02a7.19 7.19 0 00-4.9 1.93 1.07 1.07 0 01-.84-.88 7.57 7.57 0 015.13-2s.67.41.61.95zm-1.97-3.12c-1.26-.48-4.27.87-5.36 1.89a.9.9 0 01-.84-1 8.13 8.13 0 015.5-2.06s.87.41.7 1.17zm-1.69-2.95a7.58 7.58 0 00-5.64 1.77 1.13 1.13 0 01-.66-1.05 6.59 6.59 0 015.77-1.84 1.73 1.73 0 01.53 1.12z" fill="#455a64"/><path d="M62.89 319.52c0-.87-1.22-1.27-2.15-1a11.89 11.89 0 00-1.41.55 5.21 5.21 0 003.56.45z" fill="#92e3a9"/><path d="M62.89 319.52c0-.87-1.22-1.27-2.15-1a11.89 11.89 0 00-1.41.55 5.21 5.21 0 003.56.45z" opacity=".3"/><path d="M51.78 339.44c1.62-2 7.09-7.13 8.83-8.15s3.31-.44 2.59-2.28-1.45-4.48-2.62-4.58-3.58 1.3-6.38 4a34.31 34.31 0 00-5.27 7.29z" fill="#92e3a9"/><path d="M51.78 339.44c1.62-2 7.09-7.13 8.83-8.15s3.31-.44 2.59-2.28-1.45-4.48-2.62-4.58-3.58 1.3-6.38 4a34.31 34.31 0 00-5.27 7.29z" opacity=".1"/><path d="M43.68 350c-.77.27-2.33.31-4.12-2.15a12.08 12.08 0 01-1.26-10.66c1.57-4.57 4.86-6.12 6.27-8.51 1.8-3.05 1.74-6.55 2.2-8.84.53-2.69 2-2.71 2.74-2.69s2.6.23 2.6.23z" fill="#ebebeb"/><path d="M62.89 319.52c-.47-1.29-1.94-1.07-2.91-.66s-2.34.95-2.49 2 1.83 1.61 2 2.71S58.06 326.1 56 328s-6.51 7.15-6.38 7.81 2.11 2.59 2.15 3.59a19.63 19.63 0 00-3.05 5.4c-.56 1.79-1 3.25-1.33 4s-2.82 1.33-3.84 1.15c-1.69-.28-5.21-3.11-5-8.92s3.25-7.09 5.92-9.6 3.41-8.2 3.75-9.76a7.09 7.09 0 012.85-4.08 8.17 8.17 0 013.88-.76c2.37.07 3.75.51 5.62.22 2.1-.34 3 2.31 3 2.31z" fill="#92e3a9"/><path d="M44.73 348.69c-.45-1-.94-2-1.34-2s-2.6.41-3.44 0-1.14-1.37-1.53-2.27a14.78 14.78 0 01-.09-6.89c1-3.23 2.44-4.24 4.65-6.75a12.4 12.4 0 003.47-7.49c.59-3.68.82-4.95 2.09-6a8.46 8.46 0 00-1 0 4.1 4.1 0 00-1.09 1.71c-.3 1-1 6.57-1.72 8.07a14.49 14.49 0 01-3.15 4.16c-1.32 1.45-3 2.79-4 6.4a13.17 13.17 0 001.6 9.92c1.64 2.36 2.66 2.59 3.06 2.77a4.94 4.94 0 002.47-.27c.47-.3.35-.67.02-1.36zm4.91-14.05c1.84 1.77 2.7 3.41 2.64 4.23a1.68 1.68 0 01-.71.9s-.23-1.54-2.64-4.08a1 1 0 01.71-1.05zm4.53 2.26a7.23 7.23 0 00-2.84-4.44 1.08 1.08 0 01.71-1 7.6 7.6 0 012.96 4.66s-.26.72-.83.78zm2.68-2.54c.23-1.33-1.68-4-2.88-4.89a.9.9 0 01.82-1 8.16 8.16 0 013.08 5s-.23.92-1.02.89zm2.57-2.22a7.51 7.51 0 00-2.81-5.14 1.12 1.12 0 01.89-.86 6.62 6.62 0 012.92 5.32 1.75 1.75 0 01-1 .68z" fill="#455a64"/><path d="M73.64 277.11c-1.39-2.6-2.28-3.4-3-5.87A11.48 11.48 0 0073.2 273c1.13.46 2.59.32 2.89-.7s-1.43-1.46-2.15-2.55a33.68 33.68 0 00-3.9-5.17 3.68 3.68 0 01-1.42-2.58c-.52-7.24-.13-15.1-.56-22.52 2.54-1.63 15.8-10 20.31-13.47a17.2 17.2 0 004.89-4.12 14.17 14.17 0 002-11.4c-.43-1.72-1.44-4.65-3.2-5-.83-.15-3.09.18-6.07 1.81-2 1.08-6.13 3.72-14.31 9.86a78.1 78.1 0 00-15.89 15.58c-2 2.75 1.2 23.58 2 28.51.42 2.67 1.17 6.78 2.07 10.27 1.51 5.9 5.32 10.58 9.72 11.28 6.95 1.11 5.94-2.17 4.06-5.69z" fill="#ffa8a7"/><path d="M68.94 233h.36a1.37 1.37 0 00.84-.18l15.91-12.09a.37.37 0 00.09-.52L80 212.34a1.28 1.28 0 00-.76-.34h-.36a1.4 1.4 0 00-.85.18l-15.94 12.06a.37.37 0 00-.08.52l6.17 7.85a1.25 1.25 0 00.76.39z" fill="#92e3a9"/><path d="M68.94 233h.36a1.37 1.37 0 00.84-.18l15.91-12.09a.37.37 0 00.09-.52L80 212.34a1.28 1.28 0 00-.76-.34h-.36a1.4 1.4 0 00-.85.18l-15.94 12.06a.37.37 0 00-.08.52l6.17 7.85a1.25 1.25 0 00.76.39z" fill="#fff" opacity=".85"/><path d="M68.22 232.66a1.39 1.39 0 00.72.29h.36a1.37 1.37 0 00.84-.18l15.91-12.09a.43.43 0 00.16-.25l-1.44-.14a.38.38 0 01-.14.25l-15.91 12.1a.42.42 0 01-.5.02z" fill="#92e3a9"/><path d="M68.22 232.66a1.39 1.39 0 00.72.29h.36a1.37 1.37 0 00.84-.18l15.91-12.09a.43.43 0 00.16-.25l-1.44-.14a.38.38 0 01-.14.25l-15.91 12.1a.42.42 0 01-.5.02z" fill="#fff" opacity=".5"/><path d="M84.62 220.57l-15.91 12.09a.38.38 0 01-.53 0l-6.18-7.9a.37.37 0 01.08-.52L78 212.15a.4.4 0 01.54 0l6.17 7.85a.37.37 0 01-.09.57z" fill="#92e3a9"/><path d="M84.62 220.57l-15.91 12.09a.38.38 0 01-.53 0l-6.18-7.9a.37.37 0 01.08-.52L78 212.15a.4.4 0 01.54 0l6.17 7.85a.37.37 0 01-.09.57z" fill="#fff" opacity=".7"/><path d="M82.79 221l-5.64-7.17a.33.33 0 00-.45 0L64 223.4a.33.33 0 00-.07.45l5.64 7.15a.33.33 0 00.45 0l12.7-9.65a.32.32 0 00.07-.35z" fill="#92e3a9"/><path d="M82.79 221l-5.64-7.17a.33.33 0 00-.45 0L64 223.4a.33.33 0 00-.07.45l5.64 7.15a.33.33 0 00.45 0l12.7-9.65a.32.32 0 00.07-.35z" opacity=".3"/><path d="M81.21 216.44a.26.26 0 00-.36 0 .24.24 0 000 .35.25.25 0 00.35 0 .25.25 0 00.01-.35zm-.16 1.01c-.32-.38-.85-1.09-1.15-1.47a.15.15 0 00-.21 0 .16.16 0 000 .21l1.16 1.47a.16.16 0 00.21 0 .13.13 0 00-.01-.21zm.29.37a.14.14 0 00-.2 0 .13.13 0 000 .19.14.14 0 00.2 0 .13.13 0 000-.19zm-15 9.93a.52.52 0 00-.72-.07.48.48 0 00-.11.69.5.5 0 00.71.07.49.49 0 00.12-.69z" fill="#263238"/><path d="M79.41 218.5l-.37.29a.05.05 0 01-.08 0l-.16-.2a.38.38 0 00-.06-.4.36.36 0 00-.38-.15l-.19-.24a.06.06 0 010-.09l.36-.29a.7.7 0 011 .11.69.69 0 01.15.51.7.7 0 01-.27.46zm-.57.5a.69.69 0 01-.93-.15.7.7 0 01.06-.93.06.06 0 01.09 0l.19.23a.36.36 0 00.06.41.37.37 0 00.38.15l.16.19a.07.07 0 01-.01.1z" fill="#fafafa"/><path d="M77.76 219.06a.87.87 0 001.34.17.13.13 0 000-.14c0-.05-.06-.08-.08-.06a.8.8 0 01-1.23-.14.7.7 0 01-.17-.45.91.91 0 01.28-.71.15.15 0 000-.15c0-.05-.06-.07-.09-.05a1.14 1.14 0 00-.33.88 1.24 1.24 0 000 .31 1.3 1.3 0 00.08.17l-.31.25-.18-.21H77a.2.2 0 000 .11l.4.51h.08a.16.16 0 000-.15l-.11-.14.29-.24zm-2.64-1.31a.37.37 0 01.09.23.26.26 0 01-.11.19.29.29 0 01-.21.06.35.35 0 01-.2-.13l-.12-.16-.21.17-.06-.08.62-.49zm-.43.1l.12.15a.16.16 0 00.09.07.11.11 0 00.1 0 .14.14 0 000-.09.27.27 0 000-.11l-.12-.14zm.48.47l.11-.06h.13a.28.28 0 01.12 0 .6.6 0 01.12.11.46.46 0 01.08.13.3.3 0 010 .13.34.34 0 010 .12.39.39 0 01-.08.1l-.12.06a.28.28 0 01-.13 0 .19.19 0 01-.12 0 .53.53 0 01-.28.09.61.61 0 01-.07-.14.32.32 0 010-.13.56.56 0 010-.12.28.28 0 01.09-.1zm.34.44a.19.19 0 00.07-.13.2.2 0 000-.14.17.17 0 00-.12-.07.15.15 0 00-.14 0 .24.24 0 00-.09.06l-.08.07a.21.21 0 00-.07.12.24.24 0 000 .14.18.18 0 00.27 0l.08-.06zm.7.36a.34.34 0 01.08.14.27.27 0 010 .13.56.56 0 010 .12l-.09.1-.14.12-.13.06a.3.3 0 01-.13 0 .31.31 0 01-.12-.05.5.5 0 01-.11-.1l-.19-.24.62-.49zm-.14.37l.05-.06a.14.14 0 000-.07v-.15l-.1-.13-.43.35.1.13.07.06h.2zm.38.86l.06.08-.09.05h-.23a.68.68 0 01-.12-.12.35.35 0 01-.08-.13.28.28 0 010-.13.28.28 0 010-.12.76.76 0 01.08-.11l.08-.06.08-.06.13-.07h.13a.31.31 0 01.12 0 .26.26 0 01.11.1.34.34 0 01.08.14.3.3 0 010 .13.17.17 0 010 .1.7.7 0 01-.06.09l-.06-.08a.07.07 0 000-.05v-.14h-.26l-.08.07-.08.06v.06a.14.14 0 000 .06v.08a.43.43 0 010 .07l.07.06h.11zm.93.23l-.42.71v-.07l.07-.13-.24-.3h-.14v-.07l.79-.25zM77 221l.18-.32-.35.11zm.89.2a.28.28 0 01.07.13.26.26 0 010 .11.3.3 0 010 .1.15.15 0 010 .06l-.06-.07a.16.16 0 000-.07.16.16 0 000-.1v-.05a.16.16 0 000 .08l.05.1v.12a.38.38 0 010 .1.19.19 0 010 .08l-.06.07h-.31a.38.38 0 01-.11-.11.41.41 0 01-.07-.11.26.26 0 010-.11.2.2 0 010-.11.41.41 0 010-.09v.11a.13.13 0 000 .07v.05a.1.1 0 00.05 0 .18.18 0 000-.06v-.29a.34.34 0 010-.09v-.08s0-.05.06-.07a.19.19 0 01.1-.05h.1a.25.25 0 01.11 0zm.69.88l-.07.05h-.05l-.14-.17-.52.41-.07-.08.52-.42-.14-.17h.07zm-8.71-2.26v-.08l.11-.09h.05c.05 0 0 .07 0 .08l-.11.09s-.04.04-.05 0zm-.12.5v-.09l.74-.59a.12.12 0 010 .09l-.74.59s.01.03 0 0zm.36.11a.13.13 0 010-.09l.4-.32h.06a.13.13 0 010 .09l-.41.32s-.04.04-.05 0zm.5.4a.09.09 0 010-.09l.19-.15v.09l-.19.15s.01.04 0 0zm.05.36a.13.13 0 010-.09l.48-.37v.09l-.47.38s0 .03-.01-.01zm-.14.52v-.09l1.15-.92h.06c.06 0 0 .08 0 .09l-1.15.93s-.05.02-.06-.01zm.31.15v-.09l.92-.73v.09l-.92.74s.01.02 0-.01zm-.01.4a.07.07 0 010-.08l1.32-1.06a.09.09 0 010 .09l-1.32 1.05s.02.04 0 0zm.54-.03a.07.07 0 010-.08l.63-.51a.09.09 0 010 .09l-.63.5s.02.04 0 0zm.44.06v-.09l.15-.12h.06c.06 0 0 .08 0 .09l-.15.12s-.05.03-.06 0zm.03.77a.13.13 0 010-.09l.87-.69h.05a.07.07 0 010 .09l-.86.69s-.04.04-.06 0zm.17.67v-.09l1.32-1a.09.09 0 010 .09L72 223.78v-.05zm1 .04v-.09l.18-.15h.06a.13.13 0 010 .09l-.19.15s-.05.03-.05 0zm1.94 2.41a.12.12 0 010-.09l.11-.09h.06a.13.13 0 010 .09l-.11.08s0 .04-.06.01zm-.5 0a.09.09 0 010-.09l.73-.58v.09l-.73.59s.01.03 0-.01zm-.03-.38a.09.09 0 010-.09l.4-.32h.05c.05 0 0 .08 0 .09l-.4.32s-.04.04-.05 0zm-.29-.57a.12.12 0 010-.09l.19-.15h.05a.07.07 0 010 .09l-.18.15s-.05.03-.06 0zm-.33-.13v-.09l.47-.38a.09.09 0 010 .09l-.47.38s.01.03 0 0zm-.54.03v-.09l1.15-.93h.06a.12.12 0 010 .09l-1.16.92s-.04.04-.05.01zm-.48-.43a.1.1 0 010-.09l1.32-1.05a.09.09 0 010 .09l-1.32 1.05s.02.04 0 0zm.23-.57a.12.12 0 010-.09l.5-.39v.09l-.49.4s-.01.02-.01-.01zM69.92 221v-.08l1.18-.94v.09L70 221h-.08zm1.99 1.6v-.09l.32-.26h.06a.12.12 0 010 .09l-.33.26s-.04.03-.05 0zm-.34 1.08v-.09l1.79-1.44v.09l-1.79 1.43s.01.04 0 .01zm.98.01a.09.09 0 010-.09l.61-.49v.09l-.61.49s.01.04 0 0zm1.27 2.18v-.09l1.17-.94a.09.09 0 010 .09l-1.17.94s.02.03 0 0zm-.65-1.08a.12.12 0 010-.09l.92-.74h.05c.05 0 0 .08 0 .09l-.92.73s-.04.04-.05.01zM65 223.37l-.08-.1h.15v.05l-.08.06zm0-.06zm.2.18zm-.07.06zm.12.16l-.08-.1h.15l-.08.07zm.06-.05h-.08zm.07.2h.16l-.08-.09.12.15h-.16zm4.62 5.67h-.06.1H70zm-.11-.13h-.05zm.2.21zm-.07.06zm.31.1h-.06a.17.17 0 010 .05h-.06l-.06-.06-.06-.08zm.13.16h-.08.08s-.01-.02 0 0zm-.07.1h-.06zm-1.62-4.46l-.31.25h-.06l-.07-.1v-.05l.31-.25h.06l.07.09s.02.05 0 .06zm.23.32l-.31.26h-.06l-.07-.09V226l.31-.25h.06l.07.09s.05.04 0 .05zm1.06 1.29l-.31.25-.08-.1.31-.26h.06l.07.09s-.03.01-.05.02zm.06.08l-.31.24v.07l.52.3v-.05l-.17-.51c.02-.05-.01-.07-.04-.05zm-2.33-2.93l-.32.25-.08-.09v-.05l.32-.26.07.09.01.06zm-.5.02l.32-.25v-.07l-.55-.34v.06l.18.55s.03.07.05.05z" fill="#fafafa"/><path d="M66 224.24l3.67 4.59a.15.15 0 010 .21.16.16 0 01-.21-.06l-3.66-4.58c-.06-.08-.07-.18 0-.22s.13-.01.2.06z" fill="#fafafa" opacity=".3"/><path d="M66 224.24l2.75 3.45c.06.07.07.17 0 .21a.17.17 0 01-.21-.06l-2.74-3.44c-.06-.08-.07-.18 0-.22s.13-.01.2.06z" fill="#fafafa"/><path d="M65.61 221.58c1.08 3.92 8.07 11.77 11.07 12.47l8.8-6s-9-3.19-12.12-12.38z" fill="#455a64"/><path d="M99.22 188.39a2.07 2.07 0 11-2.06-2.07 2.07 2.07 0 012.06 2.07z" fill="#fafafa"/><path d="M95.1 188.12a14.16 14.16 0 00.76 6.69 1 1 0 001-.16 13 13 0 01-.41-3.17 8 8 0 01.94-3z" fill="#fafafa"/><path d="M119.24 233.57l-.24-.17a57.24 57.24 0 01-15.33-17c-4.91-8.63-7-18.95-7.74-22.34l.49-.1c.7 3.37 2.82 13.63 7.69 22.2A56.87 56.87 0 00119 232.82c5.38-11.52-.09-32.52-.16-32.73h.48c.08.21 5.67 21.6 0 33.24z" fill="#fafafa"/><path d="M87 265.24a10.23 10.23 0 01-3.14-.48 7.83 7.83 0 01-5.71-8.15c.09-1.4.28-2.87.47-4.43.53-4.13 1.07-8.41-.43-11.07-2.17-3.82-5-4.11-8.88-4.51-1.07-.11-2.18-.23-3.39-.42-3.81-.62-5-2.42-5.26-3.82a6.16 6.16 0 012.74-5.91l.27.42a5.7 5.7 0 00-2.52 5.39c.38 1.79 2 3 4.85 3.42 1.2.2 2.3.31 3.36.42 3.89.4 7 .72 9.26 4.77 1.59 2.8 1 7.16.5 11.38-.2 1.54-.38 3-.47 4.39a7.33 7.33 0 005.35 7.64c4.49 1.45 11.09-.4 15.74-7.79 3.31-5.26 7-5 10.58-4.81 2.47.15 4.81.29 7.06-1.26 4.09-2.8 4.62-8.78 1.52-17.27l.48-.17c3.17 8.73 2.58 14.9-1.72 17.86-2.39 1.64-4.92 1.48-7.37 1.33-3.58-.22-7-.43-10.13 4.59-3.83 6.04-8.93 8.48-13.16 8.48z" fill="#fafafa"/><path d="M391.3 103.86l3.63-6.86-2.93-8.39v-5.16l9 5.16v5.16l-3.84 6.66a.63.63 0 01-.26.23z" fill="#92e3a9"/><path d="M391.3 103.86l3.63-6.86-2.93-8.39v-5.16l9 5.16v5.16l-3.84 6.66a.63.63 0 01-.26.23z" opacity=".2"/><path d="M364.15 49.85a5.91 5.91 0 012.68-4.64L369 44a5.89 5.89 0 015.36 0l50.54 29.19a6 6 0 012.67 4.64v26.14a5.93 5.93 0 01-2.67 4.64l-2.19 1.26a6 6 0 01-5.36 0l-22-12.8-3.84 6.64a.56.56 0 01-1-.1l-4.05-11.69-19.63-11.3a5.91 5.91 0 01-2.68-4.62z" fill="#92e3a9"/><path d="M427.58 103.92a5.93 5.93 0 01-2.67 4.64l-2.19 1.26a6 6 0 01-4.9.22c1.26.47 2.22-.24 2.22-1.77V82.14a5.5 5.5 0 00-.78-2.64l7.54-4.36a5.53 5.53 0 01.78 2.64z" opacity=".2"/><path d="M364.24 49.09c.31-1.14 1.35-1.5 2.59-.79l50.54 29.2a5.35 5.35 0 011.88 2l7.54-4.35a5.37 5.37 0 00-1.89-2L374.38 44a6 6 0 00-5.38 0l-2.19 1.26a5.92 5.92 0 00-2.57 3.83z" fill="#fff" opacity=".2"/><path d="M417 94.16a.38.38 0 00.38-.38v-1.33a.38.38 0 10-.76 0v1.33a.38.38 0 00.38.38zm-1.92 2.66a.38.38 0 00.38-.38v-8.86a.38.38 0 00-.38-.38.39.39 0 00-.39.38v8.86a.39.39 0 00.39.38zm-1.92-3.11a.38.38 0 00.38-.38v-4.85a.38.38 0 00-.76 0v4.85a.38.38 0 00.38.38zm-3.83-3.51a.38.38 0 00.38-.38v-2.26a.38.38 0 00-.38-.38.39.39 0 00-.39.38v2.26a.39.39 0 00.39.38zm-1.92.62a.38.38 0 00.38-.39v-5.7a.38.38 0 00-.76 0v5.7a.38.38 0 00.38.39zm-1.92 3.01a.38.38 0 00.38-.38v-14a.38.38 0 00-.76 0v14a.38.38 0 00.38.38zm-1.91-2.54a.38.38 0 00.38-.38V79.83a.39.39 0 00-.77 0v11.08a.38.38 0 00.39.38zm-1.92 1.33a.38.38 0 00.38-.38V76.29a.38.38 0 00-.76 0v15.95a.38.38 0 00.38.38zm-1.92-5.26a.38.38 0 00.38-.38v-7.65a.38.38 0 10-.76 0V87a.38.38 0 00.38.36zm-1.91-4.02a.38.38 0 00.38-.38v-1.82a.39.39 0 00-.77 0V83a.38.38 0 00.39.34zM394 85.45a.38.38 0 00.38-.38V74.6a.38.38 0 00-.76 0v10.47a.38.38 0 00.38.38zm-3.84.55a.38.38 0 00.38-.38V69.68a.38.38 0 10-.76 0v15.89a.38.38 0 00.38.43zm-3.83-9.08a.38.38 0 00.38-.38v-2.26a.39.39 0 00-.77 0v2.26a.38.38 0 00.39.38zm-19.13-11.5a.38.38 0 00.39-.38v-1.33a.39.39 0 10-.77 0V65a.38.38 0 00.38.42zm1.92 4.86a.38.38 0 00.38-.38v-8.85a.38.38 0 00-.76 0v8.85a.38.38 0 00.38.38zm1.88-.89a.38.38 0 00.38-.38v-4.85a.38.38 0 00-.76 0V69a.38.38 0 00.38.39zm3.87.92a.38.38 0 00.38-.38v-2.26a.38.38 0 10-.76 0v2.26a.38.38 0 00.38.38zm1.92 2.83a.38.38 0 00.38-.38v-5.71a.38.38 0 00-.76 0v5.71a.38.38 0 00.38.38zm1.91 5.23a.39.39 0 00.39-.39V64a.39.39 0 00-.77 0v14a.39.39 0 00.38.37zm3.84 3.21a.38.38 0 00.38-.38v-16a.38.38 0 00-.76 0v16a.38.38 0 00.38.38zm1.92-3.9a.38.38 0 00.38-.38v-5.94a.39.39 0 00-.77 0v5.94a.38.38 0 00.39.38zm26.78 19.59a.38.38 0 00.38-.38V82.71a.38.38 0 10-.76 0v14.18a.38.38 0 00.38.38zm-15.33-14a.38.38 0 00.38-.38V79a.38.38 0 00-.76 0v3.89a.38.38 0 00.38.38zm-3.83 6.67a.38.38 0 00.38-.38V67.9a.39.39 0 00-.77 0v21.66a.38.38 0 00.39.38zm-3.84-9.34a.38.38 0 00.38-.38v-7.41a.38.38 0 00-.76 0v7.41a.38.38 0 00.38.38zM373 75.16a.38.38 0 00.39-.38V60.6a.39.39 0 00-.77 0v14.18a.38.38 0 00.38.38zm7.62 2.84a.39.39 0 00.38-.39V66.58a.38.38 0 10-.76 0v11.07a.39.39 0 00.38.35z" fill="#fafafa"/><path d="M107.49 144.06l-3.62-6.82 2.92-8.43v-5.16l-8.94 5.16V134l3.84 6.65a.59.59 0 00.26.24z" fill="#92e3a9"/><path d="M107.49 144.06l-3.62-6.82 2.92-8.43v-5.16l-8.94 5.16V134l3.84 6.65a.59.59 0 00.26.24z" opacity=".2"/><path d="M134.65 90.05a5.91 5.91 0 00-2.65-4.64l-2.18-1.26a5.89 5.89 0 00-5.36 0l-50.57 29.19a5.92 5.92 0 00-2.67 4.66v26.14a5.94 5.94 0 002.67 4.64l2.19 1.22a6 6 0 005.36 0l22-12.8 3.84 6.64a.57.57 0 001-.1l4-11.7L132 120.82a5.91 5.91 0 002.68-4.64z" fill="#92e3a9"/><path d="M71.22 144.12a5.92 5.92 0 002.67 4.64l2.19 1.24a6 6 0 004.9.21c-1.26.48-2.22-.23-2.22-1.76v-26.11a5.5 5.5 0 01.78-2.64L72 115.34a5.53 5.53 0 00-.78 2.64z" opacity=".2"/><path d="M134.56 89.29c-.31-1.14-1.35-1.5-2.59-.79l-50.54 29.2a5.27 5.27 0 00-1.88 2L72 115.35a5.37 5.37 0 011.89-2l50.52-29.2a6 6 0 015.36 0l2.23 1.26a5.92 5.92 0 012.56 3.88z" fill="#fff" opacity=".2"/><path d="M81.81 134.36a.39.39 0 01-.39-.38v-1.33a.39.39 0 01.39-.38.38.38 0 01.38.38V134a.38.38 0 01-.38.36zm1.91 2.64a.38.38 0 01-.38-.38v-8.85a.38.38 0 01.38-.38.39.39 0 01.39.38v8.85a.39.39 0 01-.39.38zm1.92-3.09a.38.38 0 01-.38-.38v-4.85a.38.38 0 11.76 0v4.85a.38.38 0 01-.38.38zm3.83-3.51a.38.38 0 01-.38-.38v-2.26a.38.38 0 01.38-.39.39.39 0 01.39.39V130a.39.39 0 01-.39.4zm1.92.6a.38.38 0 01-.38-.38v-5.7a.38.38 0 11.76 0v5.7a.38.38 0 01-.38.38zm1.92 3a.38.38 0 01-.38-.38v-14a.38.38 0 11.76 0v14a.38.38 0 01-.38.38zm1.91-2.51a.38.38 0 01-.38-.39V120a.38.38 0 01.38-.38.39.39 0 01.39.38v11.1a.39.39 0 01-.39.39zm1.92 1.33a.38.38 0 01-.38-.38v-16a.38.38 0 01.76 0v16a.38.38 0 01-.38.38zm1.92-5.26a.38.38 0 01-.38-.38v-7.65a.38.38 0 01.76 0v7.65a.38.38 0 01-.38.38zm1.94-4.02a.38.38 0 01-.38-.38v-1.82a.38.38 0 01.38-.34.39.39 0 01.39.39v1.82a.39.39 0 01-.39.33zm3.81 2.11a.38.38 0 01-.38-.38V114.8a.38.38 0 01.76 0v10.47a.38.38 0 01-.38.38zm3.83.5a.38.38 0 01-.38-.38v-15.9a.38.38 0 11.76 0v15.9a.38.38 0 01-.38.38zm3.83-9.03a.38.38 0 01-.38-.38v-2.26a.39.39 0 11.77 0v2.26a.38.38 0 01-.39.38zm19.13-11.5a.39.39 0 01-.39-.39v-1.33a.39.39 0 01.77 0v1.33a.39.39 0 01-.38.39zm-1.92 4.86a.38.38 0 01-.38-.38v-8.85a.38.38 0 01.76 0v8.85a.38.38 0 01-.38.38zm-1.92-.89a.38.38 0 01-.38-.38v-4.85a.38.38 0 11.76 0v4.85a.38.38 0 01-.38.38zm-3.83.92a.38.38 0 01-.38-.38v-2.27a.38.38 0 01.76 0v2.27a.38.38 0 01-.38.38zm-1.93 2.82a.38.38 0 01-.38-.38v-5.7a.38.38 0 01.76 0V113a.38.38 0 01-.38.33zm-1.91 5.23a.38.38 0 01-.38-.38v-14a.39.39 0 01.77 0v14a.38.38 0 01-.39.38zm-3.83 3.22a.38.38 0 01-.38-.38v-16a.38.38 0 11.76 0v16a.38.38 0 01-.38.38zm-1.92-3.9a.38.38 0 01-.38-.38v-5.94a.39.39 0 11.77 0v5.94a.38.38 0 01-.39.38zm-26.78 19.59a.38.38 0 01-.38-.39V122.9a.38.38 0 11.76 0v14.18a.38.38 0 01-.38.39zm15.33-14a.38.38 0 01-.38-.38v-3.89a.38.38 0 11.76 0v3.89a.38.38 0 01-.38.38zm3.83 6.67a.38.38 0 01-.38-.38V108.1a.39.39 0 01.77 0v21.66a.38.38 0 01-.39.38zm3.84-9.34a.38.38 0 01-.38-.38V113a.38.38 0 11.76 0v7.41a.38.38 0 01-.38.39zm15.29-5.44a.38.38 0 01-.39-.38V100.8a.39.39 0 01.77 0V115a.38.38 0 01-.38.36zm-7.67 2.87a.38.38 0 01-.38-.38v-11.07a.38.38 0 01.76 0v11.07a.38.38 0 01-.38.38z" fill="#fafafa"/><path d="M300.48 27.15v136.31a4.24 4.24 0 01-1.91 3.31l-81.24 46.9a1.15 1.15 0 01-.63.18 1.07 1.07 0 01-.25 0 .52.52 0 01-.16-.06l-.17-.08a1.81 1.81 0 01-.5-.64 2.36 2.36 0 01-.2-1V76.23a4.24 4.24 0 011.91-3.31l81.24-46.87a1.36 1.36 0 011.28-.16.56.56 0 01.15.11.49.49 0 01.12.13.2.2 0 01.06.07.33.33 0 01.06.1.66.66 0 01.11.24.84.84 0 01.05.17 1 1 0 010 .17c.07.12.08.19.08.27z" fill="#455a64"/><path d="M215.62 213a2.49 2.49 0 01-.2-1V76.23a3.91 3.91 0 01.57-1.9l-4.89-2.79a4 4 0 00-.58 1.91v135.81a2.5 2.5 0 00.22 1 1.62 1.62 0 00.59.65s4.38 2.51 4.55 2.62l.24.14a1.81 1.81 0 01-.5-.67z" fill="#263238"/><path d="M298.57 26.05l-81.24 46.87a4 4 0 00-1.33 1.42l-4.89-2.8a3.79 3.79 0 011.33-1.39l81.24-46.87a1.35 1.35 0 011.39-.12c.34.21 4.38 2.51 4.79 2.72a1.4 1.4 0 00-1.29.17z" fill="#37474f"/><path d="M271.05 182.66l4.23 9.77a1.47 1.47 0 00.63.71l5.54 3.2a1.51 1.51 0 002.22-.89L289 172.3z" fill="#263238"/><path d="M289 172.3l-5.33 23.15a1.51 1.51 0 01-2.84.18l-6.45-14.9z" fill="#455a64"/><path d="M263.12 65v5.34a1.17 1.17 0 01-.44.93l-1.9 1.1c-.3-1.16-1.35-1.53-2.61-.8a6.07 6.07 0 00-2.61 3.81l-2.25 1.3c-.24.14-.44-.05-.44-.43v-5.33c0-4.36 2.29-9.22 5.13-10.85a2.83 2.83 0 013.62.22 6.49 6.49 0 011.5 4.71zm-.02 8.34c-.25 4.15-2.44 8.56-5.1 10.1s-4.86-.34-5.11-4.21a1.2 1.2 0 01.44-1l2.22-1.23c.28 1.2 1.35 1.6 2.63.87a6 6 0 002.62-3.9l1.86-1.07c.26-.2.46.03.44.44z" fill="#92e3a9"/><path d="M258.72 86.19c4.59-2.67 7.22-8.09 7.22-14.85a.72.72 0 00-1.44 0c0 6.24-2.37 11.2-6.5 13.6a3.38 3.38 0 01-3.4.29c-1.54-.82-2.57-3.06-2.75-6a.73.73 0 00-.77-.67.7.7 0 00-.67.76c.22 3.49 1.5 6.11 3.51 7.18a4.24 4.24 0 002 .51 5 5 0 001.32-.19v4.53l-2 1.16a.72.72 0 00.36 1.34.77.77 0 00.36-.09l4.77-2.76a.73.73 0 00.26-1 .72.72 0 00-1-.26l-1.3.74v-4.29zm-19.64 25.49c.72-.42 1.29-.49 1.69-.19s.6 1 .6 2a5.71 5.71 0 01-.6 2.67 4.33 4.33 0 01-1.69 1.78l-1.44.83v3.09a.68.68 0 01-.08.31.41.41 0 01-.17.21l-.73.42a.14.14 0 01-.17 0 .29.29 0 01-.07-.22v-9a.66.66 0 01.07-.3.54.54 0 01.17-.21zm-1.44 5.32l1.39-.8a2.3 2.3 0 00.82-.79 2.37 2.37 0 00.31-1.26c0-.52-.11-.82-.31-.9a1 1 0 00-.82.17l-1.39.81zm4.95-3.73a8.42 8.42 0 01.19-1.58 6.51 6.51 0 01.49-1.47 6 6 0 01.81-1.27 4.3 4.3 0 011.15-1 2.26 2.26 0 011.15-.36 1.06 1.06 0 01.8.33 2 2 0 01.5.91 5.74 5.74 0 01.2 1.35v2.48a8.54 8.54 0 01-.2 1.58 6.51 6.51 0 01-.49 1.47 5.47 5.47 0 01-.81 1.27 4.39 4.39 0 01-1.15.95 2.22 2.22 0 01-1.15.37 1.13 1.13 0 01-.81-.32 2 2 0 01-.49-.91 5.49 5.49 0 01-.19-1.35v-1.89a5.23 5.23 0 010-.56zm4.07-2.29a1.74 1.74 0 00-.42-1.3c-.25-.22-.59-.21-1 0a2.61 2.61 0 00-1 1.13 4.32 4.32 0 00-.42 1.78v2.35a1.74 1.74 0 00.42 1.29c.26.22.59.2 1 0a2.55 2.55 0 001-1.13 4.1 4.1 0 00.42-1.78v-1.18c0-.43.02-.81 0-1.14zm5.34-6.75a2.55 2.55 0 011.16-.4 1.12 1.12 0 01.82.29 2.07 2.07 0 01.5.92 5.87 5.87 0 01.21 1.46v2a9.3 9.3 0 01-.21 1.7 6.69 6.69 0 01-.5 1.49 5.17 5.17 0 01-.8 1.24 4.6 4.6 0 01-1.13.92l-2.27 1.31a.13.13 0 01-.17 0 .3.3 0 01-.07-.23v-9a.66.66 0 01.07-.3.46.46 0 01.17-.21zm1.48 3a2.82 2.82 0 00-.12-.76 1.12 1.12 0 00-.27-.51.7.7 0 00-.47-.17 1.38 1.38 0 00-.66.22l-1.21.7v6.23l1.25-.72a2.35 2.35 0 00.64-.53 3.15 3.15 0 00.45-.69 3.67 3.67 0 00.27-.83 4.43 4.43 0 00.12-.89c0-.73 0-1.41-.02-2.08zm6.69-1.11a.64.64 0 01.1-.32.45.45 0 01.16-.19l.73-.42a.15.15 0 01.18 0 .29.29 0 01.07.23 6.55 6.55 0 01-.19 1.25 6.22 6.22 0 01-.48 1.3 6.06 6.06 0 01-.82 1.22 4.64 4.64 0 01-1.2 1 2.12 2.12 0 01-1.1.35 1.13 1.13 0 01-.8-.32 2 2 0 01-.52-.91 5.21 5.21 0 01-.22-1.41v-2.33a8.39 8.39 0 01.22-1.67 6.73 6.73 0 01.52-1.51 6.27 6.27 0 01.8-1.26 4.14 4.14 0 011.1-.91 2.41 2.41 0 011.2-.4 1.25 1.25 0 01.82.27 1.6 1.6 0 01.48.75 3.91 3.91 0 01.19 1 .7.7 0 01-.07.31.45.45 0 01-.18.2l-.73.42a.15.15 0 01-.17 0 .26.26 0 01-.1-.21 1.62 1.62 0 00-.12-.47.75.75 0 00-.27-.31.61.61 0 00-.43-.09 1.41 1.41 0 00-.62.22 2.16 2.16 0 00-.61.52 3.52 3.52 0 00-.44.69 4.14 4.14 0 00-.26.82 4.53 4.53 0 00-.12.89v2.32a2.75 2.75 0 00.12.76 1.22 1.22 0 00.26.51.71.71 0 00.44.19 1.18 1.18 0 00.61-.19 2.74 2.74 0 00.62-.49 3.07 3.07 0 00.43-.59 3 3 0 00.28-.63 3.46 3.46 0 00.12-.59zm5.64-9.88q.13-.08.21 0a.66.66 0 01.13.28l2.2 7.48a.28.28 0 010 .09.67.67 0 01-.07.31.54.54 0 01-.17.21l-.65.37c-.12.07-.2.08-.25 0a.42.42 0 01-.1-.17l-.39-1.32-2.84 1.65-.39 1.76a1.37 1.37 0 01-.1.28.59.59 0 01-.25.27l-.65.37a.14.14 0 01-.17 0 .29.29 0 01-.07-.22.31.31 0 010-.1l2.2-10a2.11 2.11 0 01.13-.42.47.47 0 01.22-.24zm.49 5.8l-1-3.38-1 4.53zm5.41-9.34a2.41 2.41 0 011.06-.37 1.26 1.26 0 01.77.19 1.19 1.19 0 01.46.55 2.17 2.17 0 01.18.75.67.67 0 01-.07.31.48.48 0 01-.18.21l-.63.36c-.1.06-.18.07-.23 0a.46.46 0 01-.14-.16.66.66 0 00-.41-.36 1 1 0 00-.81.21 2.73 2.73 0 00-.45.33 2.17 2.17 0 00-.36.44 1.89 1.89 0 00-.25.49 1.64 1.64 0 00-.09.53 1.1 1.1 0 00.08.47.39.39 0 00.29.18 1.8 1.8 0 00.54 0l.83-.19a3.33 3.33 0 01.93-.11 1.09 1.09 0 01.64.21 1.17 1.17 0 01.36.57 2.8 2.8 0 01.13.94 4.57 4.57 0 01-.18 1.26 4.81 4.81 0 01-.52 1.21 5.5 5.5 0 01-.82 1.08 4.94 4.94 0 01-1.08.85 3.25 3.25 0 01-1 .37 1.54 1.54 0 01-.76-.02 1.17 1.17 0 01-.57-.53 2.05 2.05 0 01-.25-1 .64.64 0 01.07-.31.48.48 0 01.18-.21l.63-.36c.1-.06.18-.08.23 0a.31.31 0 01.14.17 1.82 1.82 0 00.15.27.48.48 0 00.24.18.94.94 0 00.38 0 2 2 0 00.58-.24 5.56 5.56 0 00.52-.37 3.19 3.19 0 00.44-.46 2.39 2.39 0 00.3-.54 1.53 1.53 0 00.12-.6.54.54 0 00-.13-.42.48.48 0 00-.38-.12 3 3 0 00-.63.11l-.88.18a2.74 2.74 0 01-.78.06.9.9 0 01-.56-.24 1.16 1.16 0 01-.33-.59 4 4 0 01-.11-1 4.57 4.57 0 01.18-1.26 5.37 5.37 0 01.5-1.18 5.77 5.77 0 01.75-1 3.88 3.88 0 01.92-.84zm8.29-4.63a.13.13 0 01.17 0 .3.3 0 01.08.23v1a.67.67 0 01-.08.3.37.37 0 01-.17.21l-1.62.94v7.59a.7.7 0 01-.07.31.46.46 0 01-.17.21l-.73.42a.12.12 0 01-.17 0 .28.28 0 01-.07-.22v-7.62l-1.62.93h-.17a.28.28 0 01-.08-.22v-1a.71.71 0 01.08-.31.41.41 0 01.17-.21zm-52.49 63.61a.47.47 0 01-.46-.46v-1.6a.46.46 0 01.92 0v1.6a.47.47 0 01-.46.46zm2.31 3.2a.47.47 0 01-.46-.46v-10.67a.46.46 0 01.92 0v10.67a.47.47 0 01-.46.46zm2.31-3.75a.45.45 0 01-.46-.46v-5.84a.46.46 0 01.46-.46.47.47 0 01.46.46v5.84a.46.46 0 01-.46.46zm4.62-4.22a.46.46 0 01-.46-.46v-2.73a.46.46 0 01.46-.46.47.47 0 01.46.46v2.73a.47.47 0 01-.46.46zm2.3.74a.47.47 0 01-.46-.46v-6.87a.46.46 0 01.46-.46.45.45 0 01.46.46v6.87a.46.46 0 01-.46.46zm2.31 3.63a.47.47 0 01-.46-.46V134a.47.47 0 01.46-.46.46.46 0 01.46.46v16.8a.46.46 0 01-.46.48zm2.31-3.06a.47.47 0 01-.46-.46v-13.34a.46.46 0 01.46-.46.45.45 0 01.46.46v13.34a.46.46 0 01-.46.46zm2.33 1.6a.47.47 0 01-.46-.46v-19.21a.47.47 0 01.46-.46.46.46 0 01.46.46v19.21a.46.46 0 01-.46.46zm2.29-6.33a.47.47 0 01-.46-.46v-9.22a.46.46 0 01.92 0V143a.47.47 0 01-.46.49zm2.31-4.84a.46.46 0 01-.46-.46V136a.45.45 0 01.46-.46.46.46 0 01.46.46v2.2a.47.47 0 01-.46.45zm4.62 2.54a.46.46 0 01-.46-.46v-12.61a.45.45 0 01.46-.46.46.46 0 01.46.46v12.61a.47.47 0 01-.46.46zm4.61.6a.47.47 0 01-.46-.46v-19.15a.47.47 0 01.46-.46.46.46 0 01.46.46v19.15a.46.46 0 01-.46.46zm4.62-10.88a.46.46 0 01-.46-.46v-2.72a.46.46 0 01.46-.46.45.45 0 01.46.46v2.72a.45.45 0 01-.46.46zm23.03-13.86a.46.46 0 01-.46-.46V115a.47.47 0 01.46-.46.46.46 0 01.46.46v1.6a.45.45 0 01-.46.45zm-2.3 5.87a.46.46 0 01-.46-.46v-10.67a.46.46 0 01.46-.46.47.47 0 01.46.46v10.67a.47.47 0 01-.46.46zm-2.31-1.08a.46.46 0 01-.46-.46v-5.84a.45.45 0 01.46-.46.46.46 0 01.46.46v5.84a.47.47 0 01-.46.46zm-4.62 1.16a.46.46 0 01-.46-.46v-2.73a.46.46 0 01.46-.46.47.47 0 01.46.46v2.73a.47.47 0 01-.46.46zm-2.31 3.35a.46.46 0 01-.46-.46V119a.46.46 0 01.92 0v6.87a.46.46 0 01-.46.48zm-2.31 6.3a.47.47 0 01-.46-.46v-16.8a.47.47 0 01.46-.46.46.46 0 01.46.46v16.8a.46.46 0 01-.46.46zm-4.63 3.87a.46.46 0 01-.46-.46v-19.21a.47.47 0 01.46-.46.46.46 0 01.46.46v19.21a.45.45 0 01-.46.46zm-2.3-4.69a.47.47 0 01-.46-.46v-7.16a.47.47 0 01.46-.46.46.46 0 01.46.46v7.16a.46.46 0 01-.46.46zm-32.26 23.59a.46.46 0 01-.44-.42v-17.12a.45.45 0 01.46-.46.46.46 0 01.46.46V155a.47.47 0 01-.48.42zm18.47-16.86a.46.46 0 01-.46-.46v-4.69a.46.46 0 01.46-.46.47.47 0 01.46.46v4.69a.47.47 0 01-.46.46zm4.62 8.03a.45.45 0 01-.46-.46v-26.08a.45.45 0 01.46-.46.46.46 0 01.46.46v26.08a.46.46 0 01-.46.46zm4.61-11.24a.47.47 0 01-.46-.46V126a.47.47 0 01.46-.46.46.46 0 01.46.46v8.93a.46.46 0 01-.46.42zm18.42-6.56a.45.45 0 01-.46-.46v-17.08a.46.46 0 01.46-.46.47.47 0 01.46.46v17.08a.46.46 0 01-.46.46zm-9.24 3.46a.46.46 0 01-.46-.46v-13.34a.47.47 0 01.46-.46.46.46 0 01.46.46v13.34a.45.45 0 01-.46.46z" fill="#92e3a9"/><path d="M226.55 192.59h-.06v-.3l-.94.54h-.05c-.05 0 0 0 0 0v-.32a.42.42 0 010-.15l.89-1.63s0-.06.05-.07 0 0 .06-.05l.45-.26h.05v1.14l.25-.15h.06v.32a.13.13 0 010 .07l-.06.06-.25.14v.31a.25.25 0 010 .07l-.06.05zm-.07-.82v-.55l-.43.8zm1.83-1.32a.19.19 0 010 .07.34.34 0 01-.06.06l-.39.22h-.05c-.05 0 0 0 0 0v-.39a.11.11 0 010-.07.1.1 0 01.05-.06l.39-.22h.06zm0 1a.19.19 0 010 .07.34.34 0 01-.06.06l-.39.22h-.05c-.05 0 0 0 0 0v-.39a.11.11 0 010-.07l.05-.06.39-.22h.06zm1.5-.75h-.05c-.05 0 0 0 0 0v-.3l-.93.54h-.06v-.31a.28.28 0 010-.15l.88-1.63.05-.08h.06l.45-.26a.07.07 0 01.06 0v1.14l.26-.14h.06v.32a.25.25 0 010 .07l-.06.05-.26.15v.3a.1.1 0 010 .07.17.17 0 01-.06.06zm-.06-.82v-.54l-.44.79zm1.44-.04l.64-1.87-.88.51h-.06c-.01 0 0 0 0 0v-.32a.13.13 0 010-.07.17.17 0 01.11-.09l1.42-.82h.05v.27a.62.62 0 01-.05.18l-.65 1.88a.09.09 0 010 .06v.06l-.42.24a.05.05 0 01-.16-.03zm53.94-31.79a.84.84 0 01-.07.35 1.7 1.7 0 01-.19.35 2.09 2.09 0 01-.29.31 1.91 1.91 0 01-.33.25 1.53 1.53 0 01-.34.14.74.74 0 01-.29 0 .35.35 0 01-.19-.12.47.47 0 01-.07-.28.55.55 0 010-.18 1.09 1.09 0 01.05-.17l.08-.16.07-.15.57-1.1v-.05a.17.17 0 01.06-.06l.47-.27h.05l-.39.74a.93.93 0 01.3-.09.48.48 0 01.24 0 .26.26 0 01.16.13.44.44 0 01.11.36zm-1.22.71a.17.17 0 000 .1h.18l.13-.06.12-.09a.57.57 0 00.11-.11.54.54 0 00.07-.13.31.31 0 000-.13.13.13 0 000-.1.1.1 0 00-.07 0 .22.22 0 00-.11 0h-.12a.6.6 0 00-.13.09 1.14 1.14 0 00-.11.11l-.07.13a.35.35 0 000 .19zm2.17-1.66a.25.25 0 010 .07l-.06.05-.39.23a.07.07 0 01-.06 0V157a.19.19 0 010-.07.17.17 0 01.06-.06l.39-.22h.06zm0 1a.25.25 0 010 .07l-.06.06-.39.22a.07.07 0 01-.06 0v-.39a.19.19 0 010-.07.17.17 0 01.06-.06l.39-.22h.06zm2.01-3.1h.05c.05 0 0 0 0 0v.32a.25.25 0 010 .07v.07l-.36.57a.56.56 0 01.38 0c.09 0 .14.13.14.29a1.07 1.07 0 01-.23.64 2.23 2.23 0 01-.65.54 1.72 1.72 0 01-.38.17.72.72 0 01-.28 0 .31.31 0 01-.17-.09.28.28 0 01-.06-.18.07.07 0 010-.06l.38-.22h.27a.53.53 0 00.18-.07 1.18 1.18 0 00.24-.19.28.28 0 00.09-.2c0-.07 0-.11-.09-.1a.48.48 0 00-.24.09l-.25.14h-.05c-.05 0 0 0 0 0v-.26a.25.25 0 010-.07l.05-.07.31-.5-.77.45h-.06v-.31a.11.11 0 010-.07s0-.05.06-.06zm1.48-.91a1.14 1.14 0 01.39-.15.37.37 0 01.26 0 .35.35 0 01.16.16 1.06 1.06 0 01.06.28v.53a2.21 2.21 0 01-.06.34 1.81 1.81 0 01-.16.35 2.5 2.5 0 01-.26.33 2 2 0 01-.39.28 1.15 1.15 0 01-.38.16.47.47 0 01-.27 0 .31.31 0 01-.15-.17.77.77 0 01-.07-.27v-.53a1.37 1.37 0 01.07-.34 1.19 1.19 0 01.15-.35 1.4 1.4 0 01.27-.33 1.9 1.9 0 01.38-.29zm.32 1.14a4.17 4.17 0 000-.5.51.51 0 000-.13.13.13 0 00-.05-.07.12.12 0 00-.1 0 .29.29 0 00-.15.06.58.58 0 00-.15.11.38.38 0 00-.09.13.58.58 0 00-.05.14.8.8 0 000 .15 4.17 4.17 0 000 .5v.12a.12.12 0 00.06.08h.09l.15-.06a.61.61 0 00.15-.12l.1-.12a1.21 1.21 0 00.05-.14.77.77 0 00-.01-.15zm-33.19 1.89v4.58a.74.74 0 01-.33.57l-.88.51c-.18.1-.33 0-.33-.19V158a.74.74 0 01.33-.57l.88-.51c.18-.1.33-.01.33.2zm3.08-1.78v4.58a.74.74 0 01-.33.57l-.88.51c-.18.1-.33 0-.33-.19v-4.58a.74.74 0 01.33-.57l.88-.51c.18-.15.33-.02.33.19zm12.14-7.06v4.58a.73.73 0 01-.33.57l-.88.51c-.18.11-.33 0-.33-.19v-4.58a.74.74 0 01.33-.57l.88-.51c.19-.09.33-.02.33.19zm.72-.37v4.49c0 .33.18.4.4.14l4.14-4.78c.22-.25.12-.46-.21-.46h-3.72a.61.61 0 00-.61.61zM245 163.82v4.58a.74.74 0 01-.33.57l-.88.51c-.18.1-.33 0-.33-.19v-4.58a.73.73 0 01.33-.57l.89-.51c.18-.11.32-.02.32.19zm-2.12 5.78v-4.67c0-.36-.19-.44-.43-.17l-4.42 5c-.24.27-.14.49.22.49h4a.65.65 0 00.63-.65z" fill="#fff"/><path d="M236.24 184.2l43.31-25c.71-.41 1.29-.12 1.29.65a2.77 2.77 0 01-1.29 2.14l-43.31 25c-.71.41-1.29.12-1.29-.65a2.79 2.79 0 011.29-2.14z" fill="#fff" opacity=".3"/><path d="M236.24 184.2l32.52-18.77c.71-.41 1.29-.12 1.29.65a2.77 2.77 0 01-1.29 2.14L236.24 187c-.71.41-1.29.12-1.29-.65a2.79 2.79 0 011.29-2.15z" fill="#92e3a9"/></svg>