<svg xmlns="http://www.w3.org/2000/svg" viewBox="0 0 500 500"><g id="freepik--Floor--inject-38"><ellipse id="freepik--floor--inject-38" cx="249.12" cy="358.2" rx="231.42" ry="128.63" style="fill:#f5f5f5"></ellipse></g><g id="freepik--Shadows--inject-38"><ellipse id="freepik--Shadow--inject-38" cx="125.74" cy="405.71" rx="46.31" ry="26.74" style="fill:#e0e0e0"></ellipse><path id="freepik--shadow--inject-38" d="M430,325.89q-16.16-17.31-46.35-26.5a12.6,12.6,0,0,0-5-.28c-22.45,4.23-40.8,15.25-57.49,27.43a2.08,2.08,0,0,0-.18,3.32l.81.72c-28-7.63-62.43-4.77-85.57,8.59-29.46,17-29.46,44.59,0,61.6s77.23,17,106.69,0c20.77-12,26.87-29.22,18.37-44.3a180.29,180.29,0,0,0,18.55,7.27,7.24,7.24,0,0,0,4.79-.37c17-8.6,33.19-22.66,45.26-33.77A2.63,2.63,0,0,0,430,325.89Z" style="fill:#e0e0e0"></path></g><g id="freepik--character-2--inject-38"><g id="freepik--chartacter-on-a-table--inject-38"><g id="freepik--Chair--inject-38"><polygon points="379.1 240.36 382.88 240.47 386.02 198.49 382.24 198.38 379.1 240.36" style="fill:#455a64"></polygon><polygon points="411.39 258.08 415.17 258.19 418.3 216.21 414.52 216.1 411.39 258.08" style="fill:#455a64"></polygon><path d="M410.11,261.68h6.26l9.09,64.95h0a.76.76,0,0,1-.45.69,2.5,2.5,0,0,1-2.23,0,.87.87,0,0,1-.45-.54h0Z" style="fill:#455a64"></path><path d="M372.59,240h6.25l9.1,64.94h0a.76.76,0,0,1-.46.69,2.42,2.42,0,0,1-2.22,0,.82.82,0,0,1-.45-.54h0Z" style="fill:#455a64"></path><path d="M324.27,325.47l10.8-63.79h6.25l-13.91,63.94h0a.84.84,0,0,1-.44.53,2.44,2.44,0,0,1-2.23,0,.72.72,0,0,1-.45-.68Z" style="fill:#455a64"></path><path d="M364.92,348.94,374,284h6.25l-12.2,65.1h0a.84.84,0,0,1-.44.53,2.44,2.44,0,0,1-2.23,0,.73.73,0,0,1-.45-.68Z" style="fill:#455a64"></path><path d="M335.07,261.68h6.25l-2.54,11.69q-2.13-1.77-4.16-3.63a4.15,4.15,0,0,1-.75-1Z" style="fill:#37474f"></path><path d="M416.37,261.68l1.08,7.76a4.87,4.87,0,0,1-1.21,2.11c-1.16,1.07-2.39,2.14-3.67,3.21l-2.46-13.08Z" style="fill:#37474f"></path><path d="M372.76,292.94,374,284h6.25l-2,10.9Q375.43,294,372.76,292.94Z" style="fill:#37474f"></path><path d="M378.22,241.69a6.62,6.62,0,0,1,.85-.1l7.1,50.78c-1.14.62-2.28,1.22-3.43,1.81l-9.63-51.41C374.79,242.38,376.49,242,378.22,241.69Z" style="fill:#37474f"></path><path d="M378.29,290c-17.7-5.86-32-14.45-43.67-25.17a5.05,5.05,0,0,1-1.41-3.24v-3.37a4.3,4.3,0,0,1,1.55-3.08,105.75,105.75,0,0,1,43.46-18.36,9.24,9.24,0,0,1,3.74.2q22.41,6.84,34.39,19.69a5.62,5.62,0,0,1,1.29,3.35v3.38a5,5,0,0,1-1.4,3.24c-9,8.24-21.76,16.71-34.4,23.1A5.29,5.29,0,0,1,378.29,290Z" style="fill:#92E3A9"></path><path d="M333.21,258.19v3.37a5.05,5.05,0,0,0,1.41,3.24c11.66,10.72,26,19.32,43.66,25.17a5.07,5.07,0,0,0,2,.16V236.67a8.37,8.37,0,0,0-2,.08,105.73,105.73,0,0,0-43.47,18.37A4.29,4.29,0,0,0,333.21,258.19Z" style="opacity:0.4"></path><path d="M380.26,236.67v53.46a4.37,4.37,0,0,0,1.58-.43c12.63-6.38,25.44-14.85,34.4-23.09a5,5,0,0,0,1.4-3.24V260a5.62,5.62,0,0,0-1.29-3.35Q404.37,243.79,382,237A7.35,7.35,0,0,0,380.26,236.67Z" style="opacity:0.5"></path><path d="M416.24,259.36c-9,8.25-21.76,16.7-34.4,23.08a5.36,5.36,0,0,1-3.55.27c-17.7-5.83-32-14.41-43.67-25.14a1.54,1.54,0,0,1,.14-2.46,105.62,105.62,0,0,1,43.46-18.36,9.24,9.24,0,0,1,3.74.2q22.41,6.84,34.39,19.66A2,2,0,0,1,416.24,259.36Z" style="fill:#92E3A9"></path><path d="M416.24,259.36c-9,8.25-21.76,16.7-34.4,23.08a5.36,5.36,0,0,1-3.55.27c-17.7-5.83-32-14.41-43.67-25.14a1.54,1.54,0,0,1,.14-2.46,105.62,105.62,0,0,1,43.46-18.36,9.24,9.24,0,0,1,3.74.2q22.41,6.84,34.39,19.66A2,2,0,0,1,416.24,259.36Z" style="opacity:0.30000000000000004"></path><path d="M425.7,209.27q-18-23.1-47-27.11a6.38,6.38,0,0,0-3.47.66,3.59,3.59,0,0,0-1.56,2.83v14.2a2.25,2.25,0,0,0,1.91,2.17q29,4,47,27.11a2.17,2.17,0,0,0,2.72.63,3.56,3.56,0,0,0,1.57-2.83v-14.2A6.61,6.61,0,0,0,425.7,209.27Z" style="fill:#92E3A9"></path><path d="M413,218.83,426.55,211a5.8,5.8,0,0,1,.32,1.74v14.2a3.56,3.56,0,0,1-1.57,2.83,2.17,2.17,0,0,1-2.72-.63A76.42,76.42,0,0,0,413,218.83Z" style="opacity:0.5"></path><path d="M413,218.83Q397.41,205,375.62,202a2.25,2.25,0,0,1-1.91-2.17v-14.2a3.59,3.59,0,0,1,1.56-2.83,6.38,6.38,0,0,1,3.47-.66q29,4,47,27.11a5.88,5.88,0,0,1,.85,1.72Z" style="opacity:0.30000000000000004"></path><path d="M422.57,229.13Q404.6,206,375.62,202a2.25,2.25,0,0,1-1.91-2.17v-14.2a1.64,1.64,0,0,1,1.91-1.68q29,4,47,27.11a6.56,6.56,0,0,1,1.16,3.45v14.21C423.74,229.8,423.23,230,422.57,229.13Z" style="fill:#92E3A9"></path><path d="M422.57,229.13Q404.6,206,375.62,202a2.25,2.25,0,0,1-1.91-2.17v-14.2a1.64,1.64,0,0,1,1.91-1.68q29,4,47,27.11a6.56,6.56,0,0,1,1.16,3.45v14.21C423.74,229.8,423.23,230,422.57,229.13Z" style="opacity:0.4"></path></g><g id="freepik--Character--inject-38"><path d="M371.2,165.42c-7.09.5-10.21,1.51-13,8.15-2.33,5.62-9.93,33.58-9.93,33.58s-15.1,9.33-22.89,13.24l8.45,6.81s19.06-6.58,22.41-8.18,3.28-2.55,6.93-14.3C368.42,188,371.2,165.42,371.2,165.42Z" style="fill:#ffbda7"></path><path d="M371.66,165c-4.21-.21-9.78,1.07-12.65,5.68s-8.73,26.79-8.73,26.79,7.56,6.59,17.3,6.46l4.8-22.95Z" style="fill:#92E3A9"></path><path d="M349.23,322.06s-1.08,12.45-2.94,16.51a61.93,61.93,0,0,1-7.59,13c-.74,1-2.45,2.75-3.06,3.52a1.43,1.43,0,0,0,.27,2.19c1.69,1.45,8.54,1.46,12.21-1.61s6.62-7.95,8.78-10.38c1.08-1.21,2.1-2.37,2.84-3.23a3.08,3.08,0,0,0,.62-3c-.1-.3-.2-.64-.32-1.05-1.08-3.64.71-14.21.71-14.21C357.22,319.41,353.33,321.09,349.23,322.06Z" style="fill:#ffbda7"></path><path d="M360.93,342.63a3.91,3.91,0,0,1-.09,2c-.35.93-2.83,2.7-4.12,3.42a8.3,8.3,0,0,0-3.33,3.82c-1.46,2.8-3.72,5.85-6.66,7.38a21.68,21.68,0,0,1-12.76,2c-5.41-.69-6-3.83-6-3.83s-.44-3,.87-3.5S360.93,342.63,360.93,342.63Z" style="fill:#263238"></path><path d="M361.48,338.93a8.6,8.6,0,0,1-.55,3.7c-1.47,2.27-5.16,3.18-7.17,6.28s-4.34,7.84-11.29,9.59-12.4-.21-13.8-2.15-.31-3.88,4.07-6.53c4.65-2.83,10-10,10-10,1.75-2.45,2.41-5.62,3.33-8.46.08-.27.23-.6.52-.62s.52.4.72.69a2.29,2.29,0,0,0,1.39.78,16.93,16.93,0,0,0,5.72.73,1.61,1.61,0,0,1,1.21.27,1.43,1.43,0,0,1,.29,1.07,13.62,13.62,0,0,1-.13,1.42,1.34,1.34,0,0,0,0,.69.86.86,0,0,0,.82.5,1.78,1.78,0,0,0,1-.35,4.27,4.27,0,0,0,2.17-3s0-.72.06-1.37a1.72,1.72,0,0,1,.91,1,15.08,15.08,0,0,1,.24,1.66A28.26,28.26,0,0,1,361.48,338.93Z" style="fill:#37474f"></path><path d="M319.37,305.76s-1.36,12.87-3,17a62.13,62.13,0,0,1-7,13.3c-.7,1-2.32,2.85-2.9,3.64a1.43,1.43,0,0,0,.37,2.18c1.75,1.38,8.59,1.08,12.13-2.15s6.25-8.24,8.3-10.76c1-1.26,2-2.47,2.7-3.35a3.13,3.13,0,0,0,.48-3c-.11-.29-.23-.63-.37-1-1.23-3.6,2-13.56,2-13.56C328.31,303.82,323.42,304.62,319.37,305.76Z" style="fill:#ffbda7"></path><path d="M331.15,327a4,4,0,0,1-.09,2c-.35.92-2.84,2.7-4.12,3.41a8.35,8.35,0,0,0-3.33,3.82c-1.47,2.81-3.72,5.85-6.66,7.38a21.69,21.69,0,0,1-12.76,2c-5.41-.7-6-3.84-6-3.84s-.43-3,.88-3.5S331.15,327,331.15,327Z" style="fill:#263238"></path><path d="M331.69,323.34a8.6,8.6,0,0,1-.54,3.7c-1.47,2.27-5.17,3.18-7.17,6.28s-4.34,7.84-11.3,9.59-12.4-.22-13.8-2.15-.31-3.88,4.07-6.54c4.65-2.82,10-10,10-10,1.75-2.46,2.41-5.63,3.32-8.46.09-.28.24-.6.53-.62s.52.39.72.68a2.17,2.17,0,0,0,1.38.78,15.16,15.16,0,0,0,1.88.46,17.1,17.1,0,0,0,3.85.28,1.58,1.58,0,0,1,1.21.27,1.4,1.4,0,0,1,.28,1.06,9.61,9.61,0,0,1-.13,1.42,1.51,1.51,0,0,0,0,.7.87.87,0,0,0,.83.5,2,2,0,0,0,.95-.35,4.13,4.13,0,0,0,2.07-3,12.63,12.63,0,0,1,.16-1.37,1.82,1.82,0,0,1,.91,1c.15.54.13,1.12.24,1.66A28.38,28.38,0,0,1,331.69,323.34Z" style="fill:#37474f"></path><path d="M409.76,231.28l-16.55-1.18-33.65-2.71s-30.89,17.29-35.29,27c-2.55,5.63-5,48.61-5.47,55,2.32,1.84,9.1,3.85,11.94,3.37,1.76-5.07,3.29-7.24,5.74-14.7,2-6.08,3.84-10.14,5.27-14.34a62.44,62.44,0,0,0,3-15.2s10.9-7.46,19.08-10.57c-4.51,4.93-11,13.84-11.84,15.8-2.51,5.65-3.43,46.18-3.43,51.8C350.37,328,359,328.5,361.18,327c2.62-9.2,4.56-13.63,6.67-21.19,3.36-12.05,2.27-16.94,1.78-21.34,0,0,8.71-5.54,20-14,4.76-3.57,10.64-8.49,13.9-12.25C409.5,251.32,410.39,239.13,409.76,231.28Z" style="fill:#37474f"></path><path d="M363.79,258l9.32-10.4s-9.48-4.16-11.24-13.15c0,0-1.54,7.58,5.71,13.74L361.26,257l-16.55,11.56C351.55,265,358.34,261.29,363.79,258Z" style="fill:#263238"></path><path d="M386.59,164.85a77.7,77.7,0,0,1,12.9,1.63c4.77,1.63,6.16,2.87,8.47,9.46,3.45,9.83,2.39,23.38,2.39,32.67,0,12.34-.29,26.61-.29,26.61C399.63,244,365.67,240,360,227.61c0,0,1.32-15.5,1.32-43.72,0-13.68,4.93-19.33,13.67-19.33C375,164.56,382.2,164.67,386.59,164.85Z" style="fill:#455a64"></path><path d="M379.32,133.22a10.42,10.42,0,1,1-10.88-9.94A10.42,10.42,0,0,1,379.32,133.22Z" style="fill:#263238"></path><path d="M396,141.85s-1.67,10.53-2.44,12.28a4.58,4.58,0,0,1-2.53,2.32l-.18-7.35Z" style="fill:#263238"></path><path d="M394,127a3.47,3.47,0,0,1,3.22,1.44c1.46,2.14.72,7.62-1.21,13.45l-4,.66Z" style="fill:#263238"></path><path d="M395.33,128.1l4.89-.65a2.33,2.33,0,0,0-2.62-2.24A2.73,2.73,0,0,0,395.33,128.1Z" style="fill:#263238"></path><path d="M395.75,126.86l3.08-4a2.36,2.36,0,0,0-3.44.39A2.69,2.69,0,0,0,395.75,126.86Z" style="fill:#263238"></path><path d="M390.79,142.57c.83.46,1.9-1.2,2.85-2.33s3.73-2.3,5.5,1.18a5.8,5.8,0,0,1-3,8,3.94,3.94,0,0,1-4.25-.7l.18,17.35c-4.28,10.43-21.55,8.09-15.39,1.06v-6.6s-3,.31-5.79.35c-2.32,0-4.9-1.47-6.13-5a52.33,52.33,0,0,1-2.55-13.2,51.68,51.68,0,0,1,0-8.15c1.18-11.57,15.2-15.19,23-10.54S390.79,142.57,390.79,142.57Z" style="fill:#ffbda7"></path><path d="M372.9,132.46a26.65,26.65,0,0,0,8.23-2.84,1,1,0,0,1,.8-.19c.3.09.44.4.56.68a27.53,27.53,0,0,0,1.66,3.86,5.87,5.87,0,0,0,3.09,2.72,2.44,2.44,0,0,1,1.31.63,2.33,2.33,0,0,1,.43,1.35,10.72,10.72,0,0,1-.22,1.86c-.12.85-.33,2.32.18,3.05a1.36,1.36,0,0,0,2,.26,8.27,8.27,0,0,0,1.48-2,12.33,12.33,0,0,1,1.59-2c.56-.54.28-1.67.37-2.42.19-1.51.26-3,.31-4.56,0-1.29.82-4.19,1-5.46.27-1.83.08-1.18-.61-2.46-1.5-6-8.23-8.19-13.5-7.63a55.39,55.39,0,0,1-7.05.34,51.46,51.46,0,0,1-8.84-.82,2.36,2.36,0,0,0-1.21,0,1.51,1.51,0,0,0-.8,1.7,4.41,4.41,0,0,0,.92,1.8,9.91,9.91,0,0,0-2.8-.78,3.32,3.32,0,0,0-2.69.89,4,4,0,0,0-.71,3.35,10.71,10.71,0,0,0,7.21,8.21A15.49,15.49,0,0,0,372.9,132.46Z" style="fill:#263238"></path><path d="M376.7,160.5s7.16-1.52,9.62-3a8.47,8.47,0,0,0,3.33-3.75,12.29,12.29,0,0,1-1.79,4.33c-1.74,2.54-11.16,4.78-11.16,4.78Z" style="fill:#f0997a"></path><path d="M376.63,141.41a1.46,1.46,0,1,0,2.9,0,1.5,1.5,0,0,0-1.46-1.55A1.52,1.52,0,0,0,376.63,141.41Z" style="fill:#263238"></path><path d="M377.46,136.65l3.12,1.75a2,2,0,0,0-.75-2.56A1.69,1.69,0,0,0,377.46,136.65Z" style="fill:#263238"></path><path d="M379,151l-5,2a2.63,2.63,0,0,0,3.45,1.71A3,3,0,0,0,379,151Z" style="fill:#f0997a"></path><path d="M363.92,139l2.81-2.3a1.68,1.68,0,0,0-2.46-.37A2,2,0,0,0,363.92,139Z" style="fill:#263238"></path><path d="M364.86,142a1.45,1.45,0,1,0,1.43-1.58A1.5,1.5,0,0,0,364.86,142Z" style="fill:#263238"></path><polygon points="372 141.3 372.38 150.65 367.16 149.61 372 141.3" style="fill:#f0997a"></polygon><path d="M387.73,119.77c4,2.62,8.54,7.61,8.28,18.5a5.78,5.78,0,0,1,2.64,5.57c-.27,3.4-2.91,6.16-5.89,6.15s-5.19-2.77-4.92-6.18c.2-2.54,2.29-5.41,4.44-5.7a21.62,21.62,0,0,0-1.83-10.88c-3.45-8.19-11.08-9-18.08-9.62C374.8,116.49,382.35,116.22,387.73,119.77Z" style="fill:#92E3A9"></path><path d="M387.73,119.77c4,2.62,8.54,7.61,8.28,18.5a5.78,5.78,0,0,1,2.64,5.57c-.27,3.4-2.91,6.16-5.89,6.15s-5.19-2.77-4.92-6.18c.2-2.54,2.29-5.41,4.44-5.7a21.62,21.62,0,0,0-1.83-10.88c-3.45-8.19-11.08-9-18.08-9.62C374.8,116.49,382.35,116.22,387.73,119.77Z" style="opacity:0.5"></path><path d="M387.19,143.79c.3-3.78,3.22-6.83,6.53-6.82a5.09,5.09,0,0,1,1.48.22c.4.13,1.63.64,1.87.74a6.24,6.24,0,0,1,3.58,6.48c-.3,3.77-3.22,6.82-6.53,6.82a5,5,0,0,1-1.78-.33l-1.72-.69A6.27,6.27,0,0,1,387.19,143.79Z" style="fill:#92E3A9"></path><path d="M387.19,143.79c.3-3.78,3.22-6.83,6.53-6.82a5.09,5.09,0,0,1,1.48.22c.4.13,1.63.64,1.87.74a6.24,6.24,0,0,1,3.58,6.48c-.3,3.77-3.22,6.82-6.53,6.82a5,5,0,0,1-1.78-.33l-1.72-.69A6.27,6.27,0,0,1,387.19,143.79Z" style="opacity:0.30000000000000004"></path><path d="M388.67,144.38c.3-3.77,3.22-6.82,6.53-6.81s5.74,3.07,5.45,6.84-3.22,6.82-6.53,6.82S388.37,148.15,388.67,144.38Z" style="fill:#92E3A9"></path><path d="M388.67,144.38c.3-3.77,3.22-6.82,6.53-6.81s5.74,3.07,5.45,6.84-3.22,6.82-6.53,6.82S388.37,148.15,388.67,144.38Z" style="opacity:0.1"></path><path d="M391.83,144.39a3.35,3.35,0,0,1,3.08-3.22,2.79,2.79,0,0,1,2.57,3.23,3.35,3.35,0,0,1-3.08,3.22A2.78,2.78,0,0,1,391.83,144.39Z" style="fill:#455a64"></path></g><g id="freepik--Table--inject-38"><g id="freepik--table--inject-38"><path d="M308,354.92c-10.15-5.86-26.6-5.86-36.75,0-5.07,2.93-7.6,6.77-7.6,10.61,0,.4,0,2.84,0,3.3.08,3.78,2.61,7.54,7.6,10.42,10.15,5.86,26.6,5.86,36.75,0,5-2.89,7.55-6.68,7.6-10.48,0-.44,0-2.89,0-3.3C315.53,361.65,313,357.83,308,354.92Z" style="fill:#37474f"></path><path d="M271.2,376.14c-10.15-5.86-10.15-15.36,0-21.22s26.6-5.86,36.75,0,10.15,15.36,0,21.22S281.35,382,271.2,376.14Z" style="fill:#455a64"></path><path d="M292.79,363h0v-63.6h-6.47V363h0a1.5,1.5,0,0,0,.92,1.48,5.06,5.06,0,0,0,4.58,0A1.49,1.49,0,0,0,292.79,363Z" style="fill:#37474f"></path><path d="M342.85,240.67c-29.46-17-77.23-17-106.69,0-14.73,8.5-22.09,19.65-22.08,30.8v2.16c0,11.15,7.35,22.3,22.08,30.8,29.46,17,77.23,17,106.69,0,14.73-8.5,22.09-19.65,22.08-30.8v-2.16C364.94,260.32,357.58,249.18,342.85,240.67Z" style="fill:#455a64"></path><path d="M342.92,235c-29.46-17-77.23-17-106.69,0-14.74,8.5-22.09,19.65-22.09,30.8,0,2.28,0,1.42,0,3.71,0,11.15,7.35,22.29,22.09,30.8,29.46,17,77.23,17,106.69,0C357.65,291.82,365,279.13,365,268v-2.16C365,254.67,357.65,243.52,342.92,235Z" style="fill:#92E3A9"></path><path d="M342.92,235c-29.46-17-77.23-17-106.69,0-14.74,8.5-22.09,19.65-22.09,30.8,0,2.28,0,1.42,0,3.71,0,11.15,7.35,22.29,22.09,30.8,29.46,17,77.23,17,106.69,0C357.65,291.82,365,279.13,365,268v-2.16C365,254.67,357.65,243.52,342.92,235Z" style="fill:#fff;opacity:0.4"></path><path d="M342.92,235c-29.46-17-77.23-17-106.69,0-14.74,8.5-22.09,19.65-22.09,30.8,0,2.28,0,1.42,0,3.71,0,11.15,7.35,22.29,22.09,30.8,29.46,17,77.23,17,106.69,0C357.65,291.82,365,279.13,365,268v-2.16C365,254.67,357.65,243.52,342.92,235Z" style="opacity:0.1"></path><ellipse cx="289.57" cy="265.82" rx="75.44" ry="43.56" style="fill:#92E3A9"></ellipse><path d="M236.16,296.62c-29.46-17-29.46-44.59,0-61.6s77.23-17,106.69,0,29.47,44.59,0,61.6S265.62,313.63,236.16,296.62Z" style="fill:#fff;opacity:0.85"></path></g></g><g id="freepik--Laptop--inject-38"><path id="freepik--shadow--inject-38" d="M275.53,246.26,306,228.68a1.76,1.76,0,0,1,1.75,0l52.84,30.51a.39.39,0,0,1,0,.68l-30.74,17.75Z" style="opacity:0.1"></path><path d="M277.8,242.56v.68a2.83,2.83,0,0,0,1.41,2.44l49.22,28.42a2.84,2.84,0,0,0,2.82,0l26.83-15.44a2.81,2.81,0,0,0,1.4-2.43v-1h0a.36.36,0,0,1-.17.31l-29.47,17Z" style="fill:#37474f"></path><path d="M329.84,272.6v1.87a2.8,2.8,0,0,1-1.41-.37l-49.22-28.42a2.81,2.81,0,0,1-1.41-2.44v-.68Z" style="fill:#263238"></path><path d="M277.8,242.56,307,225.71a1.66,1.66,0,0,1,1.67,0l50.63,29.23a.38.38,0,0,1,0,.65l-29.45,17Z" style="fill:#455a64"></path><polygon points="330.1 270.12 345.85 261.04 299.82 234.47 284 243.5 330.1 270.12" style="fill:#37474f"></polygon><polygon points="284 243.5 284.6 243.85 299.82 235.16 345.24 261.39 345.84 261.05 299.82 234.47 284 243.5" style="fill:#263238"></polygon><polygon points="337.84 244.87 337.55 245.03 329.84 249.49 316.12 241.57 315.83 241.4 323.83 236.78 337.84 244.87" style="fill:#263238"></polygon><polygon points="337.55 245.03 329.84 249.49 316.12 241.57 323.83 237.11 337.55 245.03" style="fill:#37474f"></polygon><path id="freepik--Arm--inject-38" d="M348.76,206.81c-4.06,2.39-9.15,5.51-12.11,7.15s-5.12,2.56-8.45,4.22c-2.56,1.27-5.78,2.34-7.64,4.08s-11.36,11.17-13.43,12.8-1,3.4,2.84,4.53a11.58,11.58,0,0,0,9.27-1,38.9,38.9,0,0,0,6.32-4.69,9.59,9.59,0,0,0,5.11-1.73c2-1.65,3.24-3.62,4.41-4.6s12.26-5.13,20.67-8.35Z" style="fill:#ffbda7"></path><path d="M329,273a3.33,3.33,0,0,1-2.87-.22l-49-28.29a3.33,3.33,0,0,1-1.63-2.33l-5.36-32a3.48,3.48,0,0,1,0-.55,3.34,3.34,0,0,1,1-2.37l50.93,29.41a2.47,2.47,0,0,1,1.19,1.72Z" style="fill:#37474f"></path><path d="M329.84,272.6l-.34.19a2.77,2.77,0,0,1-.46.22l-5.8-34.62a2.47,2.47,0,0,0-1.19-1.72l-50.93-29.41a3.5,3.5,0,0,1,.68-.52l51,29.46a2.48,2.48,0,0,1,1.2,1.73Z" style="fill:#455a64"></path><path d="M322.77,237.32l.79-.46a2.53,2.53,0,0,1,.47,1.07l5.81,34.67-.34.19a2.77,2.77,0,0,1-.46.22l-5.8-34.62A2.3,2.3,0,0,0,322.77,237.32Z" style="fill:#263238"></path><path d="M301.44,243.48c-.36-2.14-2.57-5-4.94-6.35s-4-.74-3.64,1.4,2.58,5,4.94,6.35S301.8,245.62,301.44,243.48Z" style="fill:#92E3A9"></path></g><g id="freepik--arm--inject-38"><path d="M375.38,241.56c1.41-1.2,24.63-9.1,28.87-11.37s4.66-4.29,5.86-10.72c1.74-9.33,3.23-32.17,2.85-40.09-.27-5.73-3.42-10.65-12.25-11.79-2.66,2.84-5.27,8.57-4.19,21.56-.44,5.58-3,29.06-3,29.06-3.65,1.9-12.34,7.33-16.6,9.7-3,1.68-5.13,2.56-8.46,4.22-2.56,1.26-5.77,2.34-7.64,4.08S349.5,247.38,347.44,249s-1,3.4,2.83,4.53a11.61,11.61,0,0,0,9.28-1,38.65,38.65,0,0,0,6.31-4.69,9.64,9.64,0,0,0,5.12-1.73C373,244.51,374.22,242.54,375.38,241.56Z" style="fill:#ffbda7"></path><path d="M399.62,166.57c4.37.43,10.42,2.26,12.59,6s2.54,5.36,1.65,17.16c-.83,11-1.77,17.67-1.77,17.67S406.2,210.94,395,205l1-16S393.54,172.63,399.62,166.57Z" style="fill:#92E3A9"></path></g><g id="freepik--shadow--inject-38" style="opacity:0.2"><path id="freepik--shadow--inject-38" d="M246.17,274.77A18.43,18.43,0,0,1,236.05,272c-2.37-1.57-3.67-3.53-3.67-5.52s1.3-4,3.67-5.53a19.93,19.93,0,0,1,20.24,0c2.37,1.57,3.67,3.53,3.67,5.53s-1.3,3.95-3.67,5.52A18.43,18.43,0,0,1,246.17,274.77Z"></path></g><g id="freepik--Coffee--inject-38"><path d="M257.67,265.46a7.1,7.1,0,0,0,2.76-.39c1.22-.45,2.28-1.76,3.25-4,.81-1.9,2.12-6.07,1.2-8.21-1.17-2.73-4.48-2.83-6.67-2.89l-.75,0-.12,2.61c.26,0,.67.09,1,.1,1.23,0,3.95.46,4.25,1.16,1,1.69-1.59,8.18-2.72,8.89a10.09,10.09,0,0,1-4.24,0l-.86,2.18A9.77,9.77,0,0,0,257.67,265.46Z" style="fill:#92E3A9"></path><path d="M257.67,265.46a7.1,7.1,0,0,0,2.76-.39c1.22-.45,2.28-1.76,3.25-4,.81-1.9,2.12-6.07,1.2-8.21-1.17-2.73-4.48-2.83-6.67-2.89l-.75,0-.12,2.61c.26,0,.67.09,1,.1,1.23,0,3.95.46,4.25,1.16,1,1.69-1.59,8.18-2.72,8.89a10.09,10.09,0,0,1-4.24,0l-.86,2.18A9.77,9.77,0,0,0,257.67,265.46Z" style="opacity:0.5"></path><path d="M234.66,246.81c.25-1.11,1.35-2.2,3.29-3.07a23.44,23.44,0,0,1,16.36-.17c2,.83,3.08,1.89,3.36,3h.06c.85,7.29-.37,15.77-2.92,20.48a.31.31,0,0,1-.05.1.25.25,0,0,1,0,.07h0a5.68,5.68,0,0,1-2.11,2,13.74,13.74,0,0,1-12.41.13,5.51,5.51,0,0,1-2.15-2h0l0-.06-.06-.11c-2.65-4.66-4-13.11-3.35-20.42Z" style="fill:#92E3A9"></path><path d="M234.66,246.81c.25-1.11,1.35-2.2,3.29-3.07a23.44,23.44,0,0,1,16.36-.17c2,.83,3.08,1.89,3.36,3h.06c.85,7.29-.37,15.77-2.92,20.48a.31.31,0,0,1-.05.1.25.25,0,0,1,0,.07h0a5.68,5.68,0,0,1-2.11,2,13.74,13.74,0,0,1-12.41.13,5.51,5.51,0,0,1-2.15-2h0l0-.06-.06-.11c-2.65-4.66-4-13.11-3.35-20.42Z" style="opacity:0.4"></path><path d="M238,243.74c-4.49,2-4.46,5.19.08,7.11a23.5,23.5,0,0,0,16.36-.18c4.49-2,4.46-5.19-.08-7.1A23.44,23.44,0,0,0,238,243.74Z" style="fill:#92E3A9"></path><path d="M239.55,245c-3.63,1.32-3.61,3.39,0,4.64a23.14,23.14,0,0,0,13.19-.14c3.63-1.32,3.61-3.4,0-4.65A23,23,0,0,0,239.55,245Z" style="opacity:0.4"></path><path d="M239.58,247.76a6.65,6.65,0,0,0-1.82.94,6.85,6.85,0,0,0,1.84.9,23.14,23.14,0,0,0,13.19-.14,6.94,6.94,0,0,0,1.82-.94,6.85,6.85,0,0,0-1.84-.9A23.13,23.13,0,0,0,239.58,247.76Z" style="fill:#263238"></path></g></g></g><g id="freepik--character-1--inject-38"><g id="freepik--character--inject-38"><path d="M157.42,208.45c-.94-10.47-3.77-14.86-8.17-15.89-7-1.65-7.5,1-5.07,6.1a25.21,25.21,0,0,1,2.19,6.71,12.82,12.82,0,0,0-2.6-2.37,2.48,2.48,0,0,0-3.34.34c-.31.44.84,1.12,1.92,3,1.39,2.41,1.44,4.19,3.54,6.34a6.9,6.9,0,0,1,1.32,3.79c.17,3.76-.71,8.86-1.93,13.77-3.67-5.17-7.73-10.43-10.8-14.54-5.66-7.58-7-10-17-10.14l3.1,17.63s21.15,28,27,29.61c2.51.71,4.47.26,5.62-1.05h0l0-.06.07-.08c1.75-2,2.79-8.18,3.4-16.92h0c.38-4.38.68-9.32,1-14.63A81.69,81.69,0,0,0,157.42,208.45Z" style="fill:#ffa8a7"></path><path d="M145.28,230.24a49.56,49.56,0,0,0-1.43,5.18,20.31,20.31,0,0,0,.14,8.92s-1.91-2.26-1.76-7.31a19.8,19.8,0,0,1,2-8.32Z" style="fill:#f28f8f"></path><path d="M68.55,318.65c-2.79.38-6.94,1.36-8.6.68-2.06-.85-3.22-2.37-5.62-2.13a6.8,6.8,0,0,0-4.93,2.87c-1.63,2.45-1.47,5.67-2.62,8.38a16.13,16.13,0,0,1-4.43,5.5,15.24,15.24,0,0,0-1.58,1.53A9.75,9.75,0,0,0,39,343c.37,2.25,1.09,4.78,3.21,6.12a3.68,3.68,0,0,0,5.33-1.4c.27-.63.37-1.32.58-2a14,14,0,0,1,1.24-3.38,39.85,39.85,0,0,1,5.42-6.52c2-2,4-4.2,6.79-4.95a128.08,128.08,0,0,1,13.8.42l1.19-14C73.81,317.73,71.33,318.26,68.55,318.65Z" style="fill:#ffa8a7"></path><path d="M126.09,258.34c-10.27,2.61-15.64.7-23.64-1.71-1.89,16.05-4.71,41.39-7.93,61.53-6.63-2.51-13.88-1.38-18-.81a28.37,28.37,0,0,0-1.19,14c7.11.56,14.7,1.47,19.32,2.07,9.21,1.19,12.29,1.12,16-5.33,3.9-6.76,8.5-18.57,11.71-29.31C125.91,287.09,128.21,274.12,126.09,258.34Z" style="fill:#37474f"></path><path d="M91.69,242.08c.35,2.08.91,4.66.29,7.34,0,0-1.69,3.6-2.65,5.58-2.36,4.9,13.58,8.2,24.6,7.25s11.81-6.49,11.81-6.49L125,241Z" style="fill:#ffa8a7"></path><path d="M122,371.35c2.3,6.29,4.27,11.67,4.58,13,.67,2.68,1.18,5.19.16,8.1-.45,1.3-1.37,3.14-.38,4.89,1.39,2.45,3.88,2.93,5.83,5a35.26,35.26,0,0,1,4.64,5.72,10.56,10.56,0,0,0,7.25,4.79,13.24,13.24,0,0,0,10.34-1.88,1.72,1.72,0,0,0,.65-.84,1.52,1.52,0,0,0-.3-1.21,2.76,2.76,0,0,0-.55-.51c-.19-.16-.34-.23-.52-.36-6.32-4.72-10.75-10.79-14.75-17.5a25.42,25.42,0,0,1-1.51-6.49c-.43-4.46-1-9.57-1.53-14.89" style="fill:#ffa8a7"></path><path d="M89.33,255c-1.88,4.32-7.09,12.4-6.67,23.43.44,11.27,8.69,23.62,16,32.39,5.69,6.83,9.6,12.72,16.07,20.26a33.37,33.37,0,0,0-.85,17c.73,3.16,4.46,14.37,7.81,23.53a24.15,24.15,0,0,0,14.57-2.32c-1.11-10.63-2.61-22.08-3.14-30.79-.77-12.66-1.35-14.52-5.34-24C123.35,304.05,118.43,292,114,281.9c4.49-.31,7.61-3.88,12.9-12.39.2-4.08-.69-9.09-1.16-13.75,0,0,0,3.25-9.14,3.83S96.22,258.61,89.33,255Z" style="fill:#455a64"></path><polygon points="96.13 307.5 111.36 326.89 110.04 329.15 96.13 307.5" style="fill:#263238"></polygon><path d="M114,281.76c2.48,5.72,6.11,14.17,7.92,18.58l-4.77-17.2c4.79-4,6-5.5,7.83-10.7C122.7,276.05,118.8,280.26,114,281.76Z" style="fill:#263238"></path><path d="M130.41,222c-4.7-9-12.89-16.4-12.89-16.4-2.36-1.58-16.63-1-16.63-1l-4.14.31c-1.57.15-4.11.31-5.21.57-6,1.38-4.55,4.28-5,7.75-.22,1.92-4,7-1.19,13.41,2.35,5.48,6.29,15.45,6.29,15.45,8.46,5.41,28.8,6.07,33.44,1.43,0,0-.13-3.43-.13-6.61A11.15,11.15,0,0,0,130.41,222Z" style="fill:#455a64"></path><path d="M117.66,235.35a13,13,0,0,1-11.32,2.16c-6.32-1.84-7.72-7.24-7.42-9.41,0,0-1.76,8.77,6.11,11.15C114.88,242.23,117.66,235.35,117.66,235.35Z" style="opacity:0.2"></path><path d="M109.1,187.08,105.26,200C94.61,200,88,189.66,88,179h0c0-10.69,6.81-19.63,17.51-19.63H109c10.7,0,19.37,7.1,19.37,17.8h0C128.38,184.14,119.75,187.08,109.1,187.08Z" style="fill:#263238"></path><path d="M61.68,194.86l.08,0c4.53,2.9,11.13,3,15.5-.23,3.08-2.28,4.87-5.92,5.9-9.61s1.42-7.52,2.34-11.23,3.29-6.46,7.23-6.73c1-.07,2.33-.07,2.78-1s-.18-1.78-.83-2.42a9.56,9.56,0,0,0-6.37-2.6,12.18,12.18,0,0,0-9.76,4.69c-2.78,3.57-3.41,8.21-5.47,12.15-2.37,4.55-6.41,5.94-11.3,6.15-1.32.06-2.78.17-3.7,1.12a4.09,4.09,0,0,0-.7,3.76A9.92,9.92,0,0,0,61.68,194.86Z" style="fill:#263238"></path><path d="M130.38,167.26a7.7,7.7,0,0,0,1.13-4.45,5.14,5.14,0,0,0-2.22-3.91c-2-1.28-4.75-.68-6.61.79a5.37,5.37,0,0,0-1.91-3.57,5.44,5.44,0,0,0-3.85-1.24,11.86,11.86,0,0,0-4.88,2,25.41,25.41,0,0,1-8.29,2.55l3.25,1.29a4.67,4.67,0,0,0-.06,5.56,21.92,21.92,0,0,0,20,9.65,6.47,6.47,0,0,0,3.09-.87,5.15,5.15,0,0,0,1.37-1.46,5.53,5.53,0,0,0,1-3.45A3.57,3.57,0,0,0,130.38,167.26Z" style="fill:#263238"></path><path d="M121.45,167.9c2.23,1.32,5,6.93,4.71,18.68-.23,10-3.46,12.43-5.08,13.14s-4.75.27-7.79-.23v6c7,8.7-5.41,10.77-12.51-.29V192.9s-2.06,2.43-5.41.2-3.49-7.74-1.54-9.73,6.16-1.35,7,1.39c0,0,4.85.17,11.3-3.37A18.15,18.15,0,0,0,121.45,167.9Z" style="fill:#ffa8a7"></path><path d="M113.92,184.08a1.26,1.26,0,0,1-1.18,1.36,1.29,1.29,0,0,1-1.32-1.24,1.25,1.25,0,1,1,2.5-.12Z" style="fill:#263238"></path><path d="M113.61,191.59l4.23,1.35a2.17,2.17,0,0,1-2.75,1.52A2.31,2.31,0,0,1,113.61,191.59Z" style="fill:#b16668"></path><path d="M114.15,192.59a2,2,0,0,0-.59.1,2.27,2.27,0,0,0,1.53,1.77,2,2,0,0,0,1.17,0A2.13,2.13,0,0,0,114.15,192.59Z" style="fill:#f28f8f"></path><path d="M124.19,180.23l-2.53-1.75a1.48,1.48,0,0,1,2.1-.44A1.62,1.62,0,0,1,124.19,180.23Z" style="fill:#263238"></path><path d="M123.61,183.17a1.25,1.25,0,1,1-1.32-1.24A1.3,1.3,0,0,1,123.61,183.17Z" style="fill:#263238"></path><polygon points="117.49 182.46 117.69 190 121.66 188.77 117.49 182.46" style="fill:#f28f8f"></polygon><path d="M113.29,199.49c-3.2-.42-9.79-2.32-10.82-4.92a6.74,6.74,0,0,0,2.31,3.32c2,1.69,8.51,3.59,8.51,3.59Z" style="fill:#f28f8f"></path><path d="M127,386.06c-.83.28-.85,1.24-.3,2.05a11.29,11.29,0,0,0,.92,1.21Z" style="fill:#92E3A9"></path><path d="M127,386.06c-.83.28-.85,1.24-.3,2.05a11.29,11.29,0,0,0,.92,1.21Z" style="opacity:0.30000000000000004"></path><path d="M146.62,401.37c-1.63-2-5.63-8.32-6.3-10.23s.21-3.33-1.73-3-4.68.56-5,1.68.59,3.77,2.66,7a34.4,34.4,0,0,0,6.15,6.57Z" style="fill:#92E3A9"></path><path d="M146.62,401.37c-1.63-2-5.63-8.32-6.3-10.23s.21-3.33-1.73-3-4.68.56-5,1.68.59,3.77,2.66,7a34.4,34.4,0,0,0,6.15,6.57Z" style="opacity:0.1"></path><path d="M155.45,411.36c.11.81,0,1.37-2.82,2.41s-7.19,1-10.82.11-6.78-4.22-8.29-6.54-4.61-4.51-6.65-5.65-2.47-1.6-2.3-2.29.75-2.53.75-2.53Z" style="fill:#ebebeb"></path><path d="M127,386.06c-.66.46-.35,1.72.74,2.79.45.67.72,3,1.72,3.35s1.94-1.49,3-1.49,2.2,1.94,3.71,4.33,5.77,7.75,6.44,7.75,2.95-1.57,3.93-1.42a56.68,56.68,0,0,0,4.72,4c2.31,1.72,3.12,2.24,3.8,2.69s.82,2.09.45,3.06-5.74,3.32-11.41,2-7.3-3.81-9.25-6.92A15.78,15.78,0,0,0,129,400.7a12.65,12.65,0,0,1-3.95-2.83,8.07,8.07,0,0,1,0-3.95c.52-2.32,1.19-4.25.89-6.12a2.38,2.38,0,0,1,.86-2.54A4.4,4.4,0,0,1,127,386.06Z" style="fill:#92E3A9"></path><path d="M154.71,409.11c-1,.26-2.16.53-2.21.93s-.09,2.64-.65,3.38a2.74,2.74,0,0,1-2.23,1,27.13,27.13,0,0,1-7.66-.69,14.06,14.06,0,0,1-6.87-4.64c-2.14-2.57-2.53-3.8-5.37-5.77s-3.9-2.28-5.15-3.46a6,6,0,0,0-.24.93,3.58,3.58,0,0,0,1.29,1.1,34.94,34.94,0,0,1,5.3,3.23,38.24,38.24,0,0,1,3.84,4.55,14.5,14.5,0,0,0,7.17,4.67c3.21.82,7.64,1,10.55-.08s3.06-1.64,3.31-2a7.06,7.06,0,0,0,.21-3C155.83,408.87,155.45,408.91,154.71,409.11Z" style="fill:#455a64"></path><path d="M141.51,402.56c2.08-1.47,3.86-2,4.65-1.78a1.66,1.66,0,0,1,.75.86s-1.56-.06-4.51,1.81A1,1,0,0,1,141.51,402.56Z" style="fill:#455a64"></path><path d="M144.59,398.54a7.19,7.19,0,0,0-4.9,1.93,1.07,1.07,0,0,1-.84-.88,7.57,7.57,0,0,1,5.13-2S144.65,398,144.59,398.54Z" style="fill:#455a64"></path><path d="M142.62,395.42c-1.26-.48-4.27.87-5.36,1.89a.9.9,0,0,1-.84-1,8.13,8.13,0,0,1,5.5-2.06S142.79,394.66,142.62,395.42Z" style="fill:#455a64"></path><path d="M140.93,392.47a7.58,7.58,0,0,0-5.64,1.77,1.13,1.13,0,0,1-.66-1.05,6.59,6.59,0,0,1,5.77-1.84A1.73,1.73,0,0,1,140.93,392.47Z" style="fill:#455a64"></path><path d="M62.89,319.52c0-.87-1.22-1.27-2.15-1a11.89,11.89,0,0,0-1.41.55A5.21,5.21,0,0,0,62.89,319.52Z" style="fill:#92E3A9"></path><g style="opacity:0.30000000000000004"><path d="M62.89,319.52c0-.87-1.22-1.27-2.15-1a11.89,11.89,0,0,0-1.41.55A5.21,5.21,0,0,0,62.89,319.52Z"></path></g><path d="M51.78,339.44c1.62-2,7.09-7.13,8.83-8.15s3.31-.44,2.59-2.28-1.45-4.48-2.62-4.58-3.58,1.3-6.38,4a34.31,34.31,0,0,0-5.27,7.29Z" style="fill:#92E3A9"></path><path d="M51.78,339.44c1.62-2,7.09-7.13,8.83-8.15s3.31-.44,2.59-2.28-1.45-4.48-2.62-4.58-3.58,1.3-6.38,4a34.31,34.31,0,0,0-5.27,7.29Z" style="opacity:0.1"></path><path d="M43.68,350c-.77.27-2.33.31-4.12-2.15a12.08,12.08,0,0,1-1.26-10.66c1.57-4.57,4.86-6.12,6.27-8.51,1.8-3.05,1.74-6.55,2.2-8.84.53-2.69,2-2.71,2.74-2.69s2.6.23,2.6.23Z" style="fill:#ebebeb"></path><path d="M62.89,319.52c-.47-1.29-1.94-1.07-2.91-.66s-2.34.95-2.49,2,1.83,1.61,2,2.71S58.06,326.1,56,328s-6.51,7.15-6.38,7.81,2.11,2.59,2.15,3.59a19.63,19.63,0,0,0-3.05,5.4c-.56,1.79-1,3.25-1.33,4s-2.82,1.33-3.84,1.15c-1.69-.28-5.21-3.11-5-8.92s3.25-7.09,5.92-9.6,3.41-8.2,3.75-9.76a7.09,7.09,0,0,1,2.85-4.08,8.17,8.17,0,0,1,3.88-.76c2.37.07,3.75.51,5.62.22,2.1-.34,3,2.31,3,2.31Z" style="fill:#92E3A9"></path><path d="M44.73,348.69c-.45-1-.94-2-1.34-2s-2.6.41-3.44,0-1.14-1.37-1.53-2.27a14.78,14.78,0,0,1-.09-6.89c1-3.23,2.44-4.24,4.65-6.75a12.4,12.4,0,0,0,3.47-7.49c.59-3.68.82-4.95,2.09-6a8.46,8.46,0,0,0-1,0A4.1,4.1,0,0,0,46.45,319c-.3,1-1,6.57-1.72,8.07a14.49,14.49,0,0,1-3.15,4.16c-1.32,1.45-3,2.79-4,6.4a13.17,13.17,0,0,0,1.6,9.92c1.64,2.36,2.66,2.59,3.06,2.77a4.94,4.94,0,0,0,2.47-.27C45.18,349.75,45.06,349.38,44.73,348.69Z" style="fill:#455a64"></path><path d="M49.64,334.64c1.84,1.77,2.7,3.41,2.64,4.23a1.68,1.68,0,0,1-.71.9s-.23-1.54-2.64-4.08A1,1,0,0,1,49.64,334.64Z" style="fill:#455a64"></path><path d="M54.17,336.9a7.23,7.23,0,0,0-2.84-4.44,1.08,1.08,0,0,1,.71-1A7.6,7.6,0,0,1,55,336.12S54.74,336.84,54.17,336.9Z" style="fill:#455a64"></path><path d="M56.85,334.36c.23-1.33-1.68-4-2.88-4.89a.9.9,0,0,1,.82-1,8.16,8.16,0,0,1,3.08,5S57.64,334.39,56.85,334.36Z" style="fill:#455a64"></path><path d="M59.42,332.14A7.51,7.51,0,0,0,56.61,327a1.12,1.12,0,0,1,.89-.86,6.62,6.62,0,0,1,2.92,5.32A1.75,1.75,0,0,1,59.42,332.14Z" style="fill:#455a64"></path><path d="M73.64,277.11c-1.39-2.6-2.28-3.4-3-5.87A11.48,11.48,0,0,0,73.2,273c1.13.46,2.59.32,2.89-.7s-1.43-1.46-2.15-2.55a33.68,33.68,0,0,0-3.9-5.17A3.68,3.68,0,0,1,68.62,262c-.52-7.24-.13-15.1-.56-22.52,2.54-1.63,15.8-10,20.31-13.47a17.2,17.2,0,0,0,4.89-4.12,14.17,14.17,0,0,0,2-11.4c-.43-1.72-1.44-4.65-3.2-5-.83-.15-3.09.18-6.07,1.81-2,1.08-6.13,3.72-14.31,9.86a78.1,78.1,0,0,0-15.89,15.58c-2,2.75,1.2,23.58,2,28.51.42,2.67,1.17,6.78,2.07,10.27,1.51,5.9,5.32,10.58,9.72,11.28C76.53,283.91,75.52,280.63,73.64,277.11Z" style="fill:#ffa8a7"></path><g id="freepik--device-2--inject-38"><path d="M68.94,233l.36,0a1.37,1.37,0,0,0,.84-.18l15.91-12.09a.37.37,0,0,0,.09-.52L80,212.34a1.28,1.28,0,0,0-.76-.34l-.36,0a1.4,1.4,0,0,0-.85.18L62.09,224.24a.37.37,0,0,0-.08.52l6.17,7.85A1.25,1.25,0,0,0,68.94,233Z" style="fill:#92E3A9"></path><path d="M68.94,233l.36,0a1.37,1.37,0,0,0,.84-.18l15.91-12.09a.37.37,0,0,0,.09-.52L80,212.34a1.28,1.28,0,0,0-.76-.34l-.36,0a1.4,1.4,0,0,0-.85.18L62.09,224.24a.37.37,0,0,0-.08.52l6.17,7.85A1.25,1.25,0,0,0,68.94,233Z" style="fill:#fff;opacity:0.85"></path><path d="M68.22,232.66a1.39,1.39,0,0,0,.72.29l.36,0a1.37,1.37,0,0,0,.84-.18l15.91-12.09a.43.43,0,0,0,.16-.25l-1.44-.14a.38.38,0,0,1-.14.25l-15.91,12.1A.42.42,0,0,1,68.22,232.66Z" style="fill:#92E3A9"></path><path d="M68.22,232.66a1.39,1.39,0,0,0,.72.29l.36,0a1.37,1.37,0,0,0,.84-.18l15.91-12.09a.43.43,0,0,0,.16-.25l-1.44-.14a.38.38,0,0,1-.14.25l-15.91,12.1A.42.42,0,0,1,68.22,232.66Z" style="fill:#fff;opacity:0.5"></path><path d="M84.62,220.57,68.71,232.66a.38.38,0,0,1-.53,0L62,224.76a.37.37,0,0,1,.08-.52L78,212.15a.4.4,0,0,1,.54,0l6.17,7.85A.37.37,0,0,1,84.62,220.57Z" style="fill:#92E3A9"></path><path d="M84.62,220.57,68.71,232.66a.38.38,0,0,1-.53,0L62,224.76a.37.37,0,0,1,.08-.52L78,212.15a.4.4,0,0,1,.54,0l6.17,7.85A.37.37,0,0,1,84.62,220.57Z" style="fill:#fff;opacity:0.7000000000000001"></path><path d="M82.79,221l-5.64-7.17a.33.33,0,0,0-.45,0L64,223.4a.33.33,0,0,0-.07.45L69.57,231a.33.33,0,0,0,.45,0l12.7-9.65A.32.32,0,0,0,82.79,221Z" style="fill:#92E3A9"></path><path d="M82.79,221l-5.64-7.17a.33.33,0,0,0-.45,0L64,223.4a.33.33,0,0,0-.07.45L69.57,231a.33.33,0,0,0,.45,0l12.7-9.65A.32.32,0,0,0,82.79,221Z" style="opacity:0.30000000000000004"></path><path d="M81.21,216.44a.26.26,0,0,0-.36,0,.24.24,0,0,0,0,.35.25.25,0,0,0,.35,0A.25.25,0,0,0,81.21,216.44Z" style="fill:#263238"></path><path d="M81.05,217.45c-.32-.38-.85-1.09-1.15-1.47a.15.15,0,0,0-.21,0,.16.16,0,0,0,0,.21l1.16,1.47a.16.16,0,0,0,.21,0A.13.13,0,0,0,81.05,217.45Z" style="fill:#263238"></path><path d="M81.34,217.82a.14.14,0,0,0-.2,0,.13.13,0,0,0,0,.19.14.14,0,0,0,.2,0A.13.13,0,0,0,81.34,217.82Z" style="fill:#263238"></path><path d="M66.34,227.75a.52.52,0,0,0-.72-.07.48.48,0,0,0-.11.69.5.5,0,0,0,.71.07A.49.49,0,0,0,66.34,227.75Z" style="fill:#263238"></path><path d="M79.41,218.5l-.37.29a.05.05,0,0,1-.08,0l-.16-.2a.38.38,0,0,0-.06-.4.36.36,0,0,0-.38-.15l-.19-.24a.06.06,0,0,1,0-.09l.36-.29a.7.7,0,0,1,1,.11.69.69,0,0,1,.15.51A.7.7,0,0,1,79.41,218.5Z" style="fill:#fafafa"></path><path d="M78.84,219a.69.69,0,0,1-.93-.15.7.7,0,0,1,.06-.93.06.06,0,0,1,.09,0l.19.23a.36.36,0,0,0,.06.41.37.37,0,0,0,.38.15l.16.19A.07.07,0,0,1,78.84,219Z" style="fill:#fafafa"></path><path d="M77.76,219.06a.87.87,0,0,0,1.34.17.13.13,0,0,0,0-.14c0-.05-.06-.08-.08-.06a.8.8,0,0,1-1.23-.14.7.7,0,0,1-.17-.45.91.91,0,0,1,.28-.71.15.15,0,0,0,0-.15c0-.05-.06-.07-.09-.05a1.14,1.14,0,0,0-.33.88,1.24,1.24,0,0,0,0,.31,1.3,1.3,0,0,0,.08.17l-.31.25-.18-.21s-.06,0-.07,0a.2.2,0,0,0,0,.11.05.05,0,0,0,0,0l.4.51s.07,0,.08,0a.16.16,0,0,0,0-.15l-.11-.14.29-.24Z" style="fill:#fafafa"></path><path d="M75.12,217.75a.37.37,0,0,1,.09.23.26.26,0,0,1-.11.19.29.29,0,0,1-.21.06.35.35,0,0,1-.2-.13l-.12-.16-.21.17h0l-.06-.08s0,0,0,0,0,0,0,0l.62-.49s0,0,0,0h0Zm-.43.1.12.15a.16.16,0,0,0,.09.07.11.11,0,0,0,.1,0,.14.14,0,0,0,0-.09.27.27,0,0,0,0-.11l-.12-.14Z" style="fill:#fafafa"></path><path d="M75.17,218.32l.11-.06h.13a.28.28,0,0,1,.12,0,.6.6,0,0,1,.12.11.46.46,0,0,1,.08.13.3.3,0,0,1,0,.13.34.34,0,0,1,0,.12.39.39,0,0,1-.08.1l0,0,0,0,0,0,0,0-.12.06a.28.28,0,0,1-.13,0,.19.19,0,0,1-.12,0A.53.53,0,0,1,75,219a.61.61,0,0,1-.07-.14.32.32,0,0,1,0-.13.56.56,0,0,1,0-.12.28.28,0,0,1,.09-.1l0,0,0,0,0,0Zm.34.44a.19.19,0,0,0,.07-.13.2.2,0,0,0,0-.14.17.17,0,0,0-.12-.07.15.15,0,0,0-.14,0,.24.24,0,0,0-.09.06l-.08.07a.21.21,0,0,0-.07.12.24.24,0,0,0,0,.14.18.18,0,0,0,.27,0l.08-.06Z" style="fill:#fafafa"></path><path d="M76.21,219.12a.34.34,0,0,1,.08.14.27.27,0,0,1,0,.13.56.56,0,0,1,0,.12l-.09.1-.14.12-.13.06a.3.3,0,0,1-.13,0,.31.31,0,0,1-.12-.05.5.5,0,0,1-.11-.1l-.19-.24a0,0,0,0,1,0,0v0l.62-.49h0Zm-.14.37.05-.06a.14.14,0,0,0,0-.07s0,0,0-.07,0,0,0-.08l-.1-.13-.43.35.1.13.07.06.07,0h.07l.06,0Z" style="fill:#fafafa"></path><path d="M76.45,220.35h0l.06.08a0,0,0,0,1,0,0l0,0-.09.05h-.11l-.12,0a.68.68,0,0,1-.12-.12.35.35,0,0,1-.08-.13.28.28,0,0,1,0-.13.28.28,0,0,1,0-.12.76.76,0,0,1,.08-.11l.08-.06.08-.06.13-.07h.13a.31.31,0,0,1,.12,0,.26.26,0,0,1,.11.1.34.34,0,0,1,.08.14.3.3,0,0,1,0,.13.17.17,0,0,1,0,.1.7.7,0,0,1-.06.09s0,0,0,0h0l-.06-.08v0a0,0,0,0,1,0,0l0,0a.07.07,0,0,0,0-.05s0,0,0-.07l0-.07-.06,0s0,0-.07,0h-.07l-.06,0-.08.07-.08.06,0,.06a.14.14,0,0,0,0,.06v.08a.43.43,0,0,1,0,.07l.07.06.06,0h.05Z" style="fill:#fafafa"></path><path d="M77.38,220.58a0,0,0,0,1,0,0,.08.08,0,0,1,0,0l-.42.71h0l0-.07s0,0,0,0v0l.07-.13-.24-.3-.14,0s0,0,0,0l0,0,0-.07a0,0,0,0,1,0,0s0,0,0,0h0l.79-.25h0l0,0ZM77,221l.18-.32-.35.11Z" style="fill:#fafafa"></path><path d="M77.89,221.2a.28.28,0,0,1,.07.13.26.26,0,0,1,0,.11.3.3,0,0,1,0,.1.15.15,0,0,1,0,.06s0,0,0,0h0l-.06-.07v0a0,0,0,0,1,0,0,.16.16,0,0,0,0-.07.16.16,0,0,0,0-.1l0-.05,0,0h0l0,0s0,0,0,0a0,0,0,0,0,0,0,.16.16,0,0,0,0,.08l.05.1,0,.12a.38.38,0,0,1,0,.1.19.19,0,0,1,0,.08l-.06.07-.1,0h-.1l-.11,0a.38.38,0,0,1-.11-.11.41.41,0,0,1-.07-.11.26.26,0,0,1,0-.11.2.2,0,0,1,0-.11.41.41,0,0,1,0-.09h0l0,0,0,.06s0,0,0,0a0,0,0,0,1,0,0s0,0,0,0v0s0,0,0,.05a.13.13,0,0,0,0,.07l0,.05a.1.1,0,0,0,.05,0h0l0,0a.05.05,0,0,0,0,0,.18.18,0,0,0,0-.06l0-.08,0-.11,0-.1a.34.34,0,0,1,0-.09l0-.08s0-.05.06-.07a.19.19,0,0,1,.1-.05h.1a.25.25,0,0,1,.11,0Z" style="fill:#fafafa"></path><path d="M78.58,222.08a0,0,0,0,1,0,0v0l-.07.05h-.05l-.14-.17-.52.41h0s0,0,0,0l-.07-.08v0s0,0,0,0l.52-.42-.14-.17v0s0,0,0,0l.07,0s0,0,0,0,0,0,0,0Z" style="fill:#fafafa"></path><g id="freepik--Audio--inject-38"><path d="M69.87,219.82s0-.07,0-.08l.11-.09s0,0,.05,0,0,.07,0,.08l-.11.09S69.88,219.86,69.87,219.82Z" style="fill:#fafafa"></path><path d="M69.75,220.32s0-.08,0-.09l.74-.59s0,0,0,0a.12.12,0,0,1,0,.09l-.74.59S69.76,220.35,69.75,220.32Z" style="fill:#fafafa"></path><path d="M70.11,220.43a.13.13,0,0,1,0-.09l.4-.32s0,0,.06,0a.13.13,0,0,1,0,.09l-.41.32S70.12,220.47,70.11,220.43Z" style="fill:#fafafa"></path><path d="M70.61,220.83a.09.09,0,0,1,0-.09l.19-.15s0,0,0,0,0,.08,0,.09l-.19.15S70.62,220.87,70.61,220.83Z" style="fill:#fafafa"></path><path d="M70.66,221.19a.13.13,0,0,1,0-.09l.48-.37s0,0,0,0,0,.08,0,.09l-.47.38S70.67,221.23,70.66,221.19Z" style="fill:#fafafa"></path><path d="M70.52,221.71s0-.08,0-.09l1.15-.92s0,0,.06,0,0,.08,0,.09l-1.15.93S70.53,221.74,70.52,221.71Z" style="fill:#fafafa"></path><path d="M70.83,221.86s0-.08,0-.09l.92-.73s0,0,0,0,0,.08,0,.09l-.92.74S70.84,221.89,70.83,221.86Z" style="fill:#fafafa"></path><path d="M70.82,222.26a.07.07,0,0,1,0-.08l1.32-1.06s0,0,0,0a.09.09,0,0,1,0,.09l-1.32,1.05S70.84,222.3,70.82,222.26Z" style="fill:#fafafa"></path><path d="M71.36,222.23a.07.07,0,0,1,0-.08l.63-.51s0,0,0,0a.09.09,0,0,1,0,.09l-.63.5S71.38,222.27,71.36,222.23Z" style="fill:#fafafa"></path><path d="M71.8,222.29s0-.08,0-.09l.15-.12s0,0,.06,0,0,.08,0,.09l-.15.12S71.81,222.32,71.8,222.29Z" style="fill:#fafafa"></path><path d="M71.83,223.06a.13.13,0,0,1,0-.09l.87-.69s0,0,.05,0a.07.07,0,0,1,0,.09l-.86.69S71.85,223.1,71.83,223.06Z" style="fill:#fafafa"></path><path d="M72,223.73s0-.07,0-.09l1.32-1s0,0,0,0a.09.09,0,0,1,0,.09l-1.32,1.05S72,223.76,72,223.73Z" style="fill:#fafafa"></path><path d="M73,223.77s0-.08,0-.09l.18-.15s0,0,.06,0a.13.13,0,0,1,0,.09l-.19.15S73,223.8,73,223.77Z" style="fill:#fafafa"></path><path d="M74.94,226.18a.12.12,0,0,1,0-.09l.11-.09s0,0,.06,0a.13.13,0,0,1,0,.09l-.11.08S75,226.21,74.94,226.18Z" style="fill:#fafafa"></path><path d="M74.44,226.18a.09.09,0,0,1,0-.09l.73-.58s0,0,0,0,0,.08,0,.09l-.73.59S74.45,226.22,74.44,226.18Z" style="fill:#fafafa"></path><path d="M74.41,225.8a.09.09,0,0,1,0-.09l.4-.32s0,0,.05,0,0,.08,0,.09l-.4.32S74.42,225.84,74.41,225.8Z" style="fill:#fafafa"></path><path d="M74.12,225.23a.12.12,0,0,1,0-.09l.19-.15s0,0,.05,0a.07.07,0,0,1,0,.09l-.18.15S74.13,225.26,74.12,225.23Z" style="fill:#fafafa"></path><path d="M73.79,225.1s0-.08,0-.09l.47-.38s0,0,0,0a.09.09,0,0,1,0,.09l-.47.38S73.8,225.13,73.79,225.1Z" style="fill:#fafafa"></path><path d="M73.25,225.13s0-.08,0-.09l1.15-.93s0,0,.06,0a.12.12,0,0,1,0,.09l-1.16.92S73.26,225.16,73.25,225.13Z" style="fill:#fafafa"></path><path d="M72.77,224.7a.1.1,0,0,1,0-.09l1.32-1.05s0,0,0,0a.09.09,0,0,1,0,.09l-1.32,1.05S72.79,224.74,72.77,224.7Z" style="fill:#fafafa"></path><path d="M73,224.13a.12.12,0,0,1,0-.09l.5-.39s0,0,0,0,0,.08,0,.09l-.49.4S73,224.16,73,224.13Z" style="fill:#fafafa"></path><path d="M69.92,221s0-.07,0-.08l1.18-.94s0,0,0,0,0,.08,0,.09L70,221S69.93,221,69.92,221Z" style="fill:#fafafa"></path><path d="M71.91,222.6s0-.08,0-.09l.32-.26s0,0,.06,0a.12.12,0,0,1,0,.09l-.33.26S71.92,222.63,71.91,222.6Z" style="fill:#fafafa"></path><path d="M71.57,223.68s0-.08,0-.09l1.79-1.44s0,0,0,0,0,.08,0,.09l-1.79,1.43S71.58,223.71,71.57,223.68Z" style="fill:#fafafa"></path><path d="M72.55,223.69a.09.09,0,0,1,0-.09l.61-.49s0,0,0,0,0,.08,0,.09l-.61.49S72.56,223.73,72.55,223.69Z" style="fill:#fafafa"></path><path d="M73.82,225.87s0-.08,0-.09l1.17-.94s0,0,0,0a.09.09,0,0,1,0,.09l-1.17.94S73.84,225.9,73.82,225.87Z" style="fill:#fafafa"></path><path d="M73.17,224.79a.12.12,0,0,1,0-.09l.92-.74s0,0,.05,0,0,.08,0,.09l-.92.73S73.18,224.82,73.17,224.79Z" style="fill:#fafafa"></path></g><path d="M65,223.37h0l0,0-.08-.1h0l0,0h0l.15,0h0l0,.05h0l-.08.06,0,0h0l0,0h0l0,0h0Zm0-.06,0,0H65Z" style="fill:#fafafa"></path><path d="M65.2,223.49h0l0,0h0l0,0h0l0,0h0Zm-.07.06h0l0,0h0l0,0h0l0,0h0Z" style="fill:#fafafa"></path><path d="M65.25,223.71h0l-.08-.1h0l.15,0h0l0,0h0l-.08.07,0,0h0l0,0,0,0h0Zm.06-.05,0,0-.08,0Z" style="fill:#fafafa"></path><path d="M65.38,223.86h0l.16,0-.08-.09h0l.12.15h0l0,0h0l-.16,0h0l0,0h0Z" style="fill:#fafafa"></path><path d="M70,229.53h-.06l0,0,0,0,0,0s0,0,0,0v0a0,0,0,0,1,0,0h0l.1,0h0l0,0H70a.08.08,0,0,1,0,0,0,0,0,0,1,0,0v0A0,0,0,0,1,70,229.53Zm-.11-.13h0v0h0v0h0v0h0v0h-.05Z" style="fill:#fafafa"></path><path d="M70.09,229.61h0l0,0h0l0,0h0l0,0h0Zm-.07.06h0l0,0h0l0,0h0l0,0h0Z" style="fill:#fafafa"></path><path d="M70.33,229.77h0l0,0h0l-.06,0a.17.17,0,0,1,0,.05s0,0,0,0h-.06l-.06-.06a.05.05,0,0,1,0,0l0,0v0h0l0,0h0v0l0,0h0s0,0,0,0v0l0,0h0l0,0h0l0,0-.06-.08h0Z" style="fill:#fafafa"></path><path d="M70.46,229.93l0,0v0a0,0,0,0,1,0,0,0,0,0,0,1,0,0l0,0h-.08l0,0s0,0,0,0l0,0v0a0,0,0,0,1,0,0,0,0,0,0,1,0,0l0,0h.08l0,0S70.45,229.91,70.46,229.93Zm-.07.1,0,0h0v0h0v0h-.06l0,0h0v0h0Z" style="fill:#fafafa"></path><path d="M68.77,225.57l-.31.25a0,0,0,0,1-.06,0l-.07-.1s0,0,0-.05l.31-.25s0,0,.06,0l.07.09S68.79,225.56,68.77,225.57Z" style="fill:#fafafa"></path><path d="M69,225.89l-.31.26s0,0-.06,0l-.07-.09s0,0,0-.06l.31-.25s0,0,.06,0l.07.09S69.05,225.88,69,225.89Z" style="fill:#fafafa"></path><path d="M70.06,227.18l-.31.25s0,0,0,0l-.08-.1s0,0,0,0l.31-.26s0,0,.06,0l.07.09S70.08,227.17,70.06,227.18Z" style="fill:#fafafa"></path><path d="M70.12,227.26l-.31.24a0,0,0,0,0,0,.07l.52.3s0,0,0-.05l-.17-.51C70.18,227.26,70.15,227.24,70.12,227.26Z" style="fill:#fafafa"></path><path d="M67.79,224.33l-.32.25s0,0,0,0l-.08-.09a0,0,0,0,1,0-.05l.32-.26s0,0,0,0l.07.09A0,0,0,0,1,67.79,224.33Z" style="fill:#fafafa"></path><path d="M67.29,224.35l.32-.25a0,0,0,0,0,0-.07l-.55-.34s0,0,0,.06l.18.55S67.27,224.37,67.29,224.35Z" style="fill:#fafafa"></path><path d="M66,224.24l3.67,4.59a.15.15,0,0,1,0,.21.16.16,0,0,1-.21-.06L65.8,224.4c-.06-.08-.07-.18,0-.22S65.93,224.17,66,224.24Z" style="fill:#fafafa;opacity:0.30000000000000004"></path><path d="M66,224.24l2.75,3.45c.06.07.07.17,0,.21a.17.17,0,0,1-.21-.06L65.8,224.4c-.06-.08-.07-.18,0-.22S65.93,224.17,66,224.24Z" style="fill:#fafafa"></path></g><path d="M65.61,221.58c1.08,3.92,8.07,11.77,11.07,12.47l8.8-6s-9-3.19-12.12-12.38Z" style="fill:#455a64"></path><path d="M99.22,188.39a2.07,2.07,0,1,1-2.06-2.07A2.07,2.07,0,0,1,99.22,188.39Z" style="fill:#fafafa"></path><path d="M95.1,188.12a14.16,14.16,0,0,0,.76,6.69,1,1,0,0,0,1-.16,13,13,0,0,1-.41-3.17,8,8,0,0,1,.94-3Z" style="fill:#fafafa"></path><path d="M119.24,233.57l-.24-.17a57.24,57.24,0,0,1-15.33-17c-4.91-8.63-7-18.95-7.74-22.34l.49-.1c.7,3.37,2.82,13.63,7.69,22.2A56.87,56.87,0,0,0,119,232.82c5.38-11.52-.09-32.52-.16-32.73l.48,0c.08.21,5.67,21.6,0,33.24Z" style="fill:#fafafa"></path><path d="M87,265.24a10.23,10.23,0,0,1-3.14-.48,7.83,7.83,0,0,1-5.71-8.15c.09-1.4.28-2.87.47-4.43.53-4.13,1.07-8.41-.43-11.07-2.17-3.82-5-4.11-8.88-4.51-1.07-.11-2.18-.23-3.39-.42-3.81-.62-5-2.42-5.26-3.82a6.16,6.16,0,0,1,2.74-5.91l.27.42a5.7,5.7,0,0,0-2.52,5.39c.38,1.79,2,3,4.85,3.42,1.2.2,2.3.31,3.36.42,3.89.4,7,.72,9.26,4.77,1.59,2.8,1,7.16.5,11.38-.2,1.54-.38,3-.47,4.39A7.33,7.33,0,0,0,84,264.28c4.49,1.45,11.09-.4,15.74-7.79,3.31-5.26,7-5,10.58-4.81,2.47.15,4.81.29,7.06-1.26,4.09-2.8,4.62-8.78,1.52-17.27l.48-.17c3.17,8.73,2.58,14.9-1.72,17.86-2.39,1.64-4.92,1.48-7.37,1.33-3.58-.22-7-.43-10.13,4.59C96.33,262.8,91.23,265.24,87,265.24Z" style="fill:#fafafa"></path></g></g><g id="freepik--speech-bubbles--inject-38"><g id="freepik--speech-bubble--inject-38"><g id="freepik--speech-bubble--inject-38"><path d="M391.3,103.86,394.93,97,392,88.61V83.45L401,88.61v5.16l-3.84,6.66a.63.63,0,0,1-.26.23h0Z" style="fill:#92E3A9"></path><path d="M391.3,103.86,394.93,97,392,88.61V83.45L401,88.61v5.16l-3.84,6.66a.63.63,0,0,1-.26.23h0Z" style="opacity:0.2"></path><path d="M364.15,49.85a5.91,5.91,0,0,1,2.68-4.64L369,44a5.89,5.89,0,0,1,5.36,0l50.54,29.19a6,6,0,0,1,2.67,4.64v26.14a5.93,5.93,0,0,1-2.67,4.64l-2.19,1.26a6,6,0,0,1-5.36,0l-22-12.8-3.84,6.64a.56.56,0,0,1-1-.1l-4.05-11.69L366.83,80.62A5.91,5.91,0,0,1,364.15,76Z" style="fill:#92E3A9"></path><path d="M427.58,103.92a5.93,5.93,0,0,1-2.67,4.64l-2.19,1.26a6,6,0,0,1-4.9.22c1.26.47,2.22-.24,2.22-1.77V82.14a5.5,5.5,0,0,0-.78-2.64l7.54-4.36a5.53,5.53,0,0,1,.78,2.64Z" style="opacity:0.2"></path><path d="M364.24,49.09c.31-1.14,1.35-1.5,2.59-.79l50.54,29.2a5.35,5.35,0,0,1,1.88,2l7.54-4.35a5.37,5.37,0,0,0-1.89-2L374.38,44A6,6,0,0,0,369,44l-2.19,1.26A5.92,5.92,0,0,0,364.24,49.09Z" style="fill:#fff;opacity:0.2"></path></g><g id="freepik--audio--inject-38"><path d="M417,94.16a.38.38,0,0,0,.38-.38V92.45a.38.38,0,1,0-.76,0v1.33A.38.38,0,0,0,417,94.16Z" style="fill:#fafafa"></path><path d="M415.08,96.82a.38.38,0,0,0,.38-.38V87.58a.38.38,0,0,0-.38-.38.39.39,0,0,0-.39.38v8.86A.39.39,0,0,0,415.08,96.82Z" style="fill:#fafafa"></path><path d="M413.16,93.71a.38.38,0,0,0,.38-.38V88.48a.38.38,0,0,0-.76,0v4.85A.38.38,0,0,0,413.16,93.71Z" style="fill:#fafafa"></path><path d="M409.33,90.2a.38.38,0,0,0,.38-.38V87.56a.38.38,0,0,0-.38-.38.39.39,0,0,0-.39.38v2.26A.39.39,0,0,0,409.33,90.2Z" style="fill:#fafafa"></path><path d="M407.41,90.82a.38.38,0,0,0,.38-.39v-5.7a.38.38,0,0,0-.76,0v5.7A.38.38,0,0,0,407.41,90.82Z" style="fill:#fafafa"></path><path d="M405.49,93.83a.38.38,0,0,0,.38-.38v-14a.38.38,0,0,0-.76,0v14A.38.38,0,0,0,405.49,93.83Z" style="fill:#fafafa"></path><path d="M403.58,91.29a.38.38,0,0,0,.38-.38V79.83a.39.39,0,0,0-.77,0V90.91A.38.38,0,0,0,403.58,91.29Z" style="fill:#fafafa"></path><path d="M401.66,92.62a.38.38,0,0,0,.38-.38V76.29a.38.38,0,0,0-.76,0V92.24A.38.38,0,0,0,401.66,92.62Z" style="fill:#fafafa"></path><path d="M399.74,87.36a.38.38,0,0,0,.38-.38V79.33a.38.38,0,1,0-.76,0V87A.38.38,0,0,0,399.74,87.36Z" style="fill:#fafafa"></path><path d="M397.83,83.34a.38.38,0,0,0,.38-.38V81.14a.39.39,0,0,0-.77,0V83A.38.38,0,0,0,397.83,83.34Z" style="fill:#fafafa"></path><path d="M394,85.45a.38.38,0,0,0,.38-.38V74.6a.38.38,0,0,0-.76,0V85.07A.38.38,0,0,0,394,85.45Z" style="fill:#fafafa"></path><path d="M390.16,86a.38.38,0,0,0,.38-.38V69.68a.38.38,0,1,0-.76,0V85.57A.38.38,0,0,0,390.16,86Z" style="fill:#fafafa"></path><path d="M386.33,76.92a.38.38,0,0,0,.38-.38V74.28a.39.39,0,0,0-.77,0v2.26A.38.38,0,0,0,386.33,76.92Z" style="fill:#fafafa"></path><path d="M367.2,65.42a.38.38,0,0,0,.39-.38V63.71a.39.39,0,1,0-.77,0V65A.38.38,0,0,0,367.2,65.42Z" style="fill:#fafafa"></path><path d="M369.12,70.28a.38.38,0,0,0,.38-.38V61.05a.38.38,0,0,0-.76,0V69.9A.38.38,0,0,0,369.12,70.28Z" style="fill:#fafafa"></path><path d="M371,69.39a.38.38,0,0,0,.38-.38V64.16a.38.38,0,0,0-.76,0V69A.38.38,0,0,0,371,69.39Z" style="fill:#fafafa"></path><path d="M374.87,70.31a.38.38,0,0,0,.38-.38V67.67a.38.38,0,1,0-.76,0v2.26A.38.38,0,0,0,374.87,70.31Z" style="fill:#fafafa"></path><path d="M376.79,73.14a.38.38,0,0,0,.38-.38V67.05a.38.38,0,0,0-.76,0v5.71A.38.38,0,0,0,376.79,73.14Z" style="fill:#fafafa"></path><path d="M378.7,78.37a.39.39,0,0,0,.39-.39V64a.39.39,0,0,0-.77,0V78A.39.39,0,0,0,378.7,78.37Z" style="fill:#fafafa"></path><path d="M382.54,81.58a.38.38,0,0,0,.38-.38v-16a.38.38,0,0,0-.76,0v16A.38.38,0,0,0,382.54,81.58Z" style="fill:#fafafa"></path><path d="M384.46,77.68a.38.38,0,0,0,.38-.38V71.36a.39.39,0,0,0-.77,0V77.3A.38.38,0,0,0,384.46,77.68Z" style="fill:#fafafa"></path><path d="M411.24,97.27a.38.38,0,0,0,.38-.38V82.71a.38.38,0,1,0-.76,0V96.89A.38.38,0,0,0,411.24,97.27Z" style="fill:#fafafa"></path><path d="M395.91,83.27a.38.38,0,0,0,.38-.38V79a.38.38,0,0,0-.76,0v3.89A.38.38,0,0,0,395.91,83.27Z" style="fill:#fafafa"></path><path d="M392.08,89.94a.38.38,0,0,0,.38-.38V67.9a.39.39,0,0,0-.77,0V89.56A.38.38,0,0,0,392.08,89.94Z" style="fill:#fafafa"></path><path d="M388.24,80.6a.38.38,0,0,0,.38-.38V72.81a.38.38,0,0,0-.76,0v7.41A.38.38,0,0,0,388.24,80.6Z" style="fill:#fafafa"></path><path d="M373,75.16a.38.38,0,0,0,.39-.38V60.6a.39.39,0,0,0-.77,0V74.78A.38.38,0,0,0,373,75.16Z" style="fill:#fafafa"></path><path d="M380.62,78a.39.39,0,0,0,.38-.39V66.58a.38.38,0,1,0-.76,0V77.65A.39.39,0,0,0,380.62,78Z" style="fill:#fafafa"></path></g></g><g id="freepik--speech-bubble--inject-38"><g id="freepik--speech-bubble--inject-38"><path d="M107.49,144.06l-3.62-6.82,2.92-8.43v-5.16l-8.94,5.16V134l3.84,6.65a.59.59,0,0,0,.26.24h0Z" style="fill:#92E3A9"></path><path d="M107.49,144.06l-3.62-6.82,2.92-8.43v-5.16l-8.94,5.16V134l3.84,6.65a.59.59,0,0,0,.26.24h0Z" style="opacity:0.2"></path><path d="M134.65,90.05A5.91,5.91,0,0,0,132,85.41l-2.18-1.26a5.89,5.89,0,0,0-5.36,0L73.89,113.34A5.92,5.92,0,0,0,71.22,118v26.14a5.94,5.94,0,0,0,2.67,4.64L76.08,150a6,6,0,0,0,5.36,0l22-12.8,3.84,6.64a.57.57,0,0,0,1-.1l4-11.7L132,120.82a5.91,5.91,0,0,0,2.68-4.64Z" style="fill:#92E3A9"></path><path d="M71.22,144.12a5.92,5.92,0,0,0,2.67,4.64L76.08,150a6,6,0,0,0,4.9.21c-1.26.48-2.22-.23-2.22-1.76V122.34a5.5,5.5,0,0,1,.78-2.64L72,115.34a5.53,5.53,0,0,0-.78,2.64Z" style="opacity:0.2"></path><path d="M134.56,89.29c-.31-1.14-1.35-1.5-2.59-.79L81.43,117.7a5.27,5.27,0,0,0-1.88,2L72,115.35a5.37,5.37,0,0,1,1.89-2l50.52-29.2a6,6,0,0,1,5.36,0L132,85.41A5.92,5.92,0,0,1,134.56,89.29Z" style="fill:#fff;opacity:0.2"></path></g><g id="freepik--audio--inject-38"><path d="M81.81,134.36a.39.39,0,0,1-.39-.38v-1.33a.39.39,0,0,1,.39-.38.38.38,0,0,1,.38.38V134A.38.38,0,0,1,81.81,134.36Z" style="fill:#fafafa"></path><path d="M83.72,137a.38.38,0,0,1-.38-.38v-8.85a.38.38,0,0,1,.38-.38.39.39,0,0,1,.39.38v8.85A.39.39,0,0,1,83.72,137Z" style="fill:#fafafa"></path><path d="M85.64,133.91a.38.38,0,0,1-.38-.38v-4.85a.38.38,0,1,1,.76,0v4.85A.38.38,0,0,1,85.64,133.91Z" style="fill:#fafafa"></path><path d="M89.47,130.4a.38.38,0,0,1-.38-.38v-2.26a.38.38,0,0,1,.38-.39.39.39,0,0,1,.39.39V130A.39.39,0,0,1,89.47,130.4Z" style="fill:#fafafa"></path><path d="M91.39,131a.38.38,0,0,1-.38-.38v-5.7a.38.38,0,1,1,.76,0v5.7A.38.38,0,0,1,91.39,131Z" style="fill:#fafafa"></path><path d="M93.31,134a.38.38,0,0,1-.38-.38v-14a.38.38,0,1,1,.76,0v14A.38.38,0,0,1,93.31,134Z" style="fill:#fafafa"></path><path d="M95.22,131.49a.38.38,0,0,1-.38-.39V120a.38.38,0,0,1,.38-.38.39.39,0,0,1,.39.38V131.1A.39.39,0,0,1,95.22,131.49Z" style="fill:#fafafa"></path><path d="M97.14,132.82a.38.38,0,0,1-.38-.38v-16a.38.38,0,0,1,.76,0v16A.38.38,0,0,1,97.14,132.82Z" style="fill:#fafafa"></path><path d="M99.06,127.56a.38.38,0,0,1-.38-.38v-7.65a.38.38,0,0,1,.76,0v7.65A.38.38,0,0,1,99.06,127.56Z" style="fill:#fafafa"></path><path d="M101,123.54a.38.38,0,0,1-.38-.38v-1.82A.38.38,0,0,1,101,121a.39.39,0,0,1,.39.39v1.82A.39.39,0,0,1,101,123.54Z" style="fill:#fafafa"></path><path d="M104.81,125.65a.38.38,0,0,1-.38-.38V114.8a.38.38,0,0,1,.76,0v10.47A.38.38,0,0,1,104.81,125.65Z" style="fill:#fafafa"></path><path d="M108.64,126.15a.38.38,0,0,1-.38-.38v-15.9a.38.38,0,1,1,.76,0v15.9A.38.38,0,0,1,108.64,126.15Z" style="fill:#fafafa"></path><path d="M112.47,117.12a.38.38,0,0,1-.38-.38v-2.26a.39.39,0,1,1,.77,0v2.26A.38.38,0,0,1,112.47,117.12Z" style="fill:#fafafa"></path><path d="M131.6,105.62a.39.39,0,0,1-.39-.39V103.9a.39.39,0,0,1,.77,0v1.33A.39.39,0,0,1,131.6,105.62Z" style="fill:#fafafa"></path><path d="M129.68,110.48a.38.38,0,0,1-.38-.38v-8.85a.38.38,0,0,1,.76,0v8.85A.38.38,0,0,1,129.68,110.48Z" style="fill:#fafafa"></path><path d="M127.76,109.59a.38.38,0,0,1-.38-.38v-4.85a.38.38,0,1,1,.76,0v4.85A.38.38,0,0,1,127.76,109.59Z" style="fill:#fafafa"></path><path d="M123.93,110.51a.38.38,0,0,1-.38-.38v-2.27a.38.38,0,0,1,.76,0v2.27A.38.38,0,0,1,123.93,110.51Z" style="fill:#fafafa"></path><path d="M122,113.33a.38.38,0,0,1-.38-.38v-5.7a.38.38,0,0,1,.76,0V113A.38.38,0,0,1,122,113.33Z" style="fill:#fafafa"></path><path d="M120.09,118.56a.38.38,0,0,1-.38-.38v-14a.39.39,0,0,1,.77,0v14A.38.38,0,0,1,120.09,118.56Z" style="fill:#fafafa"></path><path d="M116.26,121.78a.38.38,0,0,1-.38-.38v-16a.38.38,0,1,1,.76,0v16A.38.38,0,0,1,116.26,121.78Z" style="fill:#fafafa"></path><path d="M114.34,117.88a.38.38,0,0,1-.38-.38v-5.94a.39.39,0,1,1,.77,0v5.94A.38.38,0,0,1,114.34,117.88Z" style="fill:#fafafa"></path><path d="M87.56,137.47a.38.38,0,0,1-.38-.39V122.9a.38.38,0,1,1,.76,0v14.18A.38.38,0,0,1,87.56,137.47Z" style="fill:#fafafa"></path><path d="M102.89,123.47a.38.38,0,0,1-.38-.38V119.2a.38.38,0,1,1,.76,0v3.89A.38.38,0,0,1,102.89,123.47Z" style="fill:#fafafa"></path><path d="M106.72,130.14a.38.38,0,0,1-.38-.38V108.1a.39.39,0,0,1,.77,0v21.66A.38.38,0,0,1,106.72,130.14Z" style="fill:#fafafa"></path><path d="M110.56,120.8a.38.38,0,0,1-.38-.38V113a.38.38,0,1,1,.76,0v7.41A.38.38,0,0,1,110.56,120.8Z" style="fill:#fafafa"></path><path d="M125.85,115.36a.38.38,0,0,1-.39-.38V100.8a.39.39,0,0,1,.77,0V115A.38.38,0,0,1,125.85,115.36Z" style="fill:#fafafa"></path><path d="M118.18,118.23a.38.38,0,0,1-.38-.38V106.78a.38.38,0,0,1,.76,0v11.07A.38.38,0,0,1,118.18,118.23Z" style="fill:#fafafa"></path></g></g><g id="freepik--podcast-bubble--inject-38"><g id="freepik--code-bubble--inject-38"><path d="M300.48,27.15V163.46a4.24,4.24,0,0,1-1.91,3.31l-81.24,46.9a1.15,1.15,0,0,1-.63.18,1.07,1.07,0,0,1-.25,0,.52.52,0,0,1-.16-.06l-.17-.08a1.81,1.81,0,0,1-.5-.64,2.36,2.36,0,0,1-.2-1V76.23a4.24,4.24,0,0,1,1.91-3.31l81.24-46.87a1.36,1.36,0,0,1,1.28-.16A.56.56,0,0,1,300,26h0a.49.49,0,0,1,.12.13.2.2,0,0,1,.06.07.33.33,0,0,1,.06.1.66.66,0,0,1,.11.24.84.84,0,0,1,.05.17s0,0,0,0a1,1,0,0,1,0,.17C300.47,27,300.48,27.07,300.48,27.15Z" style="fill:#455a64"></path><path d="M215.62,213a2.49,2.49,0,0,1-.2-1V82.46h0V76.23a3.91,3.91,0,0,1,.57-1.9l-4.89-2.79a4,4,0,0,0-.58,1.91v6.2h0V209.26a2.5,2.5,0,0,0,.22,1,1.62,1.62,0,0,0,.59.65s4.38,2.51,4.55,2.62l.24.14A1.81,1.81,0,0,1,215.62,213Z" style="fill:#263238"></path><path d="M298.57,26.05,217.33,72.92A4,4,0,0,0,216,74.34l-4.89-2.8a3.79,3.79,0,0,1,1.33-1.39l81.24-46.87a1.35,1.35,0,0,1,1.39-.12c.34.21,4.38,2.51,4.79,2.72A1.4,1.4,0,0,0,298.57,26.05Z" style="fill:#37474f"></path><path d="M271.05,182.66l4.23,9.77a1.47,1.47,0,0,0,.63.71l5.54,3.2a1.51,1.51,0,0,0,2.22-.89L289,172.3Z" style="fill:#263238"></path><path d="M289,172.3l-5.33,23.15a1.51,1.51,0,0,1-2.84.18l-6.45-14.9Z" style="fill:#455a64"></path></g><path d="M263.12,65v5.34a1.17,1.17,0,0,1-.44.93l-1.9,1.1c-.3-1.16-1.35-1.53-2.61-.8a6.07,6.07,0,0,0-2.61,3.81l-2.25,1.3c-.24.14-.44-.05-.44-.43V70.92c0-4.36,2.29-9.22,5.13-10.85a2.83,2.83,0,0,1,3.62.22A6.49,6.49,0,0,1,263.12,65Z" style="fill:#92E3A9"></path><path d="M263.1,73.34c-.25,4.15-2.44,8.56-5.1,10.1s-4.86-.34-5.11-4.21a1.2,1.2,0,0,1,.44-1L255.55,77c.28,1.2,1.35,1.6,2.63.87a6,6,0,0,0,2.62-3.9l1.86-1.07C262.92,72.7,263.12,72.93,263.1,73.34Z" style="fill:#92E3A9"></path><path d="M258.72,86.19c4.59-2.67,7.22-8.09,7.22-14.85a.72.72,0,0,0-1.44,0c0,6.24-2.37,11.2-6.5,13.6a3.38,3.38,0,0,1-3.4.29c-1.54-.82-2.57-3.06-2.75-6a.73.73,0,0,0-.77-.67.7.7,0,0,0-.67.76c.22,3.49,1.5,6.11,3.51,7.18a4.24,4.24,0,0,0,2,.51,5,5,0,0,0,1.32-.19v4.53l-2,1.16a.72.72,0,0,0,.36,1.34.77.77,0,0,0,.36-.09L260.73,91a.73.73,0,0,0,.26-1,.72.72,0,0,0-1-.26l-1.3.74V86.19Z" style="fill:#92E3A9"></path><path d="M239.08,111.68c.72-.42,1.29-.49,1.69-.19s.6,1,.6,2a5.71,5.71,0,0,1-.6,2.67,4.33,4.33,0,0,1-1.69,1.78l-1.44.83v3.09a.68.68,0,0,1-.08.31.41.41,0,0,1-.17.21l-.73.42a.14.14,0,0,1-.17,0,.29.29,0,0,1-.07-.22v-9a.66.66,0,0,1,.07-.3.54.54,0,0,1,.17-.21ZM237.64,117l1.39-.8a2.3,2.3,0,0,0,.82-.79,2.37,2.37,0,0,0,.31-1.26c0-.52-.11-.82-.31-.9a1,1,0,0,0-.82.17l-1.39.81Z" style="fill:#92E3A9"></path><path d="M242.59,113.27a8.42,8.42,0,0,1,.19-1.58,6.51,6.51,0,0,1,.49-1.47,6,6,0,0,1,.81-1.27,4.3,4.3,0,0,1,1.15-1,2.26,2.26,0,0,1,1.15-.36,1.06,1.06,0,0,1,.8.33,2,2,0,0,1,.5.91,5.74,5.74,0,0,1,.2,1.35c0,.17,0,.36,0,.58s0,.42,0,.65,0,.45,0,.66,0,.41,0,.59a8.54,8.54,0,0,1-.2,1.58,6.51,6.51,0,0,1-.49,1.47,5.47,5.47,0,0,1-.81,1.27,4.39,4.39,0,0,1-1.15.95,2.22,2.22,0,0,1-1.15.37,1.13,1.13,0,0,1-.81-.32,2,2,0,0,1-.49-.91,5.49,5.49,0,0,1-.19-1.35c0-.17,0-.37,0-.58v-1.31C242.58,113.64,242.58,113.45,242.59,113.27Zm4.07-2.29a1.74,1.74,0,0,0-.42-1.3c-.25-.22-.59-.21-1,0a2.61,2.61,0,0,0-1,1.13,4.32,4.32,0,0,0-.42,1.78c0,.36,0,.76,0,1.19s0,.81,0,1.16a1.74,1.74,0,0,0,.42,1.29c.26.22.59.2,1,0a2.55,2.55,0,0,0,1-1.13,4.1,4.1,0,0,0,.42-1.78c0-.35,0-.75,0-1.18S246.68,111.33,246.66,111Z" style="fill:#92E3A9"></path><path d="M252,104.23a2.55,2.55,0,0,1,1.16-.4,1.12,1.12,0,0,1,.82.29,2.07,2.07,0,0,1,.5.92,5.87,5.87,0,0,1,.21,1.46c0,.67,0,1.35,0,2a9.3,9.3,0,0,1-.21,1.7,6.69,6.69,0,0,1-.5,1.49,5.17,5.17,0,0,1-.8,1.24,4.6,4.6,0,0,1-1.13.92l-2.27,1.31a.13.13,0,0,1-.17,0,.3.3,0,0,1-.07-.23v-9a.66.66,0,0,1,.07-.3.46.46,0,0,1,.17-.21Zm1.48,3a2.82,2.82,0,0,0-.12-.76,1.12,1.12,0,0,0-.27-.51.7.7,0,0,0-.47-.17,1.38,1.38,0,0,0-.66.22l-1.21.7v6.23l1.25-.72a2.35,2.35,0,0,0,.64-.53,3.15,3.15,0,0,0,.45-.69,3.67,3.67,0,0,0,.27-.83,4.43,4.43,0,0,0,.12-.89C253.48,108.55,253.48,107.87,253.46,107.2Z" style="fill:#92E3A9"></path><path d="M260.17,106.12a.64.64,0,0,1,.1-.32.45.45,0,0,1,.16-.19l.73-.42a.15.15,0,0,1,.18,0,.29.29,0,0,1,.07.23,6.55,6.55,0,0,1-.19,1.25,6.22,6.22,0,0,1-.48,1.3,6.06,6.06,0,0,1-.82,1.22,4.64,4.64,0,0,1-1.2,1,2.12,2.12,0,0,1-1.1.35,1.13,1.13,0,0,1-.8-.32,2,2,0,0,1-.52-.91,5.21,5.21,0,0,1-.22-1.41c0-.35,0-.73,0-1.16s0-.81,0-1.17a8.39,8.39,0,0,1,.22-1.67,6.73,6.73,0,0,1,.52-1.51,6.27,6.27,0,0,1,.8-1.26,4.14,4.14,0,0,1,1.1-.91,2.41,2.41,0,0,1,1.2-.4,1.25,1.25,0,0,1,.82.27,1.6,1.6,0,0,1,.48.75,3.91,3.91,0,0,1,.19,1,.7.7,0,0,1-.07.31.45.45,0,0,1-.18.2l-.73.42a.15.15,0,0,1-.17,0,.26.26,0,0,1-.1-.21,1.62,1.62,0,0,0-.12-.47.75.75,0,0,0-.27-.31.61.61,0,0,0-.43-.09,1.41,1.41,0,0,0-.62.22,2.16,2.16,0,0,0-.61.52,3.52,3.52,0,0,0-.44.69,4.14,4.14,0,0,0-.26.82,4.53,4.53,0,0,0-.12.89c0,.35,0,.75,0,1.17s0,.81,0,1.15a2.75,2.75,0,0,0,.12.76,1.22,1.22,0,0,0,.26.51.71.71,0,0,0,.44.19,1.18,1.18,0,0,0,.61-.19,2.74,2.74,0,0,0,.62-.49,3.07,3.07,0,0,0,.43-.59,3,3,0,0,0,.28-.63A3.46,3.46,0,0,0,260.17,106.12Z" style="fill:#92E3A9"></path><path d="M265.81,96.24q.13-.08.21,0a.66.66,0,0,1,.13.28l2.2,7.48a.28.28,0,0,1,0,.09.67.67,0,0,1-.07.31.54.54,0,0,1-.17.21l-.65.37c-.12.07-.2.08-.25,0a.42.42,0,0,1-.1-.17l-.39-1.32-2.84,1.65-.39,1.76a1.37,1.37,0,0,1-.1.28.59.59,0,0,1-.25.27l-.65.37a.14.14,0,0,1-.17,0,.29.29,0,0,1-.07-.22.31.31,0,0,1,0-.1l2.2-10a2.11,2.11,0,0,1,.13-.42.47.47,0,0,1,.22-.24Zm.49,5.8-1-3.38-1,4.53Z" style="fill:#92E3A9"></path><path d="M271.71,92.7a2.41,2.41,0,0,1,1.06-.37,1.26,1.26,0,0,1,.77.19,1.19,1.19,0,0,1,.46.55,2.17,2.17,0,0,1,.18.75.67.67,0,0,1-.07.31.48.48,0,0,1-.18.21l-.63.36c-.1.06-.18.07-.23,0a.46.46,0,0,1-.14-.16.66.66,0,0,0-.41-.36,1,1,0,0,0-.81.21,2.73,2.73,0,0,0-.45.33,2.17,2.17,0,0,0-.36.44,1.89,1.89,0,0,0-.25.49,1.64,1.64,0,0,0-.09.53,1.1,1.1,0,0,0,.08.47.39.39,0,0,0,.29.18,1.8,1.8,0,0,0,.54,0l.83-.19a3.33,3.33,0,0,1,.93-.11,1.09,1.09,0,0,1,.64.21,1.17,1.17,0,0,1,.36.57,2.8,2.8,0,0,1,.13.94,4.57,4.57,0,0,1-.18,1.26,4.81,4.81,0,0,1-.52,1.21,5.5,5.5,0,0,1-.82,1.08,4.94,4.94,0,0,1-1.08.85,3.25,3.25,0,0,1-1,.37A1.54,1.54,0,0,1,270,103a1.17,1.17,0,0,1-.57-.53,2.05,2.05,0,0,1-.25-1,.64.64,0,0,1,.07-.31.48.48,0,0,1,.18-.21l.63-.36c.1-.06.18-.08.23,0a.31.31,0,0,1,.14.17,1.82,1.82,0,0,0,.15.27.48.48,0,0,0,.24.18.94.94,0,0,0,.38,0,2,2,0,0,0,.58-.24,5.56,5.56,0,0,0,.52-.37,3.19,3.19,0,0,0,.44-.46,2.39,2.39,0,0,0,.3-.54,1.53,1.53,0,0,0,.12-.6.54.54,0,0,0-.13-.42.48.48,0,0,0-.38-.12,3,3,0,0,0-.63.11l-.88.18a2.74,2.74,0,0,1-.78.06.9.9,0,0,1-.56-.24,1.16,1.16,0,0,1-.33-.59,4,4,0,0,1-.11-1,4.57,4.57,0,0,1,.18-1.26,5.37,5.37,0,0,1,.5-1.18,5.77,5.77,0,0,1,.75-1A3.88,3.88,0,0,1,271.71,92.7Z" style="fill:#92E3A9"></path><path d="M280,88.07a.13.13,0,0,1,.17,0,.3.3,0,0,1,.08.23v1a.67.67,0,0,1-.08.3.37.37,0,0,1-.17.21l-1.62.94v7.59a.7.7,0,0,1-.07.31.46.46,0,0,1-.17.21l-.73.42a.12.12,0,0,1-.17,0,.28.28,0,0,1-.07-.22V91.44l-1.62.93c-.07,0-.13,0-.17,0a.28.28,0,0,1-.08-.22v-1a.71.71,0,0,1,.08-.31.41.41,0,0,1,.17-.21Z" style="fill:#92E3A9"></path><g id="freepik--audio--inject-38"><path d="M227.51,151.68a.47.47,0,0,1-.46-.46v-1.6a.46.46,0,0,1,.92,0v1.6A.47.47,0,0,1,227.51,151.68Z" style="fill:#92E3A9"></path><path d="M229.82,154.88a.47.47,0,0,1-.46-.46V143.75a.46.46,0,0,1,.92,0v10.67A.47.47,0,0,1,229.82,154.88Z" style="fill:#92E3A9"></path><path d="M232.13,151.13a.45.45,0,0,1-.46-.46v-5.84a.46.46,0,0,1,.46-.46.47.47,0,0,1,.46.46v5.84A.46.46,0,0,1,232.13,151.13Z" style="fill:#92E3A9"></path><path d="M236.75,146.91a.46.46,0,0,1-.46-.46v-2.73a.46.46,0,0,1,.46-.46.47.47,0,0,1,.46.46v2.73A.47.47,0,0,1,236.75,146.91Z" style="fill:#92E3A9"></path><path d="M239.05,147.65a.47.47,0,0,1-.46-.46v-6.87a.46.46,0,0,1,.46-.46.45.45,0,0,1,.46.46v6.87A.46.46,0,0,1,239.05,147.65Z" style="fill:#92E3A9"></path><path d="M241.36,151.28a.47.47,0,0,1-.46-.46V134a.47.47,0,0,1,.46-.46.46.46,0,0,1,.46.46v16.8A.46.46,0,0,1,241.36,151.28Z" style="fill:#92E3A9"></path><path d="M243.67,148.22a.47.47,0,0,1-.46-.46V134.42a.46.46,0,0,1,.46-.46.45.45,0,0,1,.46.46v13.34A.46.46,0,0,1,243.67,148.22Z" style="fill:#92E3A9"></path><path d="M246,149.82a.47.47,0,0,1-.46-.46V130.15a.47.47,0,0,1,.46-.46.46.46,0,0,1,.46.46v19.21A.46.46,0,0,1,246,149.82Z" style="fill:#92E3A9"></path><path d="M248.29,143.49a.47.47,0,0,1-.46-.46v-9.22a.46.46,0,0,1,.92,0V143A.47.47,0,0,1,248.29,143.49Z" style="fill:#92E3A9"></path><path d="M250.6,138.65a.46.46,0,0,1-.46-.46V136a.45.45,0,0,1,.46-.46.46.46,0,0,1,.46.46v2.2A.47.47,0,0,1,250.6,138.65Z" style="fill:#92E3A9"></path><path d="M255.22,141.19a.46.46,0,0,1-.46-.46V128.12a.45.45,0,0,1,.46-.46.46.46,0,0,1,.46.46v12.61A.47.47,0,0,1,255.22,141.19Z" style="fill:#92E3A9"></path><path d="M259.83,141.79a.47.47,0,0,1-.46-.46V122.18a.47.47,0,0,1,.46-.46.46.46,0,0,1,.46.46v19.15A.46.46,0,0,1,259.83,141.79Z" style="fill:#92E3A9"></path><path d="M264.45,130.91a.46.46,0,0,1-.46-.46v-2.72a.46.46,0,0,1,.46-.46.45.45,0,0,1,.46.46v2.72A.45.45,0,0,1,264.45,130.91Z" style="fill:#92E3A9"></path><path d="M287.48,117.05a.46.46,0,0,1-.46-.46V115a.47.47,0,0,1,.46-.46.46.46,0,0,1,.46.46v1.6A.45.45,0,0,1,287.48,117.05Z" style="fill:#92E3A9"></path><path d="M285.18,122.92a.46.46,0,0,1-.46-.46V111.79a.46.46,0,0,1,.46-.46.47.47,0,0,1,.46.46v10.67A.47.47,0,0,1,285.18,122.92Z" style="fill:#92E3A9"></path><path d="M282.87,121.84a.46.46,0,0,1-.46-.46v-5.84a.45.45,0,0,1,.46-.46.46.46,0,0,1,.46.46v5.84A.47.47,0,0,1,282.87,121.84Z" style="fill:#92E3A9"></path><path d="M278.25,123a.46.46,0,0,1-.46-.46v-2.73a.46.46,0,0,1,.46-.46.47.47,0,0,1,.46.46v2.73A.47.47,0,0,1,278.25,123Z" style="fill:#92E3A9"></path><path d="M275.94,126.35a.46.46,0,0,1-.46-.46V119a.46.46,0,0,1,.92,0v6.87A.46.46,0,0,1,275.94,126.35Z" style="fill:#92E3A9"></path><path d="M273.63,132.65a.47.47,0,0,1-.46-.46v-16.8a.47.47,0,0,1,.46-.46.46.46,0,0,1,.46.46v16.8A.46.46,0,0,1,273.63,132.65Z" style="fill:#92E3A9"></path><path d="M269,136.52a.46.46,0,0,1-.46-.46V116.85a.47.47,0,0,1,.46-.46.46.46,0,0,1,.46.46v19.21A.45.45,0,0,1,269,136.52Z" style="fill:#92E3A9"></path><path d="M266.7,131.83a.47.47,0,0,1-.46-.46v-7.16a.47.47,0,0,1,.46-.46.46.46,0,0,1,.46.46v7.16A.46.46,0,0,1,266.7,131.83Z" style="fill:#92E3A9"></path><path d="M234.44,155.42A.46.46,0,0,1,234,155V137.88a.45.45,0,0,1,.46-.46.46.46,0,0,1,.46.46V155A.47.47,0,0,1,234.44,155.42Z" style="fill:#92E3A9"></path><path d="M252.91,138.56a.46.46,0,0,1-.46-.46v-4.69a.46.46,0,0,1,.46-.46.47.47,0,0,1,.46.46v4.69A.47.47,0,0,1,252.91,138.56Z" style="fill:#92E3A9"></path><path d="M257.53,146.59a.45.45,0,0,1-.46-.46V120.05a.45.45,0,0,1,.46-.46.46.46,0,0,1,.46.46v26.08A.46.46,0,0,1,257.53,146.59Z" style="fill:#92E3A9"></path><path d="M262.14,135.35a.47.47,0,0,1-.46-.46V126a.47.47,0,0,1,.46-.46.46.46,0,0,1,.46.46v8.93A.46.46,0,0,1,262.14,135.35Z" style="fill:#92E3A9"></path><path d="M280.56,128.79a.45.45,0,0,1-.46-.46V111.25a.46.46,0,0,1,.46-.46.47.47,0,0,1,.46.46v17.08A.46.46,0,0,1,280.56,128.79Z" style="fill:#92E3A9"></path><path d="M271.32,132.25a.46.46,0,0,1-.46-.46V118.45a.47.47,0,0,1,.46-.46.46.46,0,0,1,.46.46v13.34A.45.45,0,0,1,271.32,132.25Z" style="fill:#92E3A9"></path></g><path d="M226.55,192.59h-.06a.06.06,0,0,1,0,0v-.3l-.94.54s0,0-.05,0,0,0,0,0v-.32a.42.42,0,0,1,0-.15l.89-1.63s0-.06.05-.07,0,0,.06-.05l.45-.26H227a.08.08,0,0,1,0,0v1.14l.25-.15h.06s0,0,0,0v.32a.13.13,0,0,1,0,.07s0,0-.06.06l-.25.14v.31a.25.25,0,0,1,0,.07l-.06.05Zm-.07-.82v-.55l-.43.8Z" style="fill:#fff"></path><path d="M228.31,190.45a.19.19,0,0,1,0,.07.34.34,0,0,1-.06.06l-.39.22s0,0-.05,0,0,0,0,0v-.39a.11.11,0,0,1,0-.07.1.1,0,0,1,.05-.06l.39-.22a0,0,0,0,1,.06,0s0,0,0,0Zm0,1a.19.19,0,0,1,0,.07.34.34,0,0,1-.06.06l-.39.22s0,0-.05,0,0,0,0,0v-.39a.11.11,0,0,1,0-.07s0,0,.05-.06l.39-.22a0,0,0,0,1,.06,0,.05.05,0,0,1,0,0Z" style="fill:#fff"></path><path d="M229.81,190.7s0,0-.05,0,0,0,0,0v-.3l-.93.54h-.06s0,0,0,0v-.31a.28.28,0,0,1,0-.15l.88-1.63.05-.08.06,0,.45-.26a.07.07,0,0,1,.06,0s0,0,0,0v1.14l.26-.14a0,0,0,0,1,.06,0s0,0,0,0v.32a.25.25,0,0,1,0,.07l-.06.05-.26.15v.3a.1.1,0,0,1,0,.07.17.17,0,0,1-.06.06Zm-.06-.82v-.54l-.44.79Z" style="fill:#fff"></path><path d="M231.19,189.84a.08.08,0,0,1,0,0l.64-1.87-.88.51s-.05,0-.06,0,0,0,0,0v-.32a.13.13,0,0,1,0-.07A.17.17,0,0,1,231,188l1.42-.82h.05s0,0,0,0v.27a.62.62,0,0,1-.05.18l-.65,1.88a.09.09,0,0,1,0,.06s0,0,0,.06l-.42.24h0A.05.05,0,0,1,231.19,189.84Z" style="fill:#fff"></path><path d="M285.13,158.05a.84.84,0,0,1-.07.35,1.7,1.7,0,0,1-.19.35,2.09,2.09,0,0,1-.29.31,1.91,1.91,0,0,1-.33.25,1.53,1.53,0,0,1-.34.14.74.74,0,0,1-.29,0,.35.35,0,0,1-.19-.12.47.47,0,0,1-.07-.28.55.55,0,0,1,0-.18,1.09,1.09,0,0,1,.05-.17l.08-.16.07-.15.57-1.1,0-.05a.17.17,0,0,1,.06-.06l.47-.27h.05s0,0,0,0v0l-.39.74a.93.93,0,0,1,.3-.09.48.48,0,0,1,.24,0,.26.26,0,0,1,.16.13A.44.44,0,0,1,285.13,158.05Zm-1.22.71a.17.17,0,0,0,0,.1l.07,0h.11l.13-.06.12-.09a.57.57,0,0,0,.11-.11.54.54,0,0,0,.07-.13.31.31,0,0,0,0-.13.13.13,0,0,0,0-.1.1.1,0,0,0-.07,0,.22.22,0,0,0-.11,0l-.12,0a.6.6,0,0,0-.13.09,1.14,1.14,0,0,0-.11.11l-.07.13A.35.35,0,0,0,283.91,158.76Z" style="fill:#fff"></path><path d="M286.08,157.1a.25.25,0,0,1,0,.07l-.06.05-.39.23a.07.07,0,0,1-.06,0,.05.05,0,0,1,0,0V157a.19.19,0,0,1,0-.07.17.17,0,0,1,.06-.06l.39-.22a0,0,0,0,1,.06,0s0,0,0,0Zm0,1a.25.25,0,0,1,0,.07l-.06.06-.39.22a.07.07,0,0,1-.06,0,.05.05,0,0,1,0,0v-.39a.19.19,0,0,1,0-.07.17.17,0,0,1,.06-.06l.39-.22a0,0,0,0,1,.06,0s0,0,0,0Z" style="fill:#fff"></path><path d="M288.09,155s0,0,.05,0,0,0,0,0v.32a.25.25,0,0,1,0,.07l0,.07-.36.57a.56.56,0,0,1,.38,0c.09,0,.14.13.14.29a1.07,1.07,0,0,1-.23.64,2.23,2.23,0,0,1-.65.54,1.72,1.72,0,0,1-.38.17.72.72,0,0,1-.28,0,.31.31,0,0,1-.17-.09.28.28,0,0,1-.06-.18.07.07,0,0,1,0-.06.08.08,0,0,1,0,0l.38-.22.09,0,.07,0h.11a.53.53,0,0,0,.18-.07,1.18,1.18,0,0,0,.24-.19.28.28,0,0,0,.09-.2c0-.07,0-.11-.09-.1a.48.48,0,0,0-.24.09l-.25.14s0,0-.05,0,0,0,0,0v-.26a.25.25,0,0,1,0-.07l.05-.07.31-.5-.77.45h-.06s0,0,0,0v-.31a.11.11,0,0,1,0-.07s0-.05.06-.06Z" style="fill:#fff"></path><path d="M289.57,154.09a1.14,1.14,0,0,1,.39-.15.37.37,0,0,1,.26,0,.35.35,0,0,1,.16.16,1.06,1.06,0,0,1,.06.28c0,.08,0,.17,0,.26s0,.18,0,.27a2.21,2.21,0,0,1-.06.34,1.81,1.81,0,0,1-.16.35,2.5,2.5,0,0,1-.26.33,2,2,0,0,1-.39.28,1.15,1.15,0,0,1-.38.16.47.47,0,0,1-.27,0,.31.31,0,0,1-.15-.17.77.77,0,0,1-.07-.27v-.53a1.37,1.37,0,0,1,.07-.34,1.19,1.19,0,0,1,.15-.35,1.4,1.4,0,0,1,.27-.33A1.9,1.9,0,0,1,289.57,154.09Zm.32,1.14a4.17,4.17,0,0,0,0-.5.51.51,0,0,0,0-.13.13.13,0,0,0-.05-.07.12.12,0,0,0-.1,0,.29.29,0,0,0-.15.06.58.58,0,0,0-.15.11.38.38,0,0,0-.09.13.58.58,0,0,0-.05.14.8.8,0,0,0,0,.15,4.17,4.17,0,0,0,0,.5s0,.09,0,.12a.12.12,0,0,0,.06.08s.05,0,.09,0l.15-.06a.61.61,0,0,0,.15-.12l.1-.12a1.21,1.21,0,0,0,.05-.14A.77.77,0,0,0,289.89,155.23Z" style="fill:#fff"></path><path d="M256.7,157.12v4.58a.74.74,0,0,1-.33.57l-.88.51c-.18.1-.33,0-.33-.19V158a.74.74,0,0,1,.33-.57l.88-.51C256.55,156.82,256.7,156.91,256.7,157.12Z" style="fill:#fff"></path><path d="M259.78,155.34v4.58a.74.74,0,0,1-.33.57l-.88.51c-.18.1-.33,0-.33-.19v-4.58a.74.74,0,0,1,.33-.57l.88-.51C259.63,155,259.78,155.13,259.78,155.34Z" style="fill:#fff"></path><path d="M271.92,148.28v4.58a.73.73,0,0,1-.33.57l-.88.51c-.18.11-.33,0-.33-.19v-4.58a.74.74,0,0,1,.33-.57l.88-.51C271.78,148,271.92,148.07,271.92,148.28Z" style="fill:#fff"></path><path d="M272.64,147.91v4.49c0,.33.18.4.4.14l4.14-4.78c.22-.25.12-.46-.21-.46h-3.72A.61.61,0,0,0,272.64,147.91Z" style="fill:#fff"></path><path d="M245,163.82v4.58a.74.74,0,0,1-.33.57l-.88.51c-.18.1-.33,0-.33-.19v-4.58a.73.73,0,0,1,.33-.57l.89-.51C244.86,163.52,245,163.61,245,163.82Z" style="fill:#fff"></path><path d="M242.88,169.6v-4.67c0-.36-.19-.44-.43-.17l-4.42,5c-.24.27-.14.49.22.49h4A.65.65,0,0,0,242.88,169.6Z" style="fill:#fff"></path><path d="M236.24,184.2l43.31-25c.71-.41,1.29-.12,1.29.65a2.77,2.77,0,0,1-1.29,2.14l-43.31,25c-.71.41-1.29.12-1.29-.65A2.79,2.79,0,0,1,236.24,184.2Z" style="fill:#fff;opacity:0.30000000000000004"></path><path d="M236.24,184.2l32.52-18.77c.71-.41,1.29-.12,1.29.65a2.77,2.77,0,0,1-1.29,2.14L236.24,187c-.71.41-1.29.12-1.29-.65A2.79,2.79,0,0,1,236.24,184.2Z" style="fill:#92E3A9"></path></g></g></svg>